<svg xmlns="http://www.w3.org/2000/svg" xmlns:xlink="http://www.w3.org/1999/xlink" contentStyleType="text/css" height="854px" preserveAspectRatio="none" style="width:757px;height:854px;background:#1B1B1B;" version="1.1" viewBox="0 0 757 854" width="757px" zoomAndPan="magnify"><title>Event Registration Process</title><defs/><g><rect fill="#1B1B1B" height="854" style="stroke:none;stroke-width:1;" width="757" x="0" y="0"/><text fill="#FFFFFF" font-family="sans-serif" font-size="14" font-weight="bold" lengthAdjust="spacing" textLength="213.3838" x="270.6704" y="32.9951">Event Registration Process</text><ellipse cx="490.5859" cy="57.2969" fill="#DDDDDD" rx="10" ry="10" style="stroke:#DDDDDD;stroke-width:1;"/><rect fill="#313139" height="33.9688" rx="12.5" ry="12.5" style="stroke:#E7E7E7;stroke-width:0.5;" width="95.2109" x="442.9805" y="87.2969"/><text fill="#FFFFFF" font-family="sans-serif" font-size="12" lengthAdjust="spacing" textLength="75.2109" x="452.9805" y="108.4355">Select Event</text><rect fill="#313139" height="33.9688" rx="12.5" ry="12.5" style="stroke:#E7E7E7;stroke-width:0.5;" width="146.3633" x="417.4043" y="141.2656"/><text fill="#FFFFFF" font-family="sans-serif" font-size="12" lengthAdjust="spacing" textLength="126.3633" x="427.4043" y="162.4043">Click Register Button</text><polygon fill="#313139" points="444.9451,195.2344,536.2268,195.2344,548.2268,207.2344,536.2268,219.2344,444.9451,219.2344,432.9451,207.2344,444.9451,195.2344" style="stroke:#E7E7E7;stroke-width:0.5;"/><text fill="#FFFFFF" font-family="sans-serif" font-size="11" lengthAdjust="spacing" textLength="91.2817" x="444.9451" y="211.0425">Event Available?</text><text fill="#FFFFFF" font-family="sans-serif" font-size="11" lengthAdjust="spacing" textLength="19.0083" x="413.9368" y="204.6401">yes</text><text fill="#FFFFFF" font-family="sans-serif" font-size="11" lengthAdjust="spacing" textLength="13.7017" x="548.2268" y="204.6401">no</text><rect fill="#313139" height="33.9688" rx="12.5" ry="12.5" style="stroke:#E7E7E7;stroke-width:0.5;" width="142.6074" x="254.7207" y="229.2344"/><text fill="#FFFFFF" font-family="sans-serif" font-size="12" lengthAdjust="spacing" textLength="122.6074" x="264.7207" y="250.373">Show Ticket Options</text><rect fill="#313139" height="33.9688" rx="12.5" ry="12.5" style="stroke:#E7E7E7;stroke-width:0.5;" width="130.3789" x="260.835" y="283.2031"/><text fill="#FFFFFF" font-family="sans-serif" font-size="12" lengthAdjust="spacing" textLength="110.3789" x="270.835" y="304.3418">Select Ticket Type</text><rect fill="#313139" height="33.9688" rx="12.5" ry="12.5" style="stroke:#E7E7E7;stroke-width:0.5;" width="174.3418" x="238.8535" y="337.1719"/><text fill="#FFFFFF" font-family="sans-serif" font-size="12" lengthAdjust="spacing" textLength="154.3418" x="248.8535" y="358.3105">Enter Registration Details</text><rect fill="#313139" height="33.9688" rx="12.5" ry="12.5" style="stroke:#E7E7E7;stroke-width:0.5;" width="141.2422" x="255.4033" y="391.1406"/><text fill="#FFFFFF" font-family="sans-serif" font-size="12" lengthAdjust="spacing" textLength="121.2422" x="265.4033" y="412.2793">Proceed to Payment</text><polygon fill="#313139" points="283.3511,445.1094,368.6978,445.1094,380.6978,457.1094,368.6978,469.1094,283.3511,469.1094,271.3511,457.1094,283.3511,445.1094" style="stroke:#E7E7E7;stroke-width:0.5;"/><text fill="#FFFFFF" font-family="sans-serif" font-size="11" lengthAdjust="spacing" textLength="85.3467" x="283.3511" y="460.9175">Payment Valid?</text><text fill="#FFFFFF" font-family="sans-serif" font-size="11" lengthAdjust="spacing" textLength="19.0083" x="252.3428" y="454.5151">yes</text><text fill="#FFFFFF" font-family="sans-serif" font-size="11" lengthAdjust="spacing" textLength="13.7017" x="380.6978" y="454.5151">no</text><rect fill="#AAAAAA" height="6" rx="2.5" ry="2.5" style="stroke:#AAAAAA;stroke-width:1;" width="359.7637" x="11" y="479.1094"/><rect fill="#313139" height="33.9688" rx="12.5" ry="12.5" style="stroke:#E7E7E7;stroke-width:0.5;" width="122.8848" x="23" y="505.1094"/><text fill="#FFFFFF" font-family="sans-serif" font-size="12" lengthAdjust="spacing" textLength="102.8848" x="33" y="526.248">Process Payment</text><rect fill="#313139" height="33.9688" rx="12.5" ry="12.5" style="stroke:#E7E7E7;stroke-width:0.5;" width="182.8789" x="173.8848" y="505.1094"/><text fill="#FFFFFF" font-family="sans-serif" font-size="12" lengthAdjust="spacing" textLength="162.8789" x="183.8848" y="526.248">Create Registration Record</text><rect fill="#AAAAAA" height="6" rx="2.5" ry="2.5" style="stroke:#AAAAAA;stroke-width:1;" width="359.7637" x="11" y="559.0781"/><rect fill="#313139" height="33.9688" rx="12.5" ry="12.5" style="stroke:#E7E7E7;stroke-width:0.5;" width="116.1582" x="131.8027" y="600.0781"/><text fill="#FFFFFF" font-family="sans-serif" font-size="12" lengthAdjust="spacing" textLength="96.1582" x="141.8027" y="621.2168">Generate Ticket</text><rect fill="#313139" height="33.9688" rx="12.5" ry="12.5" style="stroke:#E7E7E7;stroke-width:0.5;" width="168.9922" x="105.3857" y="654.0469"/><text fill="#FFFFFF" font-family="sans-serif" font-size="12" lengthAdjust="spacing" textLength="148.9922" x="115.3857" y="675.1855">Send Confirmation Email</text><rect fill="#313139" height="33.9688" rx="12.5" ry="12.5" style="stroke:#E7E7E7;stroke-width:0.5;" width="172.7598" x="103.502" y="708.0156"/><text fill="#FFFFFF" font-family="sans-serif" font-size="12" lengthAdjust="spacing" textLength="152.7598" x="113.502" y="729.1543">Display Success Message</text><rect fill="#313139" height="33.9688" rx="12.5" ry="12.5" style="stroke:#E7E7E7;stroke-width:0.5;" width="142.8066" x="390.7637" y="479.1094"/><text fill="#FFFFFF" font-family="sans-serif" font-size="12" lengthAdjust="spacing" textLength="122.8066" x="400.7637" y="500.248">Show Payment Error</text><rect fill="#313139" height="33.9688" rx="12.5" ry="12.5" style="stroke:#E7E7E7;stroke-width:0.5;" width="133.3203" x="395.5068" y="548.0781"/><text fill="#FFFFFF" font-family="sans-serif" font-size="12" lengthAdjust="spacing" textLength="113.3203" x="405.5068" y="569.2168">Return to Payment</text><polygon fill="#313139" points="326.0244,747.9844,338.0244,759.9844,326.0244,771.9844,314.0244,759.9844,326.0244,747.9844" style="stroke:#E7E7E7;stroke-width:0.5;"/><rect fill="#313139" height="33.9688" rx="12.5" ry="12.5" style="stroke:#E7E7E7;stroke-width:0.5;" width="183.1543" x="563.5703" y="229.2344"/><text fill="#FFFFFF" font-family="sans-serif" font-size="12" lengthAdjust="spacing" textLength="163.1543" x="573.5703" y="250.373">Show Unavailable Message</text><rect fill="#313139" height="33.9688" rx="12.5" ry="12.5" style="stroke:#E7E7E7;stroke-width:0.5;" width="158.6504" x="575.8223" y="283.2031"/><text fill="#FFFFFF" font-family="sans-serif" font-size="12" lengthAdjust="spacing" textLength="138.6504" x="585.8223" y="304.3418">Suggest Similar Events</text><polygon fill="#313139" points="490.5859,777.9844,502.5859,789.9844,490.5859,801.9844,478.5859,789.9844,490.5859,777.9844" style="stroke:#E7E7E7;stroke-width:0.5;"/><ellipse cx="490.5859" cy="832.9844" fill="none" rx="11" ry="11" style="stroke:#DDDDDD;stroke-width:1;"/><ellipse cx="490.5859" cy="832.9844" fill="#DDDDDD" rx="6" ry="6" style="stroke:#DDDDDD;stroke-width:1;"/><line style="stroke:#E7E7E7;stroke-width:1;" x1="490.5859" x2="490.5859" y1="67.2969" y2="87.2969"/><polygon fill="#E7E7E7" points="486.5859,77.2969,490.5859,87.2969,494.5859,77.2969,490.5859,81.2969" style="stroke:#E7E7E7;stroke-width:1;"/><line style="stroke:#E7E7E7;stroke-width:1;" x1="490.5859" x2="490.5859" y1="121.2656" y2="141.2656"/><polygon fill="#E7E7E7" points="486.5859,131.2656,490.5859,141.2656,494.5859,131.2656,490.5859,135.2656" style="stroke:#E7E7E7;stroke-width:1;"/><line style="stroke:#E7E7E7;stroke-width:1;" x1="326.0244" x2="326.0244" y1="263.2031" y2="283.2031"/><polygon fill="#E7E7E7" points="322.0244,273.2031,326.0244,283.2031,330.0244,273.2031,326.0244,277.2031" style="stroke:#E7E7E7;stroke-width:1;"/><line style="stroke:#E7E7E7;stroke-width:1;" x1="326.0244" x2="326.0244" y1="317.1719" y2="337.1719"/><polygon fill="#E7E7E7" points="322.0244,327.1719,326.0244,337.1719,330.0244,327.1719,326.0244,331.1719" style="stroke:#E7E7E7;stroke-width:1;"/><line style="stroke:#E7E7E7;stroke-width:1;" x1="326.0244" x2="326.0244" y1="371.1406" y2="391.1406"/><polygon fill="#E7E7E7" points="322.0244,381.1406,326.0244,391.1406,330.0244,381.1406,326.0244,385.1406" style="stroke:#E7E7E7;stroke-width:1;"/><line style="stroke:#E7E7E7;stroke-width:1;" x1="84.4424" x2="84.4424" y1="485.1094" y2="505.1094"/><polygon fill="#E7E7E7" points="80.4424,495.1094,84.4424,505.1094,88.4424,495.1094,84.4424,499.1094" style="stroke:#E7E7E7;stroke-width:1;"/><line style="stroke:#E7E7E7;stroke-width:1;" x1="265.3242" x2="265.3242" y1="485.1094" y2="505.1094"/><polygon fill="#E7E7E7" points="261.3242,495.1094,265.3242,505.1094,269.3242,495.1094,265.3242,499.1094" style="stroke:#E7E7E7;stroke-width:1;"/><line style="stroke:#E7E7E7;stroke-width:1;" x1="84.4424" x2="84.4424" y1="539.0781" y2="559.0781"/><polygon fill="#E7E7E7" points="80.4424,549.0781,84.4424,559.0781,88.4424,549.0781,84.4424,553.0781" style="stroke:#E7E7E7;stroke-width:1;"/><line style="stroke:#E7E7E7;stroke-width:1;" x1="265.3242" x2="265.3242" y1="539.0781" y2="559.0781"/><polygon fill="#E7E7E7" points="261.3242,549.0781,265.3242,559.0781,269.3242,549.0781,265.3242,553.0781" style="stroke:#E7E7E7;stroke-width:1;"/><line style="stroke:#E7E7E7;stroke-width:1;" x1="189.8818" x2="189.8818" y1="565.0781" y2="600.0781"/><polygon fill="#E7E7E7" points="185.8818,590.0781,189.8818,600.0781,193.8818,590.0781,189.8818,594.0781" style="stroke:#E7E7E7;stroke-width:1;"/><line style="stroke:#E7E7E7;stroke-width:1;" x1="189.8818" x2="189.8818" y1="634.0469" y2="654.0469"/><polygon fill="#E7E7E7" points="185.8818,644.0469,189.8818,654.0469,193.8818,644.0469,189.8818,648.0469" style="stroke:#E7E7E7;stroke-width:1;"/><line style="stroke:#E7E7E7;stroke-width:1;" x1="189.8818" x2="189.8818" y1="688.0156" y2="708.0156"/><polygon fill="#E7E7E7" points="185.8818,698.0156,189.8818,708.0156,193.8818,698.0156,189.8818,702.0156" style="stroke:#E7E7E7;stroke-width:1;"/><line style="stroke:#E7E7E7;stroke-width:1;" x1="462.167" x2="462.167" y1="513.0781" y2="548.0781"/><polygon fill="#E7E7E7" points="458.167,538.0781,462.167,548.0781,466.167,538.0781,462.167,542.0781" style="stroke:#E7E7E7;stroke-width:1;"/><line style="stroke:#E7E7E7;stroke-width:1;" x1="271.3511" x2="189.8818" y1="457.1094" y2="457.1094"/><line style="stroke:#E7E7E7;stroke-width:1;" x1="189.8818" x2="189.8818" y1="457.1094" y2="479.1094"/><polygon fill="#E7E7E7" points="185.8818,469.1094,189.8818,479.1094,193.8818,469.1094,189.8818,473.1094" style="stroke:#E7E7E7;stroke-width:1;"/><line style="stroke:#E7E7E7;stroke-width:1;" x1="380.6978" x2="462.167" y1="457.1094" y2="457.1094"/><line style="stroke:#E7E7E7;stroke-width:1;" x1="462.167" x2="462.167" y1="457.1094" y2="479.1094"/><polygon fill="#E7E7E7" points="458.167,469.1094,462.167,479.1094,466.167,469.1094,462.167,473.1094" style="stroke:#E7E7E7;stroke-width:1;"/><line style="stroke:#E7E7E7;stroke-width:1;" x1="189.8818" x2="189.8818" y1="741.9844" y2="759.9844"/><line style="stroke:#E7E7E7;stroke-width:1;" x1="189.8818" x2="314.0244" y1="759.9844" y2="759.9844"/><polygon fill="#E7E7E7" points="304.0244,755.9844,314.0244,759.9844,304.0244,763.9844,308.0244,759.9844" style="stroke:#E7E7E7;stroke-width:1;"/><line style="stroke:#E7E7E7;stroke-width:1;" x1="462.167" x2="462.167" y1="582.0469" y2="759.9844"/><line style="stroke:#E7E7E7;stroke-width:1;" x1="462.167" x2="338.0244" y1="759.9844" y2="759.9844"/><polygon fill="#E7E7E7" points="348.0244,755.9844,338.0244,759.9844,348.0244,763.9844,344.0244,759.9844" style="stroke:#E7E7E7;stroke-width:1;"/><line style="stroke:#E7E7E7;stroke-width:1;" x1="326.0244" x2="326.0244" y1="425.1094" y2="445.1094"/><polygon fill="#E7E7E7" points="322.0244,435.1094,326.0244,445.1094,330.0244,435.1094,326.0244,439.1094" style="stroke:#E7E7E7;stroke-width:1;"/><line style="stroke:#E7E7E7;stroke-width:1;" x1="655.1475" x2="655.1475" y1="263.2031" y2="283.2031"/><polygon fill="#E7E7E7" points="651.1475,273.2031,655.1475,283.2031,659.1475,273.2031,655.1475,277.2031" style="stroke:#E7E7E7;stroke-width:1;"/><line style="stroke:#E7E7E7;stroke-width:1;" x1="432.9451" x2="326.0244" y1="207.2344" y2="207.2344"/><line style="stroke:#E7E7E7;stroke-width:1;" x1="326.0244" x2="326.0244" y1="207.2344" y2="229.2344"/><polygon fill="#E7E7E7" points="322.0244,219.2344,326.0244,229.2344,330.0244,219.2344,326.0244,223.2344" style="stroke:#E7E7E7;stroke-width:1;"/><line style="stroke:#E7E7E7;stroke-width:1;" x1="548.2268" x2="655.1475" y1="207.2344" y2="207.2344"/><line style="stroke:#E7E7E7;stroke-width:1;" x1="655.1475" x2="655.1475" y1="207.2344" y2="229.2344"/><polygon fill="#E7E7E7" points="651.1475,219.2344,655.1475,229.2344,659.1475,219.2344,655.1475,223.2344" style="stroke:#E7E7E7;stroke-width:1;"/><line style="stroke:#E7E7E7;stroke-width:1;" x1="326.0244" x2="326.0244" y1="771.9844" y2="789.9844"/><line style="stroke:#E7E7E7;stroke-width:1;" x1="326.0244" x2="478.5859" y1="789.9844" y2="789.9844"/><polygon fill="#E7E7E7" points="468.5859,785.9844,478.5859,789.9844,468.5859,793.9844,472.5859,789.9844" style="stroke:#E7E7E7;stroke-width:1;"/><line style="stroke:#E7E7E7;stroke-width:1;" x1="655.1475" x2="655.1475" y1="317.1719" y2="789.9844"/><line style="stroke:#E7E7E7;stroke-width:1;" x1="655.1475" x2="502.5859" y1="789.9844" y2="789.9844"/><polygon fill="#E7E7E7" points="512.5859,785.9844,502.5859,789.9844,512.5859,793.9844,508.5859,789.9844" style="stroke:#E7E7E7;stroke-width:1;"/><line style="stroke:#E7E7E7;stroke-width:1;" x1="490.5859" x2="490.5859" y1="175.2344" y2="195.2344"/><polygon fill="#E7E7E7" points="486.5859,185.2344,490.5859,195.2344,494.5859,185.2344,490.5859,189.2344" style="stroke:#E7E7E7;stroke-width:1;"/><line style="stroke:#E7E7E7;stroke-width:1;" x1="490.5859" x2="490.5859" y1="801.9844" y2="821.9844"/><polygon fill="#E7E7E7" points="486.5859,811.9844,490.5859,821.9844,494.5859,811.9844,490.5859,815.9844" style="stroke:#E7E7E7;stroke-width:1;"/><!--SRC=[RL9DRuCm3BttL_XO_W8zJ1r5EqsheDiz0qEZXWGvfXF_VWdXUxCG0jll-UN5B5aXf4_K31dMqZ89baR3bKo1rXu0t6DP48VFE4U51GV8QSmbIXQF4Oy4hnspqMDHLd0C_EUda4fyAto9WE-euTYZZLoBZpY_cn-uEHva-6Yz1dkQQs7cMBtrBSwbLFk96-aNP3TeGGz7mHBOm5NqpQBRXvStPk5BA5d-9yv7PUYn-bsOhLtJhjj1r4BgFIWX58nRoHaMXier7dKvZLnbupVKI1uUl5WZd4iEanXTIMe2RTeu8pOz5sbR9Nh8ks9G_kvUefxjH6KHZjf46rv_CvD7AP6X3MM6t97UkJiUGLQ7lwI1y5EBQH_sAkAygskq3BbiN0U5PHikTE8SbjAqlm00]--></g></svg>