<svg xmlns="http://www.w3.org/2000/svg" xmlns:xlink="http://www.w3.org/1999/xlink" contentStyleType="text/css" height="1525px" preserveAspectRatio="none" style="width:615px;height:1525px;background:#1B1B1B;" version="1.1" viewBox="0 0 615 1525" width="615px" zoomAndPan="magnify"><defs/><g><rect fill="#1B1B1B" height="1525" style="stroke:none;stroke-width:1;" width="615" x="0" y="0"/><ellipse cx="345.1802" cy="20" fill="#DDDDDD" rx="10" ry="10" style="stroke:#DDDDDD;stroke-width:1;"/><rect fill="none" height="360.1719" style="stroke:#FFFFFF;stroke-width:1.5;" width="573.0215" x="11" y="40"/><path d="M125.0977,40 L125.0977,49.2969 L115.0977,59.2969 L11,59.2969 " fill="none" style="stroke:#FFFFFF;stroke-width:1.5;"/><text fill="#FFFFFF" font-family="sans-serif" font-size="14" lengthAdjust="spacing" textLength="104.0977" x="14" y="53.9951">Event Creation</text><rect fill="#313139" height="33.9688" rx="12.5" ry="12.5" style="stroke:#E7E7E7;stroke-width:0.5;" width="132.7227" x="278.8188" y="76.2969"/><text fill="#FFFFFF" font-family="sans-serif" font-size="12" lengthAdjust="spacing" textLength="112.7227" x="288.8188" y="97.4355">Login as Organizer</text><rect fill="#313139" height="33.9688" rx="12.5" ry="12.5" style="stroke:#E7E7E7;stroke-width:0.5;" width="120.5117" x="284.9243" y="130.2656"/><text fill="#FFFFFF" font-family="sans-serif" font-size="12" lengthAdjust="spacing" textLength="100.5117" x="294.9243" y="151.4043">Fill Event Details</text><polygon fill="#313139" points="312.6851,184.2344,377.6753,184.2344,389.6753,196.2344,377.6753,208.2344,312.6851,208.2344,300.6851,196.2344,312.6851,184.2344" style="stroke:#E7E7E7;stroke-width:0.5;"/><text fill="#FFFFFF" font-family="sans-serif" font-size="11" lengthAdjust="spacing" textLength="64.9902" x="312.6851" y="200.0425">Form Valid?</text><text fill="#FFFFFF" font-family="sans-serif" font-size="11" lengthAdjust="spacing" textLength="19.0083" x="281.6768" y="193.6401">yes</text><text fill="#FFFFFF" font-family="sans-serif" font-size="11" lengthAdjust="spacing" textLength="13.7017" x="389.6753" y="193.6401">no</text><rect fill="#313139" height="33.9688" rx="12.5" ry="12.5" style="stroke:#E7E7E7;stroke-width:0.5;" width="87.6465" x="160.6016" y="218.2344"/><text fill="#FFFFFF" font-family="sans-serif" font-size="12" lengthAdjust="spacing" textLength="67.6465" x="170.6016" y="239.373">Save Event</text><rect fill="#AAAAAA" height="6" rx="2.5" ry="2.5" style="stroke:#AAAAAA;stroke-width:1;" width="364.8496" x="23" y="272.2031"/><rect fill="#313139" height="33.9688" rx="12.5" ry="12.5" style="stroke:#E7E7E7;stroke-width:0.5;" width="141.8574" x="35" y="298.2031"/><text fill="#FFFFFF" font-family="sans-serif" font-size="12" lengthAdjust="spacing" textLength="121.8574" x="45" y="319.3418">Generate Event URL</text><rect fill="#313139" height="33.9688" rx="12.5" ry="12.5" style="stroke:#E7E7E7;stroke-width:0.5;" width="168.9922" x="204.8574" y="298.2031"/><text fill="#FFFFFF" font-family="sans-serif" font-size="12" lengthAdjust="spacing" textLength="148.9922" x="214.8574" y="319.3418">Send Confirmation Email</text><rect fill="#AAAAAA" height="6" rx="2.5" ry="2.5" style="stroke:#AAAAAA;stroke-width:1;" width="364.8496" x="23" y="352.1719"/><rect fill="#313139" height="33.9688" rx="12.5" ry="12.5" style="stroke:#E7E7E7;stroke-width:0.5;" width="156.1719" x="407.8496" y="218.2344"/><text fill="#FFFFFF" font-family="sans-serif" font-size="12" lengthAdjust="spacing" textLength="136.1719" x="417.8496" y="239.373">Show Validation Errors</text><rect fill="#313139" height="33.9688" rx="12.5" ry="12.5" style="stroke:#E7E7E7;stroke-width:0.5;" width="111.1133" x="430.3789" y="272.2031"/><text fill="#FFFFFF" font-family="sans-serif" font-size="12" lengthAdjust="spacing" textLength="91.1133" x="440.3789" y="293.3418">Return to Form</text><polygon fill="#313139" points="345.1802,364.1719,357.1802,376.1719,345.1802,388.1719,333.1802,376.1719,345.1802,364.1719" style="stroke:#E7E7E7;stroke-width:0.5;"/><rect fill="none" height="493.7891" style="stroke:#FFFFFF;stroke-width:1.5;" width="509.832" x="90.2642" y="410.1719"/><path d="M237.0444,410.1719 L237.0444,419.4688 L227.0444,429.4688 L90.2642,429.4688 " fill="none" style="stroke:#FFFFFF;stroke-width:1.5;"/><text fill="#FFFFFF" font-family="sans-serif" font-size="14" lengthAdjust="spacing" textLength="136.7803" x="93.2642" y="424.167">Event Management</text><rect fill="#AAAAAA" height="6" rx="2.5" ry="2.5" style="stroke:#AAAAAA;stroke-width:1;" width="489.832" x="100.2642" y="446.4688"/><rect fill="none" height="377.5742" style="stroke:#FFFFFF;stroke-width:1.5;" width="189.7773" x="114.2642" y="476.3867"/><path d="M208.3257,476.3867 L208.3257,485.6836 L198.3257,495.6836 L114.2642,495.6836 " fill="none" style="stroke:#FFFFFF;stroke-width:1.5;"/><text fill="#FFFFFF" font-family="sans-serif" font-size="14" lengthAdjust="spacing" textLength="84.0615" x="117.2642" y="490.3818">Ticket Sales</text><rect fill="#313139" height="33.9688" rx="12.5" ry="12.5" style="stroke:#E7E7E7;stroke-width:0.5;" width="127.918" x="146.6938" y="512.6836"/><text fill="#FFFFFF" font-family="sans-serif" font-size="12" lengthAdjust="spacing" textLength="107.918" x="156.6938" y="533.8223">Open Ticket Sales</text><rect fill="#313139" height="33.9688" rx="12.5" ry="12.5" style="stroke:#E7E7E7;stroke-width:0.5;" width="124.7773" x="148.2642" y="642.457"/><text fill="#FFFFFF" font-family="sans-serif" font-size="12" lengthAdjust="spacing" textLength="104.7773" x="158.2642" y="663.5957">Process Purchase</text><rect fill="#313139" height="33.9688" rx="12.5" ry="12.5" style="stroke:#E7E7E7;stroke-width:0.5;" width="124.5898" x="148.3579" y="711.4258"/><text fill="#FFFFFF" font-family="sans-serif" font-size="12" lengthAdjust="spacing" textLength="104.5898" x="158.3579" y="732.5645">Update Inventory</text><polygon fill="#313139" points="161.2656,581.6523,260.04,581.6523,272.04,593.6523,260.04,605.6523,161.2656,605.6523,149.2656,593.6523,161.2656,581.6523" style="stroke:#E7E7E7;stroke-width:0.5;"/><text fill="#FFFFFF" font-family="sans-serif" font-size="11" lengthAdjust="spacing" textLength="19.0083" x="214.6528" y="615.8628">yes</text><text fill="#FFFFFF" font-family="sans-serif" font-size="11" lengthAdjust="spacing" textLength="98.7744" x="161.2656" y="597.4604">Tickets Available?</text><text fill="#FFFFFF" font-family="sans-serif" font-size="11" lengthAdjust="spacing" textLength="13.7017" x="135.564" y="591.0581">no</text><rect fill="#313139" height="33.9688" rx="12.5" ry="12.5" style="stroke:#E7E7E7;stroke-width:0.5;" width="128.5566" x="146.3745" y="799.9922"/><text fill="#FFFFFF" font-family="sans-serif" font-size="12" lengthAdjust="spacing" textLength="108.5566" x="156.3745" y="821.1309">Close Ticket Sales</text><rect fill="none" height="403.4922" style="stroke:#FFFFFF;stroke-width:1.5;" width="244.0547" x="332.0415" y="462.4688"/><path d="M502.8706,462.4688 L502.8706,471.7656 L492.8706,481.7656 L332.0415,481.7656 " fill="none" style="stroke:#FFFFFF;stroke-width:1.5;"/><text fill="#FFFFFF" font-family="sans-serif" font-size="14" lengthAdjust="spacing" textLength="160.8291" x="335.0415" y="476.4639">Attendee Management</text><rect fill="#313139" height="33.9688" rx="12.5" ry="12.5" style="stroke:#E7E7E7;stroke-width:0.5;" width="148.584" x="375.2769" y="559.5703"/><text fill="#FFFFFF" font-family="sans-serif" font-size="12" lengthAdjust="spacing" textLength="128.584" x="385.2769" y="580.709">Monitor Registrations</text><rect fill="#313139" height="33.9688" rx="12.5" ry="12.5" style="stroke:#E7E7E7;stroke-width:0.5;" width="146.7383" x="376.1997" y="676.9414"/><text fill="#FFFFFF" font-family="sans-serif" font-size="12" lengthAdjust="spacing" textLength="126.7383" x="386.1997" y="698.0801">Send Welcome Email</text><rect fill="#313139" height="33.9688" rx="12.5" ry="12.5" style="stroke:#E7E7E7;stroke-width:0.5;" width="147.0547" x="376.0415" y="745.9102"/><text fill="#FFFFFF" font-family="sans-serif" font-size="12" lengthAdjust="spacing" textLength="127.0547" x="386.0415" y="767.0488">Update Attendee List</text><polygon fill="#313139" points="399.4915,628.5391,499.6462,628.5391,511.6462,640.5391,499.6462,652.5391,399.4915,652.5391,387.4915,640.5391,399.4915,628.5391" style="stroke:#E7E7E7;stroke-width:0.5;"/><text fill="#FFFFFF" font-family="sans-serif" font-size="11" lengthAdjust="spacing" textLength="19.0083" x="453.5688" y="662.7495">yes</text><text fill="#FFFFFF" font-family="sans-serif" font-size="11" lengthAdjust="spacing" textLength="100.1548" x="399.4915" y="644.3472">New Registration?</text><polygon fill="#313139" points="449.5688,799.8789,461.5688,811.8789,449.5688,823.8789,437.5688,811.8789,449.5688,799.8789" style="stroke:#E7E7E7;stroke-width:0.5;"/><polygon fill="#313139" points="412.0356,498.7656,487.1021,498.7656,499.1021,510.7656,487.1021,522.7656,412.0356,522.7656,400.0356,510.7656,412.0356,498.7656" style="stroke:#E7E7E7;stroke-width:0.5;"/><text fill="#FFFFFF" font-family="sans-serif" font-size="11" lengthAdjust="spacing" textLength="19.0083" x="453.5688" y="532.9761">yes</text><text fill="#FFFFFF" font-family="sans-serif" font-size="11" lengthAdjust="spacing" textLength="75.0664" x="412.0356" y="514.5737">Event Active?</text><text fill="#FFFFFF" font-family="sans-serif" font-size="11" lengthAdjust="spacing" textLength="13.7017" x="386.334" y="508.1714">no</text><rect fill="#AAAAAA" height="6" rx="2.5" ry="2.5" style="stroke:#AAAAAA;stroke-width:1;" width="489.832" x="100.2642" y="885.9609"/><rect fill="none" height="414.1406" style="stroke:#FFFFFF;stroke-width:1.5;" width="467.2285" x="111.5659" y="913.9609"/><path d="M235.2544,913.9609 L235.2544,923.2578 L225.2544,933.2578 L111.5659,933.2578 " fill="none" style="stroke:#FFFFFF;stroke-width:1.5;"/><text fill="#FFFFFF" font-family="sans-serif" font-size="14" lengthAdjust="spacing" textLength="113.6885" x="114.5659" y="927.9561">Event Execution</text><polygon fill="#313139" points="306.6641,950.2578,383.6963,950.2578,395.6963,962.2578,383.6963,974.2578,306.6641,974.2578,294.6641,962.2578,306.6641,950.2578" style="stroke:#E7E7E7;stroke-width:0.5;"/><text fill="#FFFFFF" font-family="sans-serif" font-size="11" lengthAdjust="spacing" textLength="77.0322" x="306.6641" y="966.0659">Virtual Event?</text><text fill="#FFFFFF" font-family="sans-serif" font-size="11" lengthAdjust="spacing" textLength="19.0083" x="275.6558" y="959.6636">yes</text><text fill="#FFFFFF" font-family="sans-serif" font-size="11" lengthAdjust="spacing" textLength="13.7017" x="395.6963" y="959.6636">no</text><rect fill="#313139" height="33.9688" rx="12.5" ry="12.5" style="stroke:#E7E7E7;stroke-width:0.5;" width="136.7422" x="194.2134" y="984.2578"/><text fill="#FFFFFF" font-family="sans-serif" font-size="12" lengthAdjust="spacing" textLength="116.7422" x="204.2134" y="1005.3965">Setup Virtual Room</text><rect fill="#313139" height="33.9688" rx="12.5" ry="12.5" style="stroke:#E7E7E7;stroke-width:0.5;" width="129.9688" x="197.6001" y="1038.2266"/><text fill="#FFFFFF" font-family="sans-serif" font-size="12" lengthAdjust="spacing" textLength="109.9688" x="207.6001" y="1059.3652">Send Access Links</text><rect fill="#313139" height="33.9688" rx="12.5" ry="12.5" style="stroke:#E7E7E7;stroke-width:0.5;" width="108.8398" x="373.356" y="984.2578"/><text fill="#FFFFFF" font-family="sans-serif" font-size="12" lengthAdjust="spacing" textLength="88.8398" x="383.356" y="1005.3965">Prepare Venue</text><rect fill="#313139" height="33.9688" rx="12.5" ry="12.5" style="stroke:#E7E7E7;stroke-width:0.5;" width="153.6406" x="350.9556" y="1038.2266"/><text fill="#FFFFFF" font-family="sans-serif" font-size="12" lengthAdjust="spacing" textLength="133.6406" x="360.9556" y="1059.3652">Generate Check-in QR</text><polygon fill="#313139" points="345.1802,1078.1953,357.1802,1090.1953,345.1802,1102.1953,333.1802,1090.1953,345.1802,1078.1953" style="stroke:#E7E7E7;stroke-width:0.5;"/><rect fill="#313139" height="33.9688" rx="12.5" ry="12.5" style="stroke:#E7E7E7;stroke-width:0.5;" width="87.5059" x="301.4272" y="1122.1953"/><text fill="#FFFFFF" font-family="sans-serif" font-size="12" lengthAdjust="spacing" textLength="67.5059" x="311.4272" y="1143.334">Start Event</text><rect fill="#AAAAAA" height="6" rx="2.5" ry="2.5" style="stroke:#AAAAAA;stroke-width:1;" width="447.2285" x="121.5659" y="1176.1641"/><rect fill="#313139" height="33.9688" rx="12.5" ry="12.5" style="stroke:#E7E7E7;stroke-width:0.5;" width="126.1426" x="135.5659" y="1202.1641"/><text fill="#FFFFFF" font-family="sans-serif" font-size="12" lengthAdjust="spacing" textLength="106.1426" x="145.5659" y="1223.3027">Track Attendance</text><rect fill="#313139" height="33.9688" rx="12.5" ry="12.5" style="stroke:#E7E7E7;stroke-width:0.5;" width="123.5176" x="289.7085" y="1202.1641"/><text fill="#FFFFFF" font-family="sans-serif" font-size="12" lengthAdjust="spacing" textLength="103.5176" x="299.7085" y="1223.3027">Manage Sessions</text><rect fill="#313139" height="33.9688" rx="12.5" ry="12.5" style="stroke:#E7E7E7;stroke-width:0.5;" width="113.5684" x="441.2261" y="1202.1641"/><text fill="#FFFFFF" font-family="sans-serif" font-size="12" lengthAdjust="spacing" textLength="93.5684" x="451.2261" y="1223.3027">Handle Support</text><rect fill="#AAAAAA" height="6" rx="2.5" ry="2.5" style="stroke:#AAAAAA;stroke-width:1;" width="447.2285" x="121.5659" y="1256.1328"/><rect fill="#313139" height="33.9688" rx="12.5" ry="12.5" style="stroke:#E7E7E7;stroke-width:0.5;" width="80.9961" x="304.6821" y="1282.1328"/><text fill="#FFFFFF" font-family="sans-serif" font-size="12" lengthAdjust="spacing" textLength="60.9961" x="314.6821" y="1303.2715">End Event</text><rect fill="none" height="134.2656" style="stroke:#FFFFFF;stroke-width:1.5;" width="519.0254" x="85.6675" y="1338.1016"/><path d="M170.0151,1338.1016 L170.0151,1347.3984 L160.0151,1357.3984 L85.6675,1357.3984 " fill="none" style="stroke:#FFFFFF;stroke-width:1.5;"/><text fill="#FFFFFF" font-family="sans-serif" font-size="14" lengthAdjust="spacing" textLength="74.3477" x="88.6675" y="1352.0967">Post Event</text><rect fill="#AAAAAA" height="6" rx="2.5" ry="2.5" style="stroke:#AAAAAA;stroke-width:1;" width="499.0254" x="95.6675" y="1374.3984"/><rect fill="#313139" height="33.9688" rx="12.5" ry="12.5" style="stroke:#E7E7E7;stroke-width:0.5;" width="152.7734" x="109.6675" y="1400.3984"/><text fill="#FFFFFF" font-family="sans-serif" font-size="12" lengthAdjust="spacing" textLength="132.7734" x="119.6675" y="1421.5371">Send Feedback Forms</text><rect fill="#313139" height="33.9688" rx="12.5" ry="12.5" style="stroke:#E7E7E7;stroke-width:0.5;" width="126.4297" x="290.4409" y="1400.3984"/><text fill="#FFFFFF" font-family="sans-serif" font-size="12" lengthAdjust="spacing" textLength="106.4297" x="300.4409" y="1421.5371">Generate Reports</text><rect fill="#313139" height="33.9688" rx="12.5" ry="12.5" style="stroke:#E7E7E7;stroke-width:0.5;" width="135.8223" x="444.8706" y="1400.3984"/><text fill="#FFFFFF" font-family="sans-serif" font-size="12" lengthAdjust="spacing" textLength="115.8223" x="454.8706" y="1421.5371">Archive Event Data</text><rect fill="#AAAAAA" height="6" rx="2.5" ry="2.5" style="stroke:#AAAAAA;stroke-width:1;" width="499.0254" x="95.6675" y="1454.3672"/><ellipse cx="345.1802" cy="1503.3672" fill="none" rx="11" ry="11" style="stroke:#DDDDDD;stroke-width:1;"/><ellipse cx="345.1802" cy="1503.3672" fill="#DDDDDD" rx="6" ry="6" style="stroke:#DDDDDD;stroke-width:1;"/><line style="stroke:#E7E7E7;stroke-width:1;" x1="345.1802" x2="345.1802" y1="110.2656" y2="130.2656"/><polygon fill="#E7E7E7" points="341.1802,120.2656,345.1802,130.2656,349.1802,120.2656,345.1802,124.2656" style="stroke:#E7E7E7;stroke-width:1;"/><line style="stroke:#E7E7E7;stroke-width:1;" x1="105.9287" x2="105.9287" y1="278.2031" y2="298.2031"/><polygon fill="#E7E7E7" points="101.9287,288.2031,105.9287,298.2031,109.9287,288.2031,105.9287,292.2031" style="stroke:#E7E7E7;stroke-width:1;"/><line style="stroke:#E7E7E7;stroke-width:1;" x1="289.3535" x2="289.3535" y1="278.2031" y2="298.2031"/><polygon fill="#E7E7E7" points="285.3535,288.2031,289.3535,298.2031,293.3535,288.2031,289.3535,292.2031" style="stroke:#E7E7E7;stroke-width:1;"/><line style="stroke:#E7E7E7;stroke-width:1;" x1="105.9287" x2="105.9287" y1="332.1719" y2="352.1719"/><polygon fill="#E7E7E7" points="101.9287,342.1719,105.9287,352.1719,109.9287,342.1719,105.9287,346.1719" style="stroke:#E7E7E7;stroke-width:1;"/><line style="stroke:#E7E7E7;stroke-width:1;" x1="289.3535" x2="289.3535" y1="332.1719" y2="352.1719"/><polygon fill="#E7E7E7" points="285.3535,342.1719,289.3535,352.1719,293.3535,342.1719,289.3535,346.1719" style="stroke:#E7E7E7;stroke-width:1;"/><line style="stroke:#E7E7E7;stroke-width:1;" x1="204.4248" x2="204.4248" y1="252.2031" y2="272.2031"/><polygon fill="#E7E7E7" points="200.4248,262.2031,204.4248,272.2031,208.4248,262.2031,204.4248,266.2031" style="stroke:#E7E7E7;stroke-width:1;"/><line style="stroke:#E7E7E7;stroke-width:1;" x1="485.9355" x2="485.9355" y1="252.2031" y2="272.2031"/><polygon fill="#E7E7E7" points="481.9355,262.2031,485.9355,272.2031,489.9355,262.2031,485.9355,266.2031" style="stroke:#E7E7E7;stroke-width:1;"/><line style="stroke:#E7E7E7;stroke-width:1;" x1="300.6851" x2="204.4248" y1="196.2344" y2="196.2344"/><line style="stroke:#E7E7E7;stroke-width:1;" x1="204.4248" x2="204.4248" y1="196.2344" y2="218.2344"/><polygon fill="#E7E7E7" points="200.4248,208.2344,204.4248,218.2344,208.4248,208.2344,204.4248,212.2344" style="stroke:#E7E7E7;stroke-width:1;"/><line style="stroke:#E7E7E7;stroke-width:1;" x1="389.6753" x2="485.9355" y1="196.2344" y2="196.2344"/><line style="stroke:#E7E7E7;stroke-width:1;" x1="485.9355" x2="485.9355" y1="196.2344" y2="218.2344"/><polygon fill="#E7E7E7" points="481.9355,208.2344,485.9355,218.2344,489.9355,208.2344,485.9355,212.2344" style="stroke:#E7E7E7;stroke-width:1;"/><line style="stroke:#E7E7E7;stroke-width:1;" x1="204.4248" x2="204.4248" y1="358.1719" y2="376.1719"/><line style="stroke:#E7E7E7;stroke-width:1;" x1="204.4248" x2="333.1802" y1="376.1719" y2="376.1719"/><polygon fill="#E7E7E7" points="323.1802,372.1719,333.1802,376.1719,323.1802,380.1719,327.1802,376.1719" style="stroke:#E7E7E7;stroke-width:1;"/><line style="stroke:#E7E7E7;stroke-width:1;" x1="485.9355" x2="485.9355" y1="306.1719" y2="376.1719"/><line style="stroke:#E7E7E7;stroke-width:1;" x1="485.9355" x2="357.1802" y1="376.1719" y2="376.1719"/><polygon fill="#E7E7E7" points="367.1802,372.1719,357.1802,376.1719,367.1802,380.1719,363.1802,376.1719" style="stroke:#E7E7E7;stroke-width:1;"/><line style="stroke:#E7E7E7;stroke-width:1;" x1="345.1802" x2="345.1802" y1="164.2344" y2="184.2344"/><polygon fill="#E7E7E7" points="341.1802,174.2344,345.1802,184.2344,349.1802,174.2344,345.1802,178.2344" style="stroke:#E7E7E7;stroke-width:1;"/><line style="stroke:#E7E7E7;stroke-width:1;" x1="345.1802" x2="345.1802" y1="30" y2="76.2969"/><polygon fill="#E7E7E7" points="341.1802,66.2969,345.1802,76.2969,349.1802,66.2969,345.1802,70.2969" style="stroke:#E7E7E7;stroke-width:1;"/><line style="stroke:#E7E7E7;stroke-width:1;" x1="210.6528" x2="210.6528" y1="676.4258" y2="711.4258"/><polygon fill="#E7E7E7" points="206.6528,701.4258,210.6528,711.4258,214.6528,701.4258,210.6528,705.4258" style="stroke:#E7E7E7;stroke-width:1;"/><line style="stroke:#E7E7E7;stroke-width:1;" x1="210.6528" x2="210.6528" y1="605.6523" y2="642.457"/><polygon fill="#E7E7E7" points="206.6528,632.457,210.6528,642.457,214.6528,632.457,210.6528,636.457" style="stroke:#E7E7E7;stroke-width:1;"/><line style="stroke:#E7E7E7;stroke-width:1;" x1="210.6528" x2="210.6528" y1="745.3945" y2="757.3945"/><line style="stroke:#E7E7E7;stroke-width:1;" x1="210.6528" x2="285.0415" y1="757.3945" y2="757.3945"/><polygon fill="#E7E7E7" points="281.0415,685.5234,285.0415,675.5234,289.0415,685.5234,285.0415,681.5234" style="stroke:#E7E7E7;stroke-width:1;"/><line style="stroke:#E7E7E7;stroke-width:1;" x1="285.0415" x2="285.0415" y1="593.6523" y2="757.3945"/><line style="stroke:#E7E7E7;stroke-width:1;" x1="285.0415" x2="272.04" y1="593.6523" y2="593.6523"/><polygon fill="#E7E7E7" points="282.04,589.6523,272.04,593.6523,282.04,597.6523,278.04,593.6523" style="stroke:#E7E7E7;stroke-width:1;"/><line style="stroke:#E7E7E7;stroke-width:1;" x1="149.2656" x2="136.2642" y1="593.6523" y2="593.6523"/><polygon fill="#E7E7E7" points="132.2642,671.5234,136.2642,681.5234,140.2642,671.5234,136.2642,675.5234" style="stroke:#E7E7E7;stroke-width:1;"/><line style="stroke:#E7E7E7;stroke-width:1;" x1="136.2642" x2="136.2642" y1="593.6523" y2="769.3945"/><line style="stroke:#E7E7E7;stroke-width:1;" x1="136.2642" x2="210.6528" y1="769.3945" y2="769.3945"/><line style="stroke:#E7E7E7;stroke-width:1;" x1="210.6528" x2="210.6528" y1="769.3945" y2="799.9922"/><polygon fill="#E7E7E7" points="206.6528,789.9922,210.6528,799.9922,214.6528,789.9922,210.6528,793.9922" style="stroke:#E7E7E7;stroke-width:1;"/><line style="stroke:#E7E7E7;stroke-width:1;" x1="210.6528" x2="210.6528" y1="546.6523" y2="581.6523"/><polygon fill="#E7E7E7" points="206.6528,571.6523,210.6528,581.6523,214.6528,571.6523,210.6528,575.6523" style="stroke:#E7E7E7;stroke-width:1;"/><line style="stroke:#E7E7E7;stroke-width:1;" x1="449.5688" x2="449.5688" y1="710.9102" y2="745.9102"/><polygon fill="#E7E7E7" points="445.5688,735.9102,449.5688,745.9102,453.5688,735.9102,449.5688,739.9102" style="stroke:#E7E7E7;stroke-width:1;"/><line style="stroke:#E7E7E7;stroke-width:1;" x1="449.5688" x2="449.5688" y1="652.5391" y2="676.9414"/><polygon fill="#E7E7E7" points="445.5688,666.9414,449.5688,676.9414,453.5688,666.9414,449.5688,670.9414" style="stroke:#E7E7E7;stroke-width:1;"/><line style="stroke:#E7E7E7;stroke-width:1;" x1="511.6462" x2="533.0962" y1="640.5391" y2="640.5391"/><polygon fill="#E7E7E7" points="529.0962,718.4102,533.0962,728.4102,537.0962,718.4102,533.0962,722.4102" style="stroke:#E7E7E7;stroke-width:1;"/><line style="stroke:#E7E7E7;stroke-width:1;" x1="533.0962" x2="533.0962" y1="640.5391" y2="811.8789"/><line style="stroke:#E7E7E7;stroke-width:1;" x1="533.0962" x2="461.5688" y1="811.8789" y2="811.8789"/><polygon fill="#E7E7E7" points="471.5688,807.8789,461.5688,811.8789,471.5688,815.8789,467.5688,811.8789" style="stroke:#E7E7E7;stroke-width:1;"/><line style="stroke:#E7E7E7;stroke-width:1;" x1="449.5688" x2="449.5688" y1="779.8789" y2="799.8789"/><polygon fill="#E7E7E7" points="445.5688,789.8789,449.5688,799.8789,453.5688,789.8789,449.5688,793.8789" style="stroke:#E7E7E7;stroke-width:1;"/><line style="stroke:#E7E7E7;stroke-width:1;" x1="449.5688" x2="449.5688" y1="593.5391" y2="628.5391"/><polygon fill="#E7E7E7" points="445.5688,618.5391,449.5688,628.5391,453.5688,618.5391,449.5688,622.5391" style="stroke:#E7E7E7;stroke-width:1;"/><line style="stroke:#E7E7E7;stroke-width:1;" x1="449.5688" x2="449.5688" y1="522.7656" y2="559.5703"/><polygon fill="#E7E7E7" points="445.5688,549.5703,449.5688,559.5703,453.5688,549.5703,449.5688,553.5703" style="stroke:#E7E7E7;stroke-width:1;"/><line style="stroke:#E7E7E7;stroke-width:1;" x1="449.5688" x2="449.5688" y1="823.8789" y2="835.8789"/><line style="stroke:#E7E7E7;stroke-width:1;" x1="449.5688" x2="557.0962" y1="835.8789" y2="835.8789"/><polygon fill="#E7E7E7" points="553.0962,685.5234,557.0962,675.5234,561.0962,685.5234,557.0962,681.5234" style="stroke:#E7E7E7;stroke-width:1;"/><line style="stroke:#E7E7E7;stroke-width:1;" x1="557.0962" x2="557.0962" y1="510.7656" y2="835.8789"/><line style="stroke:#E7E7E7;stroke-width:1;" x1="557.0962" x2="499.1021" y1="510.7656" y2="510.7656"/><polygon fill="#E7E7E7" points="509.1021,506.7656,499.1021,510.7656,509.1021,514.7656,505.1021,510.7656" style="stroke:#E7E7E7;stroke-width:1;"/><line style="stroke:#E7E7E7;stroke-width:1;" x1="400.0356" x2="354.0415" y1="510.7656" y2="510.7656"/><polygon fill="#E7E7E7" points="350.0415,671.5234,354.0415,681.5234,358.0415,671.5234,354.0415,675.5234" style="stroke:#E7E7E7;stroke-width:1;"/><line style="stroke:#E7E7E7;stroke-width:1;" x1="354.0415" x2="354.0415" y1="510.7656" y2="847.8789"/><line style="stroke:#E7E7E7;stroke-width:1;" x1="354.0415" x2="449.5688" y1="847.8789" y2="847.8789"/><line style="stroke:#E7E7E7;stroke-width:1;" x1="449.5688" x2="449.5688" y1="847.8789" y2="885.9609"/><polygon fill="#E7E7E7" points="445.5688,875.9609,449.5688,885.9609,453.5688,875.9609,449.5688,879.9609" style="stroke:#E7E7E7;stroke-width:1;"/><line style="stroke:#E7E7E7;stroke-width:1;" x1="210.6528" x2="210.6528" y1="452.4688" y2="512.6836"/><polygon fill="#E7E7E7" points="206.6528,502.6836,210.6528,512.6836,214.6528,502.6836,210.6528,506.6836" style="stroke:#E7E7E7;stroke-width:1;"/><line style="stroke:#E7E7E7;stroke-width:1;" x1="449.5688" x2="449.5688" y1="452.4688" y2="498.7656"/><polygon fill="#E7E7E7" points="445.5688,488.7656,449.5688,498.7656,453.5688,488.7656,449.5688,492.7656" style="stroke:#E7E7E7;stroke-width:1;"/><line style="stroke:#E7E7E7;stroke-width:1;" x1="210.6528" x2="210.6528" y1="833.9609" y2="885.9609"/><polygon fill="#E7E7E7" points="206.6528,875.9609,210.6528,885.9609,214.6528,875.9609,210.6528,879.9609" style="stroke:#E7E7E7;stroke-width:1;"/><line style="stroke:#E7E7E7;stroke-width:1;" x1="345.1802" x2="345.1802" y1="388.1719" y2="446.4688"/><polygon fill="#E7E7E7" points="341.1802,436.4688,345.1802,446.4688,349.1802,436.4688,345.1802,440.4688" style="stroke:#E7E7E7;stroke-width:1;"/><line style="stroke:#E7E7E7;stroke-width:1;" x1="262.5845" x2="262.5845" y1="1018.2266" y2="1038.2266"/><polygon fill="#E7E7E7" points="258.5845,1028.2266,262.5845,1038.2266,266.5845,1028.2266,262.5845,1032.2266" style="stroke:#E7E7E7;stroke-width:1;"/><line style="stroke:#E7E7E7;stroke-width:1;" x1="427.7759" x2="427.7759" y1="1018.2266" y2="1038.2266"/><polygon fill="#E7E7E7" points="423.7759,1028.2266,427.7759,1038.2266,431.7759,1028.2266,427.7759,1032.2266" style="stroke:#E7E7E7;stroke-width:1;"/><line style="stroke:#E7E7E7;stroke-width:1;" x1="294.6641" x2="262.5845" y1="962.2578" y2="962.2578"/><line style="stroke:#E7E7E7;stroke-width:1;" x1="262.5845" x2="262.5845" y1="962.2578" y2="984.2578"/><polygon fill="#E7E7E7" points="258.5845,974.2578,262.5845,984.2578,266.5845,974.2578,262.5845,978.2578" style="stroke:#E7E7E7;stroke-width:1;"/><line style="stroke:#E7E7E7;stroke-width:1;" x1="395.6963" x2="427.7759" y1="962.2578" y2="962.2578"/><line style="stroke:#E7E7E7;stroke-width:1;" x1="427.7759" x2="427.7759" y1="962.2578" y2="984.2578"/><polygon fill="#E7E7E7" points="423.7759,974.2578,427.7759,984.2578,431.7759,974.2578,427.7759,978.2578" style="stroke:#E7E7E7;stroke-width:1;"/><line style="stroke:#E7E7E7;stroke-width:1;" x1="262.5845" x2="262.5845" y1="1072.1953" y2="1090.1953"/><line style="stroke:#E7E7E7;stroke-width:1;" x1="262.5845" x2="333.1802" y1="1090.1953" y2="1090.1953"/><polygon fill="#E7E7E7" points="323.1802,1086.1953,333.1802,1090.1953,323.1802,1094.1953,327.1802,1090.1953" style="stroke:#E7E7E7;stroke-width:1;"/><line style="stroke:#E7E7E7;stroke-width:1;" x1="427.7759" x2="427.7759" y1="1072.1953" y2="1090.1953"/><line style="stroke:#E7E7E7;stroke-width:1;" x1="427.7759" x2="357.1802" y1="1090.1953" y2="1090.1953"/><polygon fill="#E7E7E7" points="367.1802,1086.1953,357.1802,1090.1953,367.1802,1094.1953,363.1802,1090.1953" style="stroke:#E7E7E7;stroke-width:1;"/><line style="stroke:#E7E7E7;stroke-width:1;" x1="345.1802" x2="345.1802" y1="1102.1953" y2="1122.1953"/><polygon fill="#E7E7E7" points="341.1802,1112.1953,345.1802,1122.1953,349.1802,1112.1953,345.1802,1116.1953" style="stroke:#E7E7E7;stroke-width:1;"/><line style="stroke:#E7E7E7;stroke-width:1;" x1="198.6372" x2="198.6372" y1="1182.1641" y2="1202.1641"/><polygon fill="#E7E7E7" points="194.6372,1192.1641,198.6372,1202.1641,202.6372,1192.1641,198.6372,1196.1641" style="stroke:#E7E7E7;stroke-width:1;"/><line style="stroke:#E7E7E7;stroke-width:1;" x1="351.4673" x2="351.4673" y1="1182.1641" y2="1202.1641"/><polygon fill="#E7E7E7" points="347.4673,1192.1641,351.4673,1202.1641,355.4673,1192.1641,351.4673,1196.1641" style="stroke:#E7E7E7;stroke-width:1;"/><line style="stroke:#E7E7E7;stroke-width:1;" x1="498.0103" x2="498.0103" y1="1182.1641" y2="1202.1641"/><polygon fill="#E7E7E7" points="494.0103,1192.1641,498.0103,1202.1641,502.0103,1192.1641,498.0103,1196.1641" style="stroke:#E7E7E7;stroke-width:1;"/><line style="stroke:#E7E7E7;stroke-width:1;" x1="198.6372" x2="198.6372" y1="1236.1328" y2="1256.1328"/><polygon fill="#E7E7E7" points="194.6372,1246.1328,198.6372,1256.1328,202.6372,1246.1328,198.6372,1250.1328" style="stroke:#E7E7E7;stroke-width:1;"/><line style="stroke:#E7E7E7;stroke-width:1;" x1="351.4673" x2="351.4673" y1="1236.1328" y2="1256.1328"/><polygon fill="#E7E7E7" points="347.4673,1246.1328,351.4673,1256.1328,355.4673,1246.1328,351.4673,1250.1328" style="stroke:#E7E7E7;stroke-width:1;"/><line style="stroke:#E7E7E7;stroke-width:1;" x1="498.0103" x2="498.0103" y1="1236.1328" y2="1256.1328"/><polygon fill="#E7E7E7" points="494.0103,1246.1328,498.0103,1256.1328,502.0103,1246.1328,498.0103,1250.1328" style="stroke:#E7E7E7;stroke-width:1;"/><line style="stroke:#E7E7E7;stroke-width:1;" x1="345.1802" x2="345.1802" y1="1156.1641" y2="1176.1641"/><polygon fill="#E7E7E7" points="341.1802,1166.1641,345.1802,1176.1641,349.1802,1166.1641,345.1802,1170.1641" style="stroke:#E7E7E7;stroke-width:1;"/><line style="stroke:#E7E7E7;stroke-width:1;" x1="345.1802" x2="345.1802" y1="1262.1328" y2="1282.1328"/><polygon fill="#E7E7E7" points="341.1802,1272.1328,345.1802,1282.1328,349.1802,1272.1328,345.1802,1276.1328" style="stroke:#E7E7E7;stroke-width:1;"/><line style="stroke:#E7E7E7;stroke-width:1;" x1="345.1802" x2="345.1802" y1="891.9609" y2="950.2578"/><polygon fill="#E7E7E7" points="341.1802,940.2578,345.1802,950.2578,349.1802,940.2578,345.1802,944.2578" style="stroke:#E7E7E7;stroke-width:1;"/><line style="stroke:#E7E7E7;stroke-width:1;" x1="186.0542" x2="186.0542" y1="1380.3984" y2="1400.3984"/><polygon fill="#E7E7E7" points="182.0542,1390.3984,186.0542,1400.3984,190.0542,1390.3984,186.0542,1394.3984" style="stroke:#E7E7E7;stroke-width:1;"/><line style="stroke:#E7E7E7;stroke-width:1;" x1="353.6558" x2="353.6558" y1="1380.3984" y2="1400.3984"/><polygon fill="#E7E7E7" points="349.6558,1390.3984,353.6558,1400.3984,357.6558,1390.3984,353.6558,1394.3984" style="stroke:#E7E7E7;stroke-width:1;"/><line style="stroke:#E7E7E7;stroke-width:1;" x1="512.7817" x2="512.7817" y1="1380.3984" y2="1400.3984"/><polygon fill="#E7E7E7" points="508.7817,1390.3984,512.7817,1400.3984,516.7817,1390.3984,512.7817,1394.3984" style="stroke:#E7E7E7;stroke-width:1;"/><line style="stroke:#E7E7E7;stroke-width:1;" x1="186.0542" x2="186.0542" y1="1434.3672" y2="1454.3672"/><polygon fill="#E7E7E7" points="182.0542,1444.3672,186.0542,1454.3672,190.0542,1444.3672,186.0542,1448.3672" style="stroke:#E7E7E7;stroke-width:1;"/><line style="stroke:#E7E7E7;stroke-width:1;" x1="353.6558" x2="353.6558" y1="1434.3672" y2="1454.3672"/><polygon fill="#E7E7E7" points="349.6558,1444.3672,353.6558,1454.3672,357.6558,1444.3672,353.6558,1448.3672" style="stroke:#E7E7E7;stroke-width:1;"/><line style="stroke:#E7E7E7;stroke-width:1;" x1="512.7817" x2="512.7817" y1="1434.3672" y2="1454.3672"/><polygon fill="#E7E7E7" points="508.7817,1444.3672,512.7817,1454.3672,516.7817,1444.3672,512.7817,1448.3672" style="stroke:#E7E7E7;stroke-width:1;"/><line style="stroke:#E7E7E7;stroke-width:1;" x1="345.1802" x2="345.1802" y1="1316.1016" y2="1374.3984"/><polygon fill="#E7E7E7" points="341.1802,1364.3984,345.1802,1374.3984,349.1802,1364.3984,345.1802,1368.3984" style="stroke:#E7E7E7;stroke-width:1;"/><line style="stroke:#E7E7E7;stroke-width:1;" x1="345.1802" x2="345.1802" y1="1460.3672" y2="1492.3672"/><polygon fill="#E7E7E7" points="341.1802,1482.3672,345.1802,1492.3672,349.1802,1482.3672,345.1802,1486.3672" style="stroke:#E7E7E7;stroke-width:1;"/><!--SRC=[TLJ1Sfim4Btp5JivEOV-W3bq6CTkEkCq3YJkUGDhq00I8maxQIV_tXK2WsrwOK2xsdtlxJwCHMs3eE6di499k5iVILfOQKBtVGT_0u3bLkL20XfurZbAyOTqw8utegh0NtWWYw8oxbWSOB5HkeOzLYBxVW-s80cBJpBt7ELh2Hx9NmkxWuFIPVV2iHyaIQFju_0MRySSm1o5738JaXcib3m8NNTOOLqp19_kOdrPgWp1GggXUQ5E7bb_IMkbZR-rZCcsMe9Lu0YuGoua3i7NZ4HFA36dcb-zI6SMaynNaPPa8S6AZC_gsZmtBCWq5lQHKo4g1kj31g8Z4yBtYbX4OIOITbLsMgLa3EnQdHPeA1n3RqtcDFmf7LAbFuSGi-bR37fmygfIhD0j72Oze_o4NMGj5oIwaM92nMiLfLOSvrayAIaO8iIK2sDrDnGpKd7Bz8jE5-7RbPgkn6-gKbNJT1ikLJd3tdB5CS5F-dywVGMJfPfRX_K7fUre6OTxBxHjiNV8d0zusneOicAbwZ0OUKHfDzsja6MdnzKUxpGn1e8zoROV_MYULK5f-Oqj-nAFI-mScpY_3zwRBktoLMDQzjgWJBkILwDV-Zb3mhY6ALsdFABCMBUaRHgbRJXLpVLVyqVV_LB4dJ8zhYitUJ4sHDcx0-XyETlup3qcrtas9sAZYE7V0mzeCRmQgx6g-GS0]--></g></svg>