<svg xmlns="http://www.w3.org/2000/svg" xmlns:xlink="http://www.w3.org/1999/xlink" contentStyleType="text/css" height="655px" preserveAspectRatio="none" style="width:1239px;height:655px;background:#1B1B1B;" version="1.1" viewBox="0 0 1239 655" width="1239px" zoomAndPan="magnify"><defs/><g><rect fill="#1B1B1B" height="655" style="stroke:none;stroke-width:1;" width="1239" x="0" y="0"/><!--cluster Client Layer--><g id="cluster_Client Layer"><rect fill="none" height="241.59" rx="2.5" ry="2.5" style="stroke:#E7E7E7;stroke-width:1;" width="508" x="7" y="7"/><text fill="#FFFFFF" font-family="sans-serif" font-size="14" font-weight="bold" lengthAdjust="spacing" textLength="94.7939" x="213.603" y="21.9951">Client Layer</text></g><!--cluster Application Layer--><g id="cluster_Application Layer"><rect fill="none" height="351.89" rx="2.5" ry="2.5" style="stroke:#E7E7E7;stroke-width:1;" width="417" x="739" y="151.29"/><text fill="#FFFFFF" font-family="sans-serif" font-size="14" font-weight="bold" lengthAdjust="spacing" textLength="138.0654" x="878.4673" y="166.2851">Application Layer</text></g><!--cluster Data Layer--><g id="cluster_Data Layer"><rect fill="none" height="96.3" rx="2.5" ry="2.5" style="stroke:#E7E7E7;stroke-width:1;" width="405" x="310" y="297.59"/><text fill="#FFFFFF" font-family="sans-serif" font-size="14" font-weight="bold" lengthAdjust="spacing" textLength="85.9756" x="469.5122" y="312.5851">Data Layer</text></g><!--cluster External Services--><g id="cluster_External Services"><rect fill="none" height="97.3" rx="2.5" ry="2.5" style="stroke:#E7E7E7;stroke-width:1;" width="368" x="865" y="552.18"/><text fill="#FFFFFF" font-family="sans-serif" font-size="14" font-weight="bold" lengthAdjust="spacing" textLength="137.3066" x="980.3467" y="567.1751">External Services</text></g><!--entity client--><g id="elem_client"><rect fill="#313139" height="46.2969" rx="2.5" ry="2.5" style="stroke:#E7E7E7;stroke-width:0.5;" width="111.4629" x="271.27" y="42"/><rect fill="#313139" height="10" style="stroke:#E7E7E7;stroke-width:0.5;" width="15" x="362.7329" y="47"/><rect fill="#313139" height="2" style="stroke:#E7E7E7;stroke-width:0.5;" width="4" x="360.7329" y="49"/><rect fill="#313139" height="2" style="stroke:#E7E7E7;stroke-width:0.5;" width="4" x="360.7329" y="53"/><text fill="#FFFFFF" font-family="sans-serif" font-size="14" lengthAdjust="spacing" textLength="71.4629" x="286.27" y="74.9951">React SPA</text></g><!--entity mui--><g id="elem_mui"><rect fill="#313139" height="46.2969" rx="2.5" ry="2.5" style="stroke:#E7E7E7;stroke-width:0.5;" width="115.7012" x="23.15" y="186.29"/><rect fill="#313139" height="10" style="stroke:#E7E7E7;stroke-width:0.5;" width="15" x="118.8512" y="191.29"/><rect fill="#313139" height="2" style="stroke:#E7E7E7;stroke-width:0.5;" width="4" x="116.8512" y="193.29"/><rect fill="#313139" height="2" style="stroke:#E7E7E7;stroke-width:0.5;" width="4" x="116.8512" y="197.29"/><text fill="#FFFFFF" font-family="sans-serif" font-size="14" lengthAdjust="spacing" textLength="75.7012" x="38.15" y="219.2851">Material UI</text></g><!--entity rquery--><g id="elem_rquery"><rect fill="#313139" height="46.2969" rx="2.5" ry="2.5" style="stroke:#E7E7E7;stroke-width:0.5;" width="127.1035" x="173.45" y="186.29"/><rect fill="#313139" height="10" style="stroke:#E7E7E7;stroke-width:0.5;" width="15" x="280.5535" y="191.29"/><rect fill="#313139" height="2" style="stroke:#E7E7E7;stroke-width:0.5;" width="4" x="278.5535" y="193.29"/><rect fill="#313139" height="2" style="stroke:#E7E7E7;stroke-width:0.5;" width="4" x="278.5535" y="197.29"/><text fill="#FFFFFF" font-family="sans-serif" font-size="14" lengthAdjust="spacing" textLength="87.1035" x="188.45" y="219.2851">React Query</text></g><!--entity wsclient--><g id="elem_wsclient"><rect fill="#313139" height="46.2969" rx="2.5" ry="2.5" style="stroke:#E7E7E7;stroke-width:0.5;" width="163.6826" x="335.16" y="186.29"/><rect fill="#313139" height="10" style="stroke:#E7E7E7;stroke-width:0.5;" width="15" x="478.8426" y="191.29"/><rect fill="#313139" height="2" style="stroke:#E7E7E7;stroke-width:0.5;" width="4" x="476.8426" y="193.29"/><rect fill="#313139" height="2" style="stroke:#E7E7E7;stroke-width:0.5;" width="4" x="476.8426" y="197.29"/><text fill="#FFFFFF" font-family="sans-serif" font-size="14" lengthAdjust="spacing" textLength="123.6826" x="350.16" y="219.2851">WebSocket Client</text></g><!--entity api--><g id="elem_api"><rect fill="#313139" height="46.2969" rx="2.5" ry="2.5" style="stroke:#E7E7E7;stroke-width:0.5;" width="121.5732" x="755.21" y="186.29"/><rect fill="#313139" height="10" style="stroke:#E7E7E7;stroke-width:0.5;" width="15" x="856.7832" y="191.29"/><rect fill="#313139" height="2" style="stroke:#E7E7E7;stroke-width:0.5;" width="4" x="854.7832" y="193.29"/><rect fill="#313139" height="2" style="stroke:#E7E7E7;stroke-width:0.5;" width="4" x="854.7832" y="197.29"/><text fill="#FFFFFF" font-family="sans-serif" font-size="14" lengthAdjust="spacing" textLength="81.5732" x="770.21" y="219.2851">Express API</text></g><!--entity auth--><g id="elem_auth"><rect fill="#313139" height="46.2969" rx="2.5" ry="2.5" style="stroke:#E7E7E7;stroke-width:0.5;" width="157.9063" x="755.05" y="332.09"/><rect fill="#313139" height="10" style="stroke:#E7E7E7;stroke-width:0.5;" width="15" x="892.9563" y="337.09"/><rect fill="#313139" height="2" style="stroke:#E7E7E7;stroke-width:0.5;" width="4" x="890.9563" y="339.09"/><rect fill="#313139" height="2" style="stroke:#E7E7E7;stroke-width:0.5;" width="4" x="890.9563" y="343.09"/><text fill="#FFFFFF" font-family="sans-serif" font-size="14" lengthAdjust="spacing" textLength="117.9063" x="770.05" y="365.0851">Auth Middleware</text></g><!--entity logic--><g id="elem_logic"><rect fill="#313139" height="46.2969" rx="2.5" ry="2.5" style="stroke:#E7E7E7;stroke-width:0.5;" width="143.0244" x="947.49" y="332.09"/><rect fill="#313139" height="10" style="stroke:#E7E7E7;stroke-width:0.5;" width="15" x="1070.5144" y="337.09"/><rect fill="#313139" height="2" style="stroke:#E7E7E7;stroke-width:0.5;" width="4" x="1068.5144" y="339.09"/><rect fill="#313139" height="2" style="stroke:#E7E7E7;stroke-width:0.5;" width="4" x="1068.5144" y="343.09"/><text fill="#FFFFFF" font-family="sans-serif" font-size="14" lengthAdjust="spacing" textLength="103.0244" x="962.49" y="365.0851">Business Logic</text></g><!--entity wsserver--><g id="elem_wsserver"><rect fill="#313139" height="46.2969" rx="2.5" ry="2.5" style="stroke:#E7E7E7;stroke-width:0.5;" width="169.0625" x="755.47" y="440.89"/><rect fill="#313139" height="10" style="stroke:#E7E7E7;stroke-width:0.5;" width="15" x="904.5325" y="445.89"/><rect fill="#313139" height="2" style="stroke:#E7E7E7;stroke-width:0.5;" width="4" x="902.5325" y="447.89"/><rect fill="#313139" height="2" style="stroke:#E7E7E7;stroke-width:0.5;" width="4" x="902.5325" y="451.89"/><text fill="#FFFFFF" font-family="sans-serif" font-size="14" lengthAdjust="spacing" textLength="129.0625" x="770.47" y="473.8851">WebSocket Server</text></g><!--entity services--><g id="elem_services"><rect fill="#313139" height="46.2969" rx="2.5" ry="2.5" style="stroke:#E7E7E7;stroke-width:0.5;" width="180.6289" x="959.69" y="440.89"/><rect fill="#313139" height="10" style="stroke:#E7E7E7;stroke-width:0.5;" width="15" x="1120.3189" y="445.89"/><rect fill="#313139" height="2" style="stroke:#E7E7E7;stroke-width:0.5;" width="4" x="1118.3189" y="447.89"/><rect fill="#313139" height="2" style="stroke:#E7E7E7;stroke-width:0.5;" width="4" x="1118.3189" y="451.89"/><text fill="#FFFFFF" font-family="sans-serif" font-size="14" lengthAdjust="spacing" textLength="140.6289" x="974.69" y="473.8851">Service Integrations</text></g><!--entity db--><g id="elem_db"><path d="M325.62,342.59 C325.62,332.59 375.9965,332.59 375.9965,332.59 C375.9965,332.59 426.3729,332.59 426.3729,342.59 L426.3729,367.8869 C426.3729,377.8869 375.9965,377.8869 375.9965,377.8869 C375.9965,377.8869 325.62,377.8869 325.62,367.8869 L325.62,342.59 " fill="#313139" style="stroke:#E7E7E7;stroke-width:0.5;"/><path d="M325.62,342.59 C325.62,352.59 375.9965,352.59 375.9965,352.59 C375.9965,352.59 426.3729,352.59 426.3729,342.59 " fill="none" style="stroke:#E7E7E7;stroke-width:0.5;"/><text fill="#FFFFFF" font-family="sans-serif" font-size="14" lengthAdjust="spacing" textLength="80.7529" x="335.62" y="369.5851">PostgreSQL</text></g><!--entity redis--><g id="elem_redis"><path d="M461.8,342.59 C461.8,332.59 514.9997,332.59 514.9997,332.59 C514.9997,332.59 568.1994,332.59 568.1994,342.59 L568.1994,367.8869 C568.1994,377.8869 514.9997,377.8869 514.9997,377.8869 C514.9997,377.8869 461.8,377.8869 461.8,367.8869 L461.8,342.59 " fill="#313139" style="stroke:#E7E7E7;stroke-width:0.5;"/><path d="M461.8,342.59 C461.8,352.59 514.9997,352.59 514.9997,352.59 C514.9997,352.59 568.1994,352.59 568.1994,342.59 " fill="none" style="stroke:#E7E7E7;stroke-width:0.5;"/><text fill="#FFFFFF" font-family="sans-serif" font-size="14" lengthAdjust="spacing" textLength="86.3994" x="471.8" y="369.5851">Redis Cache</text></g><!--entity cloud--><g id="elem_cloud"><path d="M603.31,342.59 C603.31,332.59 650.9965,332.59 650.9965,332.59 C650.9965,332.59 698.683,332.59 698.683,342.59 L698.683,367.8869 C698.683,377.8869 650.9965,377.8869 650.9965,377.8869 C650.9965,377.8869 603.31,377.8869 603.31,367.8869 L603.31,342.59 " fill="#313139" style="stroke:#E7E7E7;stroke-width:0.5;"/><path d="M603.31,342.59 C603.31,352.59 650.9965,352.59 650.9965,352.59 C650.9965,352.59 698.683,352.59 698.683,342.59 " fill="none" style="stroke:#E7E7E7;stroke-width:0.5;"/><text fill="#FFFFFF" font-family="sans-serif" font-size="14" lengthAdjust="spacing" textLength="75.373" x="613.31" y="369.5851">Cloudinary</text></g><!--entity stripe--><g id="elem_stripe"><rect fill="#313139" height="46.2969" rx="2.5" ry="2.5" style="stroke:#E7E7E7;stroke-width:0.5;" width="81.5215" x="881.24" y="587.18"/><rect fill="#313139" height="10" style="stroke:#E7E7E7;stroke-width:0.5;" width="15" x="942.7615" y="592.18"/><rect fill="#313139" height="2" style="stroke:#E7E7E7;stroke-width:0.5;" width="4" x="940.7615" y="594.18"/><rect fill="#313139" height="2" style="stroke:#E7E7E7;stroke-width:0.5;" width="4" x="940.7615" y="598.18"/><text fill="#FFFFFF" font-family="sans-serif" font-size="14" lengthAdjust="spacing" textLength="41.5215" x="896.24" y="620.1751">Stripe</text></g><!--entity mail--><g id="elem_mail"><rect fill="#313139" height="46.2969" rx="2.5" ry="2.5" style="stroke:#E7E7E7;stroke-width:0.5;" width="104.6406" x="997.68" y="587.18"/><rect fill="#313139" height="10" style="stroke:#E7E7E7;stroke-width:0.5;" width="15" x="1082.3206" y="592.18"/><rect fill="#313139" height="2" style="stroke:#E7E7E7;stroke-width:0.5;" width="4" x="1080.3206" y="594.18"/><rect fill="#313139" height="2" style="stroke:#E7E7E7;stroke-width:0.5;" width="4" x="1080.3206" y="598.18"/><text fill="#FFFFFF" font-family="sans-serif" font-size="14" lengthAdjust="spacing" textLength="64.6406" x="1012.68" y="620.1751">SendGrid</text></g><!--entity zoom--><g id="elem_zoom"><rect fill="#313139" height="46.2969" rx="2.5" ry="2.5" style="stroke:#E7E7E7;stroke-width:0.5;" width="80.3594" x="1136.82" y="587.18"/><rect fill="#313139" height="10" style="stroke:#E7E7E7;stroke-width:0.5;" width="15" x="1197.1794" y="592.18"/><rect fill="#313139" height="2" style="stroke:#E7E7E7;stroke-width:0.5;" width="4" x="1195.1794" y="594.18"/><rect fill="#313139" height="2" style="stroke:#E7E7E7;stroke-width:0.5;" width="4" x="1195.1794" y="598.18"/><text fill="#FFFFFF" font-family="sans-serif" font-size="14" lengthAdjust="spacing" textLength="40.3594" x="1151.82" y="620.1751">Zoom</text></g><!--link client to mui--><g id="link_client_mui"><path d="M270.99,86.59 C236.54,100.32 192.21,120.11 156,143.29 C136.83,155.57 121.8412,168.3788 107.6012,181.8988 " fill="none" id="client-to-mui" style="stroke:#E7E7E7;stroke-width:1;"/><polygon fill="#E7E7E7" points="103.25,186.03,112.531,182.734,106.876,182.5873,107.0227,176.9324,103.25,186.03" style="stroke:#E7E7E7;stroke-width:1;"/></g><!--link client to rquery--><g id="link_client_rquery"><path d="M312.74,88.69 C295.89,115.34 271.228,154.3297 254.398,180.9297 " fill="none" id="client-to-rquery" style="stroke:#E7E7E7;stroke-width:1;"/><polygon fill="#E7E7E7" points="251.19,186,259.3823,180.5332,253.8634,181.7747,252.6218,176.2558,251.19,186" style="stroke:#E7E7E7;stroke-width:1;"/></g><!--link client to wsclient--><g id="link_client_wsclient"><path d="M341.26,88.69 C358.11,115.34 382.772,154.3297 399.602,180.9297 " fill="none" id="client-to-wsclient" style="stroke:#E7E7E7;stroke-width:1;"/><polygon fill="#E7E7E7" points="402.81,186,401.3782,176.2558,400.1366,181.7747,394.6177,180.5332,402.81,186" style="stroke:#E7E7E7;stroke-width:1;"/></g><!--link api to auth--><g id="link_api_auth"><path d="M818.81,232.91 C822.19,259.92 827.0833,299.0266 830.4633,325.9766 " fill="none" id="api-to-auth" style="stroke:#E7E7E7;stroke-width:1;"/><polygon fill="#E7E7E7" points="831.21,331.93,834.0589,322.5022,830.5878,326.9689,826.1211,323.4977,831.21,331.93" style="stroke:#E7E7E7;stroke-width:1;"/></g><!--link api to logic--><g id="link_api_logic"><path d="M848.56,232.77 C871.43,248.53 902.69,270.2 930,289.59 C949.46,303.41 966.2958,315.6097 983.3858,328.0997 " fill="none" id="api-to-logic" style="stroke:#E7E7E7;stroke-width:1;"/><polygon fill="#E7E7E7" points="988.23,331.64,983.3239,323.1001,984.1932,328.6897,978.6035,329.559,988.23,331.64" style="stroke:#E7E7E7;stroke-width:1;"/></g><!--link logic to services--><g id="link_logic_services"><path d="M1025.5,378.63 C1030.79,396.85 1036.547,416.6979 1041.837,434.9179 " fill="none" id="logic-to-services" style="stroke:#E7E7E7;stroke-width:1;"/><polygon fill="#E7E7E7" points="1043.51,440.68,1044.8419,430.9216,1042.1159,435.8783,1037.1592,433.1522,1043.51,440.68" style="stroke:#E7E7E7;stroke-width:1;"/></g><!--link logic to wsserver--><g id="link_logic_wsserver"><path d="M981.48,378.63 C951.03,396.79 913.4533,419.2169 882.9333,437.4169 " fill="none" id="logic-to-wsserver" style="stroke:#E7E7E7;stroke-width:1;"/><polygon fill="#E7E7E7" points="877.78,440.49,887.5586,439.3159,882.0744,437.9291,883.4612,432.4449,877.78,440.49" style="stroke:#E7E7E7;stroke-width:1;"/></g><!--link client to api--><g id="link_client_api"><path d="M383.09,82.47 C475.54,109.37 653.399,161.1235 749.069,188.9635 " fill="none" id="client-to-api" style="stroke:#E7E7E7;stroke-width:1;stroke-dasharray:7.0,7.0;"/><polygon fill="#E7E7E7" points="754.83,190.64,747.3061,184.2846,750.0291,189.2429,745.0708,191.966,754.83,190.64" style="stroke:#E7E7E7;stroke-width:1;"/><text fill="#FFFFFF" font-family="sans-serif" font-size="13" lengthAdjust="spacing" textLength="41.7485" x="557" y="131.3569">HTTPS</text></g><!--link wsclient to wsserver--><g id="link_wsclient_wsserver"><path d="M369.92,233.07 C353.57,240.74 335.06,249.23 318,256.59 C281.55,272.32 257.29,256.74 235,289.59 C206.98,330.89 201.53,364.86 235,401.89 C269.23,439.75 590.9534,455.0977 749.2434,460.4377 " fill="none" id="wsclient-to-wsserver" style="stroke:#E7E7E7;stroke-width:1;stroke-dasharray:7.0,7.0;"/><polygon fill="#E7E7E7" points="755.24,460.64,746.38,456.3388,750.2428,460.4714,746.1103,464.3343,755.24,460.64" style="stroke:#E7E7E7;stroke-width:1;"/><text fill="#FFFFFF" font-family="sans-serif" font-size="13" lengthAdjust="spacing" textLength="73.0806" x="236" y="359.8069">WebSocket</text></g><!--link api to db--><g id="link_api_db"><path d="M755.07,218.38 C663.48,231.15 495.53,258.04 444,289.59 C425.24,301.07 411.4201,314.0024 398.7001,327.8424 " fill="none" id="api-to-db" style="stroke:#E7E7E7;stroke-width:1;"/><polygon fill="#E7E7E7" points="394.64,332.26,403.6753,328.3403,398.0234,328.5786,397.7851,322.9268,394.64,332.26" style="stroke:#E7E7E7;stroke-width:1;"/><text fill="#FFFFFF" font-family="sans-serif" font-size="13" lengthAdjust="spacing" textLength="78.8125" x="502" y="277.6569">Prisma ORM</text></g><!--link api to redis--><g id="link_api_redis"><path d="M755.19,223.61 C706.89,235.85 638.91,257.12 586,289.59 C566.96,301.27 552.5906,314.146 539.2206,327.846 " fill="none" id="api-to-redis" style="stroke:#E7E7E7;stroke-width:1;"/><polygon fill="#E7E7E7" points="535.03,332.14,544.1786,328.4927,538.5222,328.5616,538.4532,322.9052,535.03,332.14" style="stroke:#E7E7E7;stroke-width:1;"/><text fill="#FFFFFF" font-family="sans-serif" font-size="13" lengthAdjust="spacing" textLength="40.4282" x="633" y="277.6569">Cache</text></g><!--link api to cloud--><g id="link_api_cloud"><path d="M765.49,233.09 C749.37,241.65 732.07,252.33 718,264.59 C695.44,284.25 678.9358,307.597 666.8458,327.147 " fill="none" id="api-to-cloud" style="stroke:#E7E7E7;stroke-width:1;"/><polygon fill="#E7E7E7" points="663.69,332.25,671.8257,326.6993,666.3198,327.9975,665.0217,322.4916,663.69,332.25" style="stroke:#E7E7E7;stroke-width:1;"/><text fill="#FFFFFF" font-family="sans-serif" font-size="13" lengthAdjust="spacing" textLength="94.0405" x="719" y="277.6569">Media Storage</text></g><!--link services to stripe--><g id="link_services_stripe"><path d="M1013.38,487.48 C1000.64,496.37 986.83,507.3 976,519.18 C957.31,539.67 944.4365,562.2301 934.8965,581.5501 " fill="none" id="services-to-stripe" style="stroke:#E7E7E7;stroke-width:1;"/><polygon fill="#E7E7E7" points="932.24,586.93,939.8113,580.6312,934.4538,582.4468,932.6382,577.0892,932.24,586.93" style="stroke:#E7E7E7;stroke-width:1;"/><text fill="#FFFFFF" font-family="sans-serif" font-size="13" lengthAdjust="spacing" textLength="64.27" x="977" y="532.2469">Payments</text></g><!--link services to mail--><g id="link_services_mail"><path d="M1050,487.58 C1050,514.69 1050,553.91 1050,580.94 " fill="none" id="services-to-mail" style="stroke:#E7E7E7;stroke-width:1;"/><polygon fill="#E7E7E7" points="1050,586.94,1054,577.94,1050,581.94,1046,577.94,1050,586.94" style="stroke:#E7E7E7;stroke-width:1;"/><text fill="#FFFFFF" font-family="sans-serif" font-size="13" lengthAdjust="spacing" textLength="36.0674" x="1051" y="532.2469">Email</text></g><!--link services to zoom--><g id="link_services_zoom"><path d="M1069.95,487.52 C1083.97,503.35 1103.16,525.04 1120,544.18 C1132.41,558.29 1142.3415,569.6323 1153.3015,582.1723 " fill="none" id="services-to-zoom" style="stroke:#E7E7E7;stroke-width:1;"/><polygon fill="#E7E7E7" points="1157.25,586.69,1154.3391,577.2811,1153.9596,582.9253,1148.3155,582.5458,1157.25,586.69" style="stroke:#E7E7E7;stroke-width:1;"/><text fill="#FFFFFF" font-family="sans-serif" font-size="13" lengthAdjust="spacing" textLength="90.9111" x="1113" y="532.2469">Virtual Events</text></g><!--SRC=[TP91RzGm48Nl-HN3NZYr1uuSAeKbAfLs8Tqi855nc4s6rAfZ1zjfko3-E-DnDaqMSOayxpapp_xygg4VoX3iYlK-_tYzAQ3Mw7sM-GTbUdJOGMsxtXeoeGf7JJ1q-asMEQe3cfRhrLehDc63Ht8h-9q1tEq8wm1LcNy7zDmnReZw5WCvXHe-tuZJ3Ufb- -r0xYYo-ncNqVbAXyhM3nGWJH7xoOyT_onov7slLOr1MRC8KpptZho7l4n3iPUX-H3kOQkQHjCJEaeMQz5xDtY-5FvdOrjLYwNZQXcf8lT8RepafOWRegngWXiJg7MInyicdmn_bliz1fm7RhW-e6Udj3wqZghRpIh-tnmMxeuQvM6DzJs9xMAzsB7MTcYKGNTS9GvSdWqldfc8OI9ZQZzUMXMSwjEbU5ccavdcsgaciKEbe_ZDsaw4Nxo8tL_3_4Nmyp66vyLRo18tkBYu4lIpSaG-KoRAtF0VjA3Cc7lUdidAhuBnL2HmyfLwel0YJVHur7z3NrvUnQS3R-73VbzMsIcV6ASEx4xlOqhG75WkdV8TmgVTTj8565k2S5A54gjRTX6gO1ss59DDgCOJB4AUJfMEACJYK3ns7F7CZkJOB8JWmea8sVcYN1XuKF4OV_uB]--></g></svg>