<svg xmlns="http://www.w3.org/2000/svg" xmlns:xlink="http://www.w3.org/1999/xlink" contentStyleType="text/css" height="730px" preserveAspectRatio="none" style="width:1118px;height:730px;background:#1B1B1B;" version="1.1" viewBox="0 0 1118 730" width="1118px" zoomAndPan="magnify"><defs/><g><rect fill="#1B1B1B" height="730" style="stroke:none;stroke-width:1;" width="1118" x="0" y="0"/><!--cluster Frontend--><g id="cluster_Frontend"><path d="M432.5,6 L505.7285,6 A3.75,3.75 0 0 1 508.2285,8.5 L515.2285,28.2969 L973.5,28.2969 A2.5,2.5 0 0 1 976,30.7969 L976,208.09 A2.5,2.5 0 0 1 973.5,210.59 L432.5,210.59 A2.5,2.5 0 0 1 430,208.09 L430,8.5 A2.5,2.5 0 0 1 432.5,6 " fill="none" style="stroke:#FFFFFF;stroke-width:1.5;"/><line style="stroke:#FFFFFF;stroke-width:1.5;" x1="430" x2="515.2285" y1="28.2969" y2="28.2969"/><text fill="#FFFFFF" font-family="sans-serif" font-size="14" font-weight="bold" lengthAdjust="spacing" textLength="72.2285" x="434" y="20.9951">Frontend</text></g><!--cluster Backend API--><g id="cluster_Backend API"><path d="M8.5,259.59 L107.8896,259.59 A3.75,3.75 0 0 1 110.3896,262.09 L117.3896,281.8869 L1108.5,281.8869 A2.5,2.5 0 0 1 1111,284.3869 L1111,461.69 A2.5,2.5 0 0 1 1108.5,464.19 L8.5,464.19 A2.5,2.5 0 0 1 6,461.69 L6,262.09 A2.5,2.5 0 0 1 8.5,259.59 " fill="none" style="stroke:#FFFFFF;stroke-width:1.5;"/><line style="stroke:#FFFFFF;stroke-width:1.5;" x1="6" x2="117.3896" y1="281.8869" y2="281.8869"/><text fill="#FFFFFF" font-family="sans-serif" font-size="14" font-weight="bold" lengthAdjust="spacing" textLength="98.3896" x="10" y="274.5851">Backend API</text></g><!--cluster Data Storage--><g id="cluster_Data Storage"><path d="M28.5,497.19 L133.8438,497.19 A3.75,3.75 0 0 1 136.3438,499.69 L143.3438,519.4869 L435.5,519.4869 A2.5,2.5 0 0 1 438,521.9869 L438,590.98 A2.5,2.5 0 0 1 435.5,593.48 L28.5,593.48 A2.5,2.5 0 0 1 26,590.98 L26,499.69 A2.5,2.5 0 0 1 28.5,497.19 " fill="none" style="stroke:#FFFFFF;stroke-width:1.5;"/><line style="stroke:#FFFFFF;stroke-width:1.5;" x1="26" x2="143.3438" y1="519.4869" y2="519.4869"/><text fill="#FFFFFF" font-family="sans-serif" font-size="14" font-weight="bold" lengthAdjust="spacing" textLength="104.3438" x="30" y="512.1851">Data Storage</text></g><!--cluster External Services--><g id="cluster_External Services"><path d="M156.5,626.48 L294.8066,626.48 A3.75,3.75 0 0 1 297.3066,628.98 L304.3066,648.7769 L879.5,648.7769 A2.5,2.5 0 0 1 882,651.2769 L882,721.28 A2.5,2.5 0 0 1 879.5,723.78 L156.5,723.78 A2.5,2.5 0 0 1 154,721.28 L154,628.98 A2.5,2.5 0 0 1 156.5,626.48 " fill="none" style="stroke:#FFFFFF;stroke-width:1.5;"/><line style="stroke:#FFFFFF;stroke-width:1.5;" x1="154" x2="304.3066" y1="648.7769" y2="648.7769"/><text fill="#FFFFFF" font-family="sans-serif" font-size="14" font-weight="bold" lengthAdjust="spacing" textLength="137.3066" x="158" y="641.4751">External Services</text></g><!--entity UI--><g id="elem_UI"><rect fill="#313139" height="46.2969" rx="2.5" ry="2.5" style="stroke:#E7E7E7;stroke-width:0.5;" width="139.0391" x="638.48" y="41"/><rect fill="#313139" height="10" style="stroke:#E7E7E7;stroke-width:0.5;" width="15" x="757.5191" y="46"/><rect fill="#313139" height="2" style="stroke:#E7E7E7;stroke-width:0.5;" width="4" x="755.5191" y="48"/><rect fill="#313139" height="2" style="stroke:#E7E7E7;stroke-width:0.5;" width="4" x="755.5191" y="52"/><text fill="#FFFFFF" font-family="sans-serif" font-size="14" lengthAdjust="spacing" textLength="99.0391" x="653.48" y="73.9951">User Interface</text></g><!--entity State--><g id="elem_State"><rect fill="#313139" height="46.2969" rx="2.5" ry="2.5" style="stroke:#E7E7E7;stroke-width:0.5;" width="173.7314" x="446.13" y="148.3"/><rect fill="#313139" height="10" style="stroke:#E7E7E7;stroke-width:0.5;" width="15" x="599.8614" y="153.3"/><rect fill="#313139" height="2" style="stroke:#E7E7E7;stroke-width:0.5;" width="4" x="597.8614" y="155.3"/><rect fill="#313139" height="2" style="stroke:#E7E7E7;stroke-width:0.5;" width="4" x="597.8614" y="159.3"/><text fill="#FFFFFF" font-family="sans-serif" font-size="14" lengthAdjust="spacing" textLength="133.7314" x="461.13" y="181.2951">State Management</text></g><!--entity APIClient--><g id="elem_APIClient"><rect fill="#313139" height="46.2969" rx="2.5" ry="2.5" style="stroke:#E7E7E7;stroke-width:0.5;" width="107.1289" x="654.44" y="148.3"/><rect fill="#313139" height="10" style="stroke:#E7E7E7;stroke-width:0.5;" width="15" x="741.5689" y="153.3"/><rect fill="#313139" height="2" style="stroke:#E7E7E7;stroke-width:0.5;" width="4" x="739.5689" y="155.3"/><rect fill="#313139" height="2" style="stroke:#E7E7E7;stroke-width:0.5;" width="4" x="739.5689" y="159.3"/><text fill="#FFFFFF" font-family="sans-serif" font-size="14" lengthAdjust="spacing" textLength="67.1289" x="669.44" y="181.2951">API Client</text></g><!--entity WSClient--><g id="elem_WSClient"><rect fill="#313139" height="46.2969" rx="2.5" ry="2.5" style="stroke:#E7E7E7;stroke-width:0.5;" width="163.6826" x="796.16" y="148.3"/><rect fill="#313139" height="10" style="stroke:#E7E7E7;stroke-width:0.5;" width="15" x="939.8426" y="153.3"/><rect fill="#313139" height="2" style="stroke:#E7E7E7;stroke-width:0.5;" width="4" x="937.8426" y="155.3"/><rect fill="#313139" height="2" style="stroke:#E7E7E7;stroke-width:0.5;" width="4" x="937.8426" y="159.3"/><text fill="#FFFFFF" font-family="sans-serif" font-size="14" lengthAdjust="spacing" textLength="123.6826" x="811.16" y="181.2951">WebSocket Client</text></g><!--entity Gateway--><g id="elem_Gateway"><rect fill="#313139" height="46.2969" rx="2.5" ry="2.5" style="stroke:#E7E7E7;stroke-width:0.5;" width="128.4434" x="535.78" y="294.59"/><rect fill="#313139" height="10" style="stroke:#E7E7E7;stroke-width:0.5;" width="15" x="644.2234" y="299.59"/><rect fill="#313139" height="2" style="stroke:#E7E7E7;stroke-width:0.5;" width="4" x="642.2234" y="301.59"/><rect fill="#313139" height="2" style="stroke:#E7E7E7;stroke-width:0.5;" width="4" x="642.2234" y="305.59"/><text fill="#FFFFFF" font-family="sans-serif" font-size="14" lengthAdjust="spacing" textLength="88.4434" x="550.78" y="327.5851">API Gateway</text></g><!--entity Auth--><g id="elem_Auth"><rect fill="#313139" height="46.2969" rx="2.5" ry="2.5" style="stroke:#E7E7E7;stroke-width:0.5;" width="129.0039" x="22.5" y="401.89"/><rect fill="#313139" height="10" style="stroke:#E7E7E7;stroke-width:0.5;" width="15" x="131.5039" y="406.89"/><rect fill="#313139" height="2" style="stroke:#E7E7E7;stroke-width:0.5;" width="4" x="129.5039" y="408.89"/><rect fill="#313139" height="2" style="stroke:#E7E7E7;stroke-width:0.5;" width="4" x="129.5039" y="412.89"/><text fill="#FFFFFF" font-family="sans-serif" font-size="14" lengthAdjust="spacing" textLength="89.0039" x="37.5" y="434.8851">Auth Service</text></g><!--entity Event--><g id="elem_Event"><rect fill="#313139" height="46.2969" rx="2.5" ry="2.5" style="stroke:#E7E7E7;stroke-width:0.5;" width="136.2979" x="349.85" y="401.89"/><rect fill="#313139" height="10" style="stroke:#E7E7E7;stroke-width:0.5;" width="15" x="466.1479" y="406.89"/><rect fill="#313139" height="2" style="stroke:#E7E7E7;stroke-width:0.5;" width="4" x="464.1479" y="408.89"/><rect fill="#313139" height="2" style="stroke:#E7E7E7;stroke-width:0.5;" width="4" x="464.1479" y="412.89"/><text fill="#FFFFFF" font-family="sans-serif" font-size="14" lengthAdjust="spacing" textLength="96.2979" x="364.85" y="434.8851">Event Service</text></g><!--entity User--><g id="elem_User"><rect fill="#313139" height="46.2969" rx="2.5" ry="2.5" style="stroke:#E7E7E7;stroke-width:0.5;" width="128.1016" x="186.95" y="401.89"/><rect fill="#313139" height="10" style="stroke:#E7E7E7;stroke-width:0.5;" width="15" x="295.0516" y="406.89"/><rect fill="#313139" height="2" style="stroke:#E7E7E7;stroke-width:0.5;" width="4" x="293.0516" y="408.89"/><rect fill="#313139" height="2" style="stroke:#E7E7E7;stroke-width:0.5;" width="4" x="293.0516" y="412.89"/><text fill="#FFFFFF" font-family="sans-serif" font-size="14" lengthAdjust="spacing" textLength="88.1016" x="201.95" y="434.8851">User Service</text></g><!--entity Payment--><g id="elem_Payment"><rect fill="#313139" height="46.2969" rx="2.5" ry="2.5" style="stroke:#E7E7E7;stroke-width:0.5;" width="158.1113" x="520.94" y="401.89"/><rect fill="#313139" height="10" style="stroke:#E7E7E7;stroke-width:0.5;" width="15" x="659.0513" y="406.89"/><rect fill="#313139" height="2" style="stroke:#E7E7E7;stroke-width:0.5;" width="4" x="657.0513" y="408.89"/><rect fill="#313139" height="2" style="stroke:#E7E7E7;stroke-width:0.5;" width="4" x="657.0513" y="412.89"/><text fill="#FFFFFF" font-family="sans-serif" font-size="14" lengthAdjust="spacing" textLength="118.1113" x="535.94" y="434.8851">Payment Service</text></g><!--entity Notification--><g id="elem_Notification"><rect fill="#313139" height="46.2969" rx="2.5" ry="2.5" style="stroke:#E7E7E7;stroke-width:0.5;" width="176.5205" x="713.74" y="401.89"/><rect fill="#313139" height="10" style="stroke:#E7E7E7;stroke-width:0.5;" width="15" x="870.2605" y="406.89"/><rect fill="#313139" height="2" style="stroke:#E7E7E7;stroke-width:0.5;" width="4" x="868.2605" y="408.89"/><rect fill="#313139" height="2" style="stroke:#E7E7E7;stroke-width:0.5;" width="4" x="868.2605" y="412.89"/><text fill="#FFFFFF" font-family="sans-serif" font-size="14" lengthAdjust="spacing" textLength="136.5205" x="728.74" y="434.8851">Notification Service</text></g><!--entity WSServer--><g id="elem_WSServer"><rect fill="#313139" height="46.2969" rx="2.5" ry="2.5" style="stroke:#E7E7E7;stroke-width:0.5;" width="169.0625" x="925.47" y="401.89"/><rect fill="#313139" height="10" style="stroke:#E7E7E7;stroke-width:0.5;" width="15" x="1074.5325" y="406.89"/><rect fill="#313139" height="2" style="stroke:#E7E7E7;stroke-width:0.5;" width="4" x="1072.5325" y="408.89"/><rect fill="#313139" height="2" style="stroke:#E7E7E7;stroke-width:0.5;" width="4" x="1072.5325" y="412.89"/><text fill="#FFFFFF" font-family="sans-serif" font-size="14" lengthAdjust="spacing" textLength="129.0625" x="940.47" y="434.8851">WebSocket Server</text></g><!--entity DB--><g id="elem_DB"><path d="M321.62,542.19 C321.62,532.19 371.9965,532.19 371.9965,532.19 C371.9965,532.19 422.3729,532.19 422.3729,542.19 L422.3729,567.4869 C422.3729,577.4869 371.9965,577.4869 371.9965,577.4869 C371.9965,577.4869 321.62,577.4869 321.62,567.4869 L321.62,542.19 " fill="#313139" style="stroke:#E7E7E7;stroke-width:0.5;"/><path d="M321.62,542.19 C321.62,552.19 371.9965,552.19 371.9965,552.19 C371.9965,552.19 422.3729,552.19 422.3729,542.19 " fill="none" style="stroke:#E7E7E7;stroke-width:0.5;"/><text fill="#FFFFFF" font-family="sans-serif" font-size="14" lengthAdjust="spacing" textLength="80.7529" x="331.62" y="569.1851">PostgreSQL</text></g><!--entity Cache--><g id="elem_Cache"><path d="M41.8,542.19 C41.8,532.19 94.9997,532.19 94.9997,532.19 C94.9997,532.19 148.1994,532.19 148.1994,542.19 L148.1994,567.4869 C148.1994,577.4869 94.9997,577.4869 94.9997,577.4869 C94.9997,577.4869 41.8,577.4869 41.8,567.4869 L41.8,542.19 " fill="#313139" style="stroke:#E7E7E7;stroke-width:0.5;"/><path d="M41.8,542.19 C41.8,552.19 94.9997,552.19 94.9997,552.19 C94.9997,552.19 148.1994,552.19 148.1994,542.19 " fill="none" style="stroke:#E7E7E7;stroke-width:0.5;"/><text fill="#FFFFFF" font-family="sans-serif" font-size="14" lengthAdjust="spacing" textLength="86.3994" x="51.8" y="569.1851">Redis Cache</text></g><!--entity Files--><g id="elem_Files"><path d="M183.16,542.19 C183.16,532.19 234.9959,532.19 234.9959,532.19 C234.9959,532.19 286.8319,532.19 286.8319,542.19 L286.8319,567.4869 C286.8319,577.4869 234.9959,577.4869 234.9959,577.4869 C234.9959,577.4869 183.16,577.4869 183.16,567.4869 L183.16,542.19 " fill="#313139" style="stroke:#E7E7E7;stroke-width:0.5;"/><path d="M183.16,542.19 C183.16,552.19 234.9959,552.19 234.9959,552.19 C234.9959,552.19 286.8319,552.19 286.8319,542.19 " fill="none" style="stroke:#E7E7E7;stroke-width:0.5;"/><text fill="#FFFFFF" font-family="sans-serif" font-size="14" lengthAdjust="spacing" textLength="83.6719" x="193.16" y="569.1851">File Storage</text></g><!--entity Stripe--><g id="elem_Stripe"><rect fill="#313139" height="46.2969" rx="2.5" ry="2.5" style="stroke:#E7E7E7;stroke-width:0.5;" width="168.2148" x="526.89" y="661.48"/><rect fill="#313139" height="10" style="stroke:#E7E7E7;stroke-width:0.5;" width="15" x="675.1048" y="666.48"/><rect fill="#313139" height="2" style="stroke:#E7E7E7;stroke-width:0.5;" width="4" x="673.1048" y="668.48"/><rect fill="#313139" height="2" style="stroke:#E7E7E7;stroke-width:0.5;" width="4" x="673.1048" y="672.48"/><text fill="#FFFFFF" font-family="sans-serif" font-size="14" lengthAdjust="spacing" textLength="128.2148" x="541.89" y="694.4751">Payment Gateway</text></g><!--entity Email--><g id="elem_Email"><rect fill="#313139" height="46.2969" rx="2.5" ry="2.5" style="stroke:#E7E7E7;stroke-width:0.5;" width="135.0332" x="730.48" y="661.48"/><rect fill="#313139" height="10" style="stroke:#E7E7E7;stroke-width:0.5;" width="15" x="845.5132" y="666.48"/><rect fill="#313139" height="2" style="stroke:#E7E7E7;stroke-width:0.5;" width="4" x="843.5132" y="668.48"/><rect fill="#313139" height="2" style="stroke:#E7E7E7;stroke-width:0.5;" width="4" x="843.5132" y="672.48"/><text fill="#FFFFFF" font-family="sans-serif" font-size="14" lengthAdjust="spacing" textLength="95.0332" x="745.48" y="694.4751">Email Service</text></g><!--entity Meeting--><g id="elem_Meeting"><rect fill="#313139" height="46.2969" rx="2.5" ry="2.5" style="stroke:#E7E7E7;stroke-width:0.5;" width="146.9482" x="344.53" y="661.48"/><rect fill="#313139" height="10" style="stroke:#E7E7E7;stroke-width:0.5;" width="15" x="471.4782" y="666.48"/><rect fill="#313139" height="2" style="stroke:#E7E7E7;stroke-width:0.5;" width="4" x="469.4782" y="668.48"/><rect fill="#313139" height="2" style="stroke:#E7E7E7;stroke-width:0.5;" width="4" x="469.4782" y="672.48"/><text fill="#FFFFFF" font-family="sans-serif" font-size="14" lengthAdjust="spacing" textLength="106.9482" x="359.53" y="694.4751">Virtual Meeting</text></g><!--entity CloudStorage--><g id="elem_CloudStorage"><rect fill="#313139" height="46.2969" rx="2.5" ry="2.5" style="stroke:#E7E7E7;stroke-width:0.5;" width="139.2168" x="170.39" y="661.48"/><rect fill="#313139" height="10" style="stroke:#E7E7E7;stroke-width:0.5;" width="15" x="289.6068" y="666.48"/><rect fill="#313139" height="2" style="stroke:#E7E7E7;stroke-width:0.5;" width="4" x="287.6068" y="668.48"/><rect fill="#313139" height="2" style="stroke:#E7E7E7;stroke-width:0.5;" width="4" x="287.6068" y="672.48"/><text fill="#FFFFFF" font-family="sans-serif" font-size="14" lengthAdjust="spacing" textLength="99.2168" x="185.39" y="694.4751">Cloud Storage</text></g><!--link UI to State--><g id="link_UI_State"><path d="M670.46,87.74 C640.93,105.5 605.1316,127.0474 575.6216,144.7974 " fill="none" id="UI-to-State" style="stroke:#E7E7E7;stroke-width:1;"/><polygon fill="#E7E7E7" points="570.48,147.89,580.2541,146.6788,574.7646,145.3128,576.1306,139.8234,570.48,147.89" style="stroke:#E7E7E7;stroke-width:1;"/></g><!--link UI to APIClient--><g id="link_UI_APIClient"><path d="M708,87.74 C708,105.5 708,124.14 708,141.89 " fill="none" id="UI-to-APIClient" style="stroke:#E7E7E7;stroke-width:1;"/><polygon fill="#E7E7E7" points="708,147.89,712,138.89,708,142.89,704,138.89,708,147.89" style="stroke:#E7E7E7;stroke-width:1;"/></g><!--link UI to WSClient--><g id="link_UI_WSClient"><path d="M744.47,87.74 C773.15,105.5 807.8186,126.9816 836.4886,144.7316 " fill="none" id="UI-to-WSClient" style="stroke:#E7E7E7;stroke-width:1;"/><polygon fill="#E7E7E7" points="841.59,147.89,836.0434,139.7515,837.3388,145.258,831.8323,146.5534,841.59,147.89" style="stroke:#E7E7E7;stroke-width:1;"/></g><!--link Gateway to Auth--><g id="link_Gateway_Auth"><path d="M535.43,329.68 C450.87,344.34 298.19,372.02 169,401.89 C163.4,403.18 163.4167,403.1283 157.6067,404.5983 " fill="none" id="Gateway-to-Auth" style="stroke:#E7E7E7;stroke-width:1;"/><polygon fill="#E7E7E7" points="151.79,406.07,161.4962,407.7403,156.6373,404.8436,159.5339,399.9846,151.79,406.07" style="stroke:#E7E7E7;stroke-width:1;"/></g><!--link Gateway to Event--><g id="link_Gateway_Event"><path d="M560.96,341.33 C530.25,359.1 492.8631,380.7248 462.1731,398.4848 " fill="none" id="Gateway-to-Event" style="stroke:#E7E7E7;stroke-width:1;"/><polygon fill="#E7E7E7" points="456.98,401.49,466.7732,400.4443,461.3076,398.9857,462.7662,393.5201,456.98,401.49" style="stroke:#E7E7E7;stroke-width:1;"/></g><!--link Gateway to User--><g id="link_Gateway_User"><path d="M535.58,338.18 C472.85,357.1 383.7842,383.9767 321.0842,402.8967 " fill="none" id="Gateway-to-User" style="stroke:#E7E7E7;stroke-width:1;"/><polygon fill="#E7E7E7" points="315.34,404.63,325.1118,405.8595,320.1268,403.1856,322.8007,398.2006,315.34,404.63" style="stroke:#E7E7E7;stroke-width:1;"/></g><!--link Gateway to Payment--><g id="link_Gateway_Payment"><path d="M600,341.33 C600,359.1 600,377.73 600,395.49 " fill="none" id="Gateway-to-Payment" style="stroke:#E7E7E7;stroke-width:1;"/><polygon fill="#E7E7E7" points="600,401.49,604,392.49,600,396.49,596,392.49,600,401.49" style="stroke:#E7E7E7;stroke-width:1;"/></g><!--link Gateway to Notification--><g id="link_Gateway_Notification"><path d="M643.33,341.33 C677.42,359.1 719.3495,380.9565 753.4195,398.7165 " fill="none" id="Gateway-to-Notification" style="stroke:#E7E7E7;stroke-width:1;"/><polygon fill="#E7E7E7" points="758.74,401.49,752.6082,393.7828,754.3062,399.1788,748.9103,400.8768,758.74,401.49" style="stroke:#E7E7E7;stroke-width:1;"/></g><!--link Gateway to WSServer--><g id="link_Gateway_WSServer"><path d="M664.51,335.31 C734.87,353.38 841.9587,380.8772 919.4287,400.7772 " fill="none" id="Gateway-to-WSServer" style="stroke:#E7E7E7;stroke-width:1;"/><polygon fill="#E7E7E7" points="925.24,402.27,917.5182,396.1566,920.3972,401.026,915.5278,403.9051,925.24,402.27" style="stroke:#E7E7E7;stroke-width:1;"/></g><!--link Event to DB--><g id="link_Event_DB"><path d="M409.88,448.59 C401.42,472.09 390.2823,503.0347 381.9123,526.2847 " fill="none" id="Event-to-DB" style="stroke:#E7E7E7;stroke-width:1;"/><polygon fill="#E7E7E7" points="379.88,531.93,386.692,524.8169,381.5736,527.2256,379.1649,522.1071,379.88,531.93" style="stroke:#E7E7E7;stroke-width:1;"/></g><!--link User to DB--><g id="link_User_DB"><path d="M272.35,448.59 C294.61,472.09 325.1142,504.3237 347.1342,527.5737 " fill="none" id="User-to-DB" style="stroke:#E7E7E7;stroke-width:1;"/><polygon fill="#E7E7E7" points="351.26,531.93,347.9754,522.645,347.8218,528.2997,342.167,528.1461,351.26,531.93" style="stroke:#E7E7E7;stroke-width:1;"/></g><!--link Payment to DB--><g id="link_Payment_DB"><path d="M559.76,448.59 C517.96,472.02 458.1937,505.516 416.6837,528.786 " fill="none" id="Payment-to-DB" style="stroke:#E7E7E7;stroke-width:1;"/><polygon fill="#E7E7E7" points="411.45,531.72,421.2566,530.8082,415.8114,529.275,417.3446,523.8299,411.45,531.72" style="stroke:#E7E7E7;stroke-width:1;"/></g><!--link Auth to Cache--><g id="link_Auth_Cache"><path d="M88.41,448.59 C89.88,472.09 91.794,502.6918 93.254,525.9418 " fill="none" id="Auth-to-Cache" style="stroke:#E7E7E7;stroke-width:1;"/><polygon fill="#E7E7E7" points="93.63,531.93,97.0581,522.697,93.3166,526.9398,89.0738,523.1984,93.63,531.93" style="stroke:#E7E7E7;stroke-width:1;"/></g><!--link Event to Files--><g id="link_Event_Files"><path d="M376.03,448.64 C346.32,464.74 310.63,484.36 304,489.19 C286.62,501.84 273.1849,514.2197 260.0749,527.4397 " fill="none" id="Event-to-Files" style="stroke:#E7E7E7;stroke-width:1;"/><polygon fill="#E7E7E7" points="255.85,531.7,265.0275,528.1261,259.3707,528.1497,259.3471,522.4929,255.85,531.7" style="stroke:#E7E7E7;stroke-width:1;"/></g><!--link Payment to Stripe--><g id="link_Payment_Stripe"><path d="M600.96,448.45 C603.04,497.16 607.6935,606.2555 609.7835,655.0955 " fill="none" id="Payment-to-Stripe" style="stroke:#E7E7E7;stroke-width:1;stroke-dasharray:7.0,7.0;"/><polygon fill="#E7E7E7" points="610.04,661.09,613.6516,651.9272,609.8262,656.0946,605.6589,652.2692,610.04,661.09" style="stroke:#E7E7E7;stroke-width:1;"/></g><!--link Notification to Email--><g id="link_Notification_Email"><path d="M801.65,448.45 C800.9,497.16 799.2034,606.2507 798.4434,655.0907 " fill="none" id="Notification-to-Email" style="stroke:#E7E7E7;stroke-width:1;stroke-dasharray:7.0,7.0;"/><polygon fill="#E7E7E7" points="798.35,661.09,802.4895,652.1533,798.4278,656.0906,794.4905,652.0289,798.35,661.09" style="stroke:#E7E7E7;stroke-width:1;"/></g><!--link Event to Meeting--><g id="link_Event_Meeting"><path d="M426.94,448.43 C431.21,460.33 435.86,475.32 438,489.19 C445.62,538.51 443.95,551.93 438,601.48 C435.53,622.03 431.3865,639.1061 426.6565,655.4661 " fill="none" id="Event-to-Meeting" style="stroke:#E7E7E7;stroke-width:1;stroke-dasharray:7.0,7.0;"/><polygon fill="#E7E7E7" points="424.99,661.23,431.3323,653.6951,426.3787,656.4267,423.6471,651.4731,424.99,661.23" style="stroke:#E7E7E7;stroke-width:1;"/></g><!--link Files to CloudStorage--><g id="link_Files_CloudStorage"><path d="M235.86,577.8 C236.77,601.07 237.9651,631.6146 238.8851,655.0946 " fill="none" id="Files-to-CloudStorage" style="stroke:#E7E7E7;stroke-width:1;stroke-dasharray:7.0,7.0;"/><polygon fill="#E7E7E7" points="239.12,661.09,242.7646,651.9403,238.9242,656.0938,234.7707,652.2535,239.12,661.09" style="stroke:#E7E7E7;stroke-width:1;"/></g><!--link APIClient to Gateway--><g id="link_APIClient_Gateway"><path d="M691.12,194.99 C670.84,222.1 640.5852,262.5164 620.3552,289.5464 " fill="none" id="APIClient-to-Gateway" style="stroke:#E7E7E7;stroke-width:1;stroke-dasharray:7.0,7.0;"/><polygon fill="#E7E7E7" points="616.76,294.35,625.3552,289.5413,619.756,290.347,618.9503,284.7478,616.76,294.35" style="stroke:#E7E7E7;stroke-width:1;"/><text fill="#FFFFFF" font-family="sans-serif" font-size="13" lengthAdjust="spacing" textLength="41.7485" x="667" y="239.6569">HTTPS</text></g><!--link WSClient to WSServer--><g id="link_WSClient_WSServer"><path d="M889.71,194.77 C914.7,242.4 970.2025,348.1868 995.3325,396.0868 " fill="none" id="WSClient-to-WSServer" style="stroke:#E7E7E7;stroke-width:1;stroke-dasharray:7.0,7.0;"/><polygon fill="#E7E7E7" points="998.12,401.4,997.4809,391.5719,995.7971,396.9723,990.3967,395.2885,998.12,401.4" style="stroke:#E7E7E7;stroke-width:1;"/><text fill="#FFFFFF" font-family="sans-serif" font-size="13" lengthAdjust="spacing" textLength="73.0806" x="966" y="322.3069">WebSocket</text></g><!--SRC=[PLHDRy8m3BttLqHSTe8Vi0FI-DegZQbROHoc7K9h8A8aA0riQDf_d_FLkbrFyNkExMSxFVFYoFV01Wkjf05P3jXFml3xMDUWMOgOtl42FXclsJhrL6wu0RRa4c-UG1f7Ej3p3rdAffM839hUykm6jhagZc2epoOFBivddRBXS4n21g0RAO3DrTyaEKSv4poW6dkZKMJBUiI8N_pcSePp82_cm7BGLn74Mi1Jyoj6xt0E8MsYd0KybV7RgNypODxXHHcn4mKtGicE5oNwJRD-e4FJlE6R5kJuHiNYATXMJT6cNWhICYd-hp1ADkNGGSouuJX8fT6AaoWHs_8QsKpLPgyXVtqUM46pIOz_WrBKRCgB0pW7T-hvB4G5RGPqia3jU-97PuiBeTsuY1rdH22t2TPkaxLXV6mgSFwDJqJoAWwmRlOjngOxbnijpk6Pp4zSLDszieWdtuKs5uow1312xXqTpjvXMgbB6NKxsY41I3hgHgCnpTpPEykrURrIYz5aJhL3Epcm3NVu6n2I5KfAA6oyEcaUgRiG5-IUFQrMMPx4r-h8k378DWl-1m00]--></g></svg>