<svg xmlns="http://www.w3.org/2000/svg" xmlns:xlink="http://www.w3.org/1999/xlink" contentStyleType="text/css" height="926px" preserveAspectRatio="none" style="width:671px;height:926px;background:#1B1B1B;" version="1.1" viewBox="0 0 671 926" width="671px" zoomAndPan="magnify"><defs/><g><rect fill="#1B1B1B" height="926" style="stroke:none;stroke-width:1;" width="671" x="0" y="0"/><!--class Users--><g id="elem_Users"><rect codeLine="8" fill="#313139" height="137.7813" id="Users" rx="2.5" ry="2.5" style="stroke:#E7E7E7;stroke-width:0.5;" width="196.9873" x="244.05" y="7"/><ellipse cx="318.6916" cy="23" fill="#FFAAAA" rx="11" ry="11" style="stroke:#E7E7E7;stroke-width:1;"/><path d="M319.5354,29.75 L317.0822,29.75 L317.0822,19.5 L313.9416,19.5 L313.9416,17.3594 L322.676,17.3594 L322.676,19.5 L319.5354,19.5 L319.5354,29.75 Z " fill="#FFFFFF"/><text fill="#FFFFFF" font-family="sans-serif" font-size="14" lengthAdjust="spacing" textLength="39.2041" x="339.1916" y="27.8467">Users</text><line style="stroke:#E7E7E7;stroke-width:0.5;" x1="245.05" x2="440.0373" y1="39" y2="39"/><text fill="#FFFFFF" font-family="sans-serif" font-size="14" font-weight="bold" lengthAdjust="spacing" textLength="56.5195" x="250.05" y="55.9951">user_id</text><text fill="#FFFFFF" font-family="sans-serif" font-size="14" lengthAdjust="spacing" textLength="44.5703" x="306.5695" y="55.9951">: UUID</text><text fill="#FFFFFF" font-family="sans-serif" font-size="14" lengthAdjust="spacing" textLength="116.2656" x="250.05" y="72.292">email: VARCHAR</text><text fill="#FFFFFF" font-family="sans-serif" font-size="14" lengthAdjust="spacing" textLength="184.9873" x="250.05" y="88.5889">password_hash: VARCHAR</text><text fill="#FFFFFF" font-family="sans-serif" font-size="14" lengthAdjust="spacing" textLength="145.9404" x="250.05" y="104.8857">full_name: VARCHAR</text><text fill="#FFFFFF" font-family="sans-serif" font-size="14" lengthAdjust="spacing" textLength="77.6357" x="250.05" y="121.1826">role: ENUM</text><text fill="#FFFFFF" font-family="sans-serif" font-size="14" lengthAdjust="spacing" textLength="165.0127" x="250.05" y="137.4795">created_at: TIMESTAMP</text></g><!--class Events--><g id="elem_Events"><rect codeLine="17" fill="#313139" height="219.2656" id="Events" rx="2.5" ry="2.5" style="stroke:#E7E7E7;stroke-width:0.5;" width="177.0127" x="254.04" y="221.78"/><ellipse cx="314.5962" cy="237.78" fill="#FFAAAA" rx="11" ry="11" style="stroke:#E7E7E7;stroke-width:1;"/><path d="M315.4399,244.53 L312.9868,244.53 L312.9868,234.28 L309.8462,234.28 L309.8462,232.1394 L318.5805,232.1394 L318.5805,234.28 L315.4399,234.28 L315.4399,244.53 Z " fill="#FFFFFF"/><text fill="#FFFFFF" font-family="sans-serif" font-size="14" lengthAdjust="spacing" textLength="47.4004" x="335.0962" y="242.6267">Events</text><line style="stroke:#E7E7E7;stroke-width:0.5;" x1="255.04" x2="430.0527" y1="253.78" y2="253.78"/><text fill="#FFFFFF" font-family="sans-serif" font-size="14" font-weight="bold" lengthAdjust="spacing" textLength="66.5957" x="260.04" y="270.7751">event_id</text><text fill="#FFFFFF" font-family="sans-serif" font-size="14" lengthAdjust="spacing" textLength="44.5703" x="326.6357" y="270.7751">: UUID</text><text fill="#FFFFFF" font-family="sans-serif" font-size="14" font-style="italic" lengthAdjust="spacing" textLength="86.0439" x="260.04" y="287.072">organizer_id</text><text fill="#FFFFFF" font-family="sans-serif" font-size="14" lengthAdjust="spacing" textLength="44.5703" x="346.0839" y="287.072">: UUID</text><text fill="#FFFFFF" font-family="sans-serif" font-size="14" lengthAdjust="spacing" textLength="105.0273" x="260.04" y="303.3689">title: VARCHAR</text><text fill="#FFFFFF" font-family="sans-serif" font-size="14" lengthAdjust="spacing" textLength="122.5479" x="260.04" y="319.6657">description: TEXT</text><text fill="#FFFFFF" font-family="sans-serif" font-size="14" lengthAdjust="spacing" textLength="161.4854" x="260.04" y="335.9626">start_date: TIMESTAMP</text><text fill="#FFFFFF" font-family="sans-serif" font-size="14" lengthAdjust="spacing" textLength="155.251" x="260.04" y="352.2595">end_date: TIMESTAMP</text><text fill="#FFFFFF" font-family="sans-serif" font-size="14" lengthAdjust="spacing" textLength="133.2051" x="260.04" y="368.5564">location: VARCHAR</text><text fill="#FFFFFF" font-family="sans-serif" font-size="14" lengthAdjust="spacing" textLength="129.6914" x="260.04" y="384.8532">capacity: INTEGER</text><text fill="#FFFFFF" font-family="sans-serif" font-size="14" lengthAdjust="spacing" textLength="128.96" x="260.04" y="401.1501">event_type: ENUM</text><text fill="#FFFFFF" font-family="sans-serif" font-size="14" lengthAdjust="spacing" textLength="93.8301" x="260.04" y="417.447">status: ENUM</text><text fill="#FFFFFF" font-family="sans-serif" font-size="14" lengthAdjust="spacing" textLength="165.0127" x="260.04" y="433.7439">created_at: TIMESTAMP</text></g><!--class Tickets--><g id="elem_Tickets"><rect codeLine="31" fill="#313139" height="154.0781" id="Tickets" rx="2.5" ry="2.5" style="stroke:#E7E7E7;stroke-width:0.5;" width="205.4502" x="10.82" y="518.05"/><ellipse cx="84.4738" cy="534.05" fill="#FFAAAA" rx="11" ry="11" style="stroke:#E7E7E7;stroke-width:1;"/><path d="M85.3176,540.8 L82.8644,540.8 L82.8644,530.55 L79.7238,530.55 L79.7238,528.4094 L88.4582,528.4094 L88.4582,530.55 L85.3176,530.55 L85.3176,540.8 Z " fill="#FFFFFF"/><text fill="#FFFFFF" font-family="sans-serif" font-size="14" lengthAdjust="spacing" textLength="49.6426" x="104.9738" y="538.8967">Tickets</text><line style="stroke:#E7E7E7;stroke-width:0.5;" x1="11.82" x2="215.2702" y1="550.05" y2="550.05"/><text fill="#FFFFFF" font-family="sans-serif" font-size="14" font-weight="bold" lengthAdjust="spacing" textLength="67.1084" x="16.82" y="567.0451">ticket_id</text><text fill="#FFFFFF" font-family="sans-serif" font-size="14" lengthAdjust="spacing" textLength="44.5703" x="83.9284" y="567.0451">: UUID</text><text fill="#FFFFFF" font-family="sans-serif" font-size="14" font-style="italic" lengthAdjust="spacing" textLength="59.6504" x="16.82" y="583.342">event_id</text><text fill="#FFFFFF" font-family="sans-serif" font-size="14" lengthAdjust="spacing" textLength="44.5703" x="76.4704" y="583.342">: UUID</text><text fill="#FFFFFF" font-family="sans-serif" font-size="14" font-style="italic" lengthAdjust="spacing" textLength="50.3125" x="16.82" y="599.6389">user_id</text><text fill="#FFFFFF" font-family="sans-serif" font-size="14" lengthAdjust="spacing" textLength="44.5703" x="67.1325" y="599.6389">: UUID</text><text fill="#FFFFFF" font-family="sans-serif" font-size="14" lengthAdjust="spacing" textLength="155.2168" x="16.82" y="615.9357">ticket_type: VARCHAR</text><text fill="#FFFFFF" font-family="sans-serif" font-size="14" lengthAdjust="spacing" textLength="106.9961" x="16.82" y="632.2326">price: DECIMAL</text><text fill="#FFFFFF" font-family="sans-serif" font-size="14" lengthAdjust="spacing" textLength="93.8301" x="16.82" y="648.5295">status: ENUM</text><text fill="#FFFFFF" font-family="sans-serif" font-size="14" lengthAdjust="spacing" textLength="193.4502" x="16.82" y="664.8264">purchase_date: TIMESTAMP</text></g><!--class Registrations--><g id="elem_Registrations"><rect codeLine="41" fill="#313139" height="121.4844" id="Registrations" rx="2.5" ry="2.5" style="stroke:#E7E7E7;stroke-width:0.5;" width="195.1758" x="468.96" y="534.34"/><ellipse cx="516.1246" cy="550.34" fill="#FFAAAA" rx="11" ry="11" style="stroke:#E7E7E7;stroke-width:1;"/><path d="M516.9683,557.09 L514.5152,557.09 L514.5152,546.84 L511.3746,546.84 L511.3746,544.6994 L520.1089,544.6994 L520.1089,546.84 L516.9683,546.84 L516.9683,557.09 Z " fill="#FFFFFF"/><text fill="#FFFFFF" font-family="sans-serif" font-size="14" lengthAdjust="spacing" textLength="92.3467" x="536.6246" y="555.1867">Registrations</text><line style="stroke:#E7E7E7;stroke-width:0.5;" x1="469.96" x2="663.1358" y1="566.34" y2="566.34"/><text fill="#FFFFFF" font-family="sans-serif" font-size="14" font-weight="bold" lengthAdjust="spacing" textLength="115.4932" x="474.96" y="583.3351">registration_id</text><text fill="#FFFFFF" font-family="sans-serif" font-size="14" lengthAdjust="spacing" textLength="44.5703" x="590.4532" y="583.3351">: UUID</text><text fill="#FFFFFF" font-family="sans-serif" font-size="14" font-style="italic" lengthAdjust="spacing" textLength="59.6504" x="474.96" y="599.632">event_id</text><text fill="#FFFFFF" font-family="sans-serif" font-size="14" lengthAdjust="spacing" textLength="44.5703" x="534.6104" y="599.632">: UUID</text><text fill="#FFFFFF" font-family="sans-serif" font-size="14" font-style="italic" lengthAdjust="spacing" textLength="50.3125" x="474.96" y="615.9289">user_id</text><text fill="#FFFFFF" font-family="sans-serif" font-size="14" lengthAdjust="spacing" textLength="44.5703" x="525.2725" y="615.9289">: UUID</text><text fill="#FFFFFF" font-family="sans-serif" font-size="14" lengthAdjust="spacing" textLength="93.8301" x="474.96" y="632.2257">status: ENUM</text><text fill="#FFFFFF" font-family="sans-serif" font-size="14" lengthAdjust="spacing" textLength="183.1758" x="474.96" y="648.5226">registered_at: TIMESTAMP</text></g><!--class Payments--><g id="elem_Payments"><rect codeLine="49" fill="#313139" height="170.375" id="Payments" rx="2.5" ry="2.5" style="stroke:#E7E7E7;stroke-width:0.5;" width="213.0859" x="7" y="749.13"/><ellipse cx="74.686" cy="765.13" fill="#FFAAAA" rx="11" ry="11" style="stroke:#E7E7E7;stroke-width:1;"/><path d="M75.5298,771.88 L73.0767,771.88 L73.0767,761.63 L69.936,761.63 L69.936,759.4894 L78.6704,759.4894 L78.6704,761.63 L75.5298,761.63 L75.5298,771.88 Z " fill="#FFFFFF"/><text fill="#FFFFFF" font-family="sans-serif" font-size="14" lengthAdjust="spacing" textLength="69.2139" x="95.186" y="769.9767">Payments</text><line style="stroke:#E7E7E7;stroke-width:0.5;" x1="8" x2="219.0859" y1="781.13" y2="781.13"/><text fill="#FFFFFF" font-family="sans-serif" font-size="14" font-weight="bold" lengthAdjust="spacing" textLength="91.1572" x="13" y="798.1251">payment_id</text><text fill="#FFFFFF" font-family="sans-serif" font-size="14" lengthAdjust="spacing" textLength="44.5703" x="104.1572" y="798.1251">: UUID</text><text fill="#FFFFFF" font-family="sans-serif" font-size="14" font-style="italic" lengthAdjust="spacing" textLength="59.0625" x="13" y="814.422">ticket_id</text><text fill="#FFFFFF" font-family="sans-serif" font-size="14" lengthAdjust="spacing" textLength="44.5703" x="72.0625" y="814.422">: UUID</text><text fill="#FFFFFF" font-family="sans-serif" font-size="14" font-style="italic" lengthAdjust="spacing" textLength="50.3125" x="13" y="830.7189">user_id</text><text fill="#FFFFFF" font-family="sans-serif" font-size="14" lengthAdjust="spacing" textLength="44.5703" x="63.3125" y="830.7189">: UUID</text><text fill="#FFFFFF" font-family="sans-serif" font-size="14" lengthAdjust="spacing" textLength="126.1709" x="13" y="847.0157">amount: DECIMAL</text><text fill="#FFFFFF" font-family="sans-serif" font-size="14" lengthAdjust="spacing" textLength="93.8301" x="13" y="863.3126">status: ENUM</text><text fill="#FFFFFF" font-family="sans-serif" font-size="14" lengthAdjust="spacing" textLength="201.0859" x="13" y="879.6095">payment_method: VARCHAR</text><text fill="#FFFFFF" font-family="sans-serif" font-size="14" lengthAdjust="spacing" textLength="176.5176" x="13" y="895.9064">transaction_id: VARCHAR</text><text fill="#FFFFFF" font-family="sans-serif" font-size="14" lengthAdjust="spacing" textLength="165.0127" x="13" y="912.2032">created_at: TIMESTAMP</text></g><!--class VirtualEvents--><g id="elem_VirtualEvents"><rect codeLine="60" fill="#313139" height="121.4844" id="VirtualEvents" rx="2.5" ry="2.5" style="stroke:#E7E7E7;stroke-width:0.5;" width="181.9004" x="251.59" y="534.34"/><ellipse cx="291.9908" cy="550.34" fill="#FFAAAA" rx="11" ry="11" style="stroke:#E7E7E7;stroke-width:1;"/><path d="M292.8346,557.09 L290.3815,557.09 L290.3815,546.84 L287.2408,546.84 L287.2408,544.6994 L295.9752,544.6994 L295.9752,546.84 L292.8346,546.84 L292.8346,557.09 Z " fill="#FFFFFF"/><text fill="#FFFFFF" font-family="sans-serif" font-size="14" lengthAdjust="spacing" textLength="93.4541" x="311.6355" y="555.1867">VirtualEvents</text><line style="stroke:#E7E7E7;stroke-width:0.5;" x1="252.59" x2="432.4904" y1="566.34" y2="566.34"/><text fill="#FFFFFF" font-family="sans-serif" font-size="14" font-weight="bold" lengthAdjust="spacing" textLength="125.3301" x="257.59" y="583.3351">virtual_event_id</text><text fill="#FFFFFF" font-family="sans-serif" font-size="14" lengthAdjust="spacing" textLength="44.5703" x="382.9201" y="583.3351">: UUID</text><text fill="#FFFFFF" font-family="sans-serif" font-size="14" font-style="italic" lengthAdjust="spacing" textLength="59.6504" x="257.59" y="599.632">event_id</text><text fill="#FFFFFF" font-family="sans-serif" font-size="14" lengthAdjust="spacing" textLength="44.5703" x="317.2404" y="599.632">: UUID</text><text fill="#FFFFFF" font-family="sans-serif" font-size="14" lengthAdjust="spacing" textLength="137.3887" x="257.59" y="615.9289">platform: VARCHAR</text><text fill="#FFFFFF" font-family="sans-serif" font-size="14" lengthAdjust="spacing" textLength="161.1777" x="257.59" y="632.2257">meeting_url: VARCHAR</text><text fill="#FFFFFF" font-family="sans-serif" font-size="14" lengthAdjust="spacing" textLength="165.5938" x="257.59" y="648.5226">access_code: VARCHAR</text></g><!--link Users to Events--><g id="link_Users_Events"><path codeLine="68" d="M342.54,153.16 C342.54,176.63 342.54,177.52 342.54,203.4 " fill="none" id="Users-Events" style="stroke:#E7E7E7;stroke-width:1;"/><line style="stroke:#E7E7E7;stroke-width:1;" x1="338.54" x2="346.54" y1="149.16" y2="149.16"/><line style="stroke:#E7E7E7;stroke-width:1;" x1="338.54" x2="346.54" y1="152.16" y2="152.16"/><line style="stroke:#E7E7E7;stroke-width:1;" x1="342.54" x2="342.54" y1="153.16" y2="145.16"/><line style="stroke:#E7E7E7;stroke-width:1;" x1="342.54" x2="348.54" y1="213.4" y2="221.4"/><line style="stroke:#E7E7E7;stroke-width:1;" x1="342.54" x2="336.54" y1="213.4" y2="221.4"/><line style="stroke:#E7E7E7;stroke-width:1;" x1="342.54" x2="342.54" y1="213.4" y2="221.4"/><ellipse cx="342.54" cy="207.4" fill="none" rx="4" ry="4" style="stroke:#E7E7E7;stroke-width:1;"/><text fill="#FFFFFF" font-family="sans-serif" font-size="13" lengthAdjust="spacing" textLength="62.9624" x="343.54" y="187.8469">organizes</text></g><!--link Events to Tickets--><g id="link_Events_Tickets"><path codeLine="69" d="M248.4115,439.9802 C224.0215,467.8502 215.1142,478.0246 192.1942,504.2146 " fill="none" id="Events-Tickets" style="stroke:#E7E7E7;stroke-width:1;"/><line style="stroke:#E7E7E7;stroke-width:1;" x1="248.0356" x2="254.0559" y1="434.3359" y2="439.6044"/><line style="stroke:#E7E7E7;stroke-width:1;" x1="246.06" x2="252.0802" y1="436.5934" y2="441.8619"/><line style="stroke:#E7E7E7;stroke-width:1;" x1="248.4115" x2="253.68" y1="439.9802" y2="433.96"/><line style="stroke:#E7E7E7;stroke-width:1;" x1="185.6085" x2="184.8551" y1="511.7398" y2="521.7114"/><line style="stroke:#E7E7E7;stroke-width:1;" x1="185.6085" x2="175.8249" y1="511.7398" y2="513.8086"/><line style="stroke:#E7E7E7;stroke-width:1;" x1="185.6085" x2="180.34" y1="511.7398" y2="517.76"/><ellipse cx="189.5599" cy="507.2247" fill="none" rx="4" ry="4" style="stroke:#E7E7E7;stroke-width:1;"/><text fill="#FFFFFF" font-family="sans-serif" font-size="13" lengthAdjust="spacing" textLength="55.0278" x="222.54" y="484.1169">contains</text></g><!--link Users to Tickets--><g id="link_Users_Tickets"><path codeLine="70" d="M237.6092,143.4176 C208.9292,166.1376 186.73,189.39 168.54,221.78 C116.73,314.08 108.2605,420.6512 109.1805,499.6912 " fill="none" id="Users-Tickets" style="stroke:#E7E7E7;stroke-width:1;"/><line style="stroke:#E7E7E7;stroke-width:1;" x1="238.2608" x2="243.2284" y1="137.7984" y2="144.0692"/><line style="stroke:#E7E7E7;stroke-width:1;" x1="235.9093" x2="240.8769" y1="139.6613" y2="145.9321"/><line style="stroke:#E7E7E7;stroke-width:1;" x1="237.6092" x2="243.88" y1="143.4176" y2="138.45"/><line style="stroke:#E7E7E7;stroke-width:1;" x1="109.2969" x2="115.3896" y1="509.6905" y2="517.6202"/><line style="stroke:#E7E7E7;stroke-width:1;" x1="109.2969" x2="103.3904" y1="509.6905" y2="517.7598"/><line style="stroke:#E7E7E7;stroke-width:1;" x1="109.2969" x2="109.39" y1="509.6905" y2="517.69"/><ellipse cx="109.2271" cy="503.6909" fill="none" rx="4" ry="4" style="stroke:#E7E7E7;stroke-width:1;"/><text fill="#FFFFFF" font-family="sans-serif" font-size="13" lengthAdjust="spacing" textLength="66.7329" x="169.54" y="335.9769">purchases</text></g><!--link Events to Registrations--><g id="link_Events_Registrations"><path codeLine="71" d="M436.6021,442.2877 C465.0621,475.5377 478.6951,491.4654 503.5351,520.4854 " fill="none" id="Events-Registrations" style="stroke:#E7E7E7;stroke-width:1;"/><line style="stroke:#E7E7E7;stroke-width:1;" x1="430.9622" x2="437.0399" y1="441.8499" y2="436.6478"/><line style="stroke:#E7E7E7;stroke-width:1;" x1="432.913" x2="438.9907" y1="444.129" y2="438.9269"/><line style="stroke:#E7E7E7;stroke-width:1;" x1="436.6021" x2="431.4" y1="442.2877" y2="436.21"/><line style="stroke:#E7E7E7;stroke-width:1;" x1="510.0378" x2="519.7982" y1="528.0824" y2="530.2584"/><line style="stroke:#E7E7E7;stroke-width:1;" x1="510.0378" x2="510.6818" y1="528.0824" y2="538.0616"/><line style="stroke:#E7E7E7;stroke-width:1;" x1="510.0378" x2="515.24" y1="528.0824" y2="534.16"/><ellipse cx="506.1362" cy="523.5242" fill="none" rx="4" ry="4" style="stroke:#E7E7E7;stroke-width:1;"/><text fill="#FFFFFF" font-family="sans-serif" font-size="13" lengthAdjust="spacing" textLength="22.9785" x="475.54" y="484.1169">has</text></g><!--link Users to Registrations--><g id="link_Users_Registrations"><path codeLine="72" d="M397.5076,151.4863 C404.8276,161.4463 407.52,165.15 414.54,174.78 C429.74,195.61 436.95,198.76 448.54,221.78 C501.08,326.09 532.2881,441.042 549.7381,516.572 " fill="none" id="Users-Registrations" style="stroke:#E7E7E7;stroke-width:1;"/><line style="stroke:#E7E7E7;stroke-width:1;" x1="391.9157" x2="398.362" y1="150.632" y2="145.8943"/><line style="stroke:#E7E7E7;stroke-width:1;" x1="393.6923" x2="400.1386" y1="153.0493" y2="148.3117"/><line style="stroke:#E7E7E7;stroke-width:1;" x1="397.5076" x2="392.77" y1="151.4863" y2="145.04"/><line style="stroke:#E7E7E7;stroke-width:1;" x1="551.9892" x2="559.636" y1="526.3153" y2="532.7594"/><line style="stroke:#E7E7E7;stroke-width:1;" x1="551.9892" x2="547.944" y1="526.3153" y2="535.4606"/><line style="stroke:#E7E7E7;stroke-width:1;" x1="551.9892" x2="553.79" y1="526.3153" y2="534.11"/><ellipse cx="550.6385" cy="520.4693" fill="none" rx="4" ry="4" style="stroke:#E7E7E7;stroke-width:1;"/><text fill="#FFFFFF" font-family="sans-serif" font-size="13" lengthAdjust="spacing" textLength="57.1924" x="530.54" y="335.9769">registers</text></g><!--link Tickets to Payments--><g id="link_Tickets_Payments"><path codeLine="73" d="M113.54,680.45 C113.54,704.83 113.54,705.95 113.54,730.87 " fill="none" id="Tickets-Payments" style="stroke:#E7E7E7;stroke-width:1;"/><line style="stroke:#E7E7E7;stroke-width:1;" x1="109.54" x2="117.54" y1="676.45" y2="676.45"/><line style="stroke:#E7E7E7;stroke-width:1;" x1="109.54" x2="117.54" y1="679.45" y2="679.45"/><line style="stroke:#E7E7E7;stroke-width:1;" x1="113.54" x2="113.54" y1="680.45" y2="672.45"/><line style="stroke:#E7E7E7;stroke-width:1;" x1="113.54" x2="119.54" y1="740.87" y2="748.87"/><line style="stroke:#E7E7E7;stroke-width:1;" x1="113.54" x2="107.54" y1="740.87" y2="748.87"/><line style="stroke:#E7E7E7;stroke-width:1;" x1="113.54" x2="113.54" y1="740.87" y2="748.87"/><ellipse cx="113.54" cy="734.87" fill="none" rx="4" ry="4" style="stroke:#E7E7E7;stroke-width:1;"/><text fill="#FFFFFF" font-family="sans-serif" font-size="13" lengthAdjust="spacing" textLength="65.6665" x="114.54" y="715.1969">generates</text></g><!--link Events to VirtualEvents--><g id="link_Events_VirtualEvents"><path codeLine="74" d="M342.54,449.49 C342.54,481.18 342.54,491.63 342.54,519.11 " fill="none" id="Events-VirtualEvents" style="stroke:#E7E7E7;stroke-width:1;"/><line style="stroke:#E7E7E7;stroke-width:1;" x1="338.54" x2="346.54" y1="445.49" y2="445.49"/><line style="stroke:#E7E7E7;stroke-width:1;" x1="338.54" x2="346.54" y1="448.49" y2="448.49"/><line style="stroke:#E7E7E7;stroke-width:1;" x1="342.54" x2="342.54" y1="449.49" y2="441.49"/><line style="stroke:#E7E7E7;stroke-width:1;" x1="342.54" x2="342.54" y1="523.11" y2="534.11"/><ellipse cx="342.54" cy="523.11" fill="none" rx="4" ry="4" style="stroke:#E7E7E7;stroke-width:1;"/><line style="stroke:#E7E7E7;stroke-width:1;" x1="346.54" x2="338.54" y1="530.11" y2="530.11"/><text fill="#FFFFFF" font-family="sans-serif" font-size="13" lengthAdjust="spacing" textLength="52.0508" x="343.54" y="484.1169">extends</text></g><!--SRC=[hLJ1Rfj04Btp5Hlr4akDSaUM9PIGnb8THIwEUaFhPOnNWLsqEwIcSV-zOnOImDZkeToOztRcpPlPlKfW8nKmvEiChdSJ9Z9kBTknwPHTHr-_F3m4z4tOREPTDTJ2o9oRAdw5wd1WkfxjfhVhJtoZ3SXKVU3oWCkPvsrb0Ym7tEh4kX-BO41ZLO3rF2TXPS7O2Nlt67tTKYK1iKmcFbkjvlSr33cNcSzUWkNTOx1q9qZzBssIUCljjWzjoYoB5S-X7pOweqZuj5hKly80HqXYZZwBvelmHnGidhq_hRpm3HIEweC3CX3OjKARb2lv-wW9b9WD92LWXP45Igr8HFWpggCMkS4u8NLTPRKFAXcDPrfmbwIRNV222ucLp-PFKVWjT54d_p2AZXbK4alxx-v4Khp2k3rOGsVykUJVoFoRd4vqRmkC51Iw3-_cY-3xU2j5QGGj2Hmvzz7D4b9fqTGMZlPaEeJ_szcHMbUARij9xvzvbP_QpS9XPpHS7C-8I9xhKk4bcvlIxjxtnqJMASj5OzzWIyzlseiqMFBiz7LySuJualbZU95n94xULvG3e5HfN9h1cyE506jZePFE6fBI-YbZ-_tDZNvdJYdpMViEMAy9DOJcxX13Q8LSAjjFy8ctcplCqDjNuX6dds98Q9VAUctoXjZk4d5IK40d1iNsh3S0ui4EwHcoVm40]--></g></svg>