<svg xmlns="http://www.w3.org/2000/svg" xmlns:xlink="http://www.w3.org/1999/xlink" contentStyleType="text/css" height="507px" preserveAspectRatio="none" style="width:2273px;height:507px;background:#1B1B1B;" version="1.1" viewBox="0 0 2273 507" width="2273px" zoomAndPan="magnify"><defs/><g><rect fill="#1B1B1B" height="507" style="stroke:none;stroke-width:1;" width="2273" x="0" y="0"/><!--cluster Eventify--><g id="cluster_Eventify"><rect fill="none" height="429.19" rx="2.5" ry="2.5" style="stroke:#FFFFFF;stroke-width:1.5;" width="1730" x="7" y="7"/><text fill="#FFFFFF" font-family="sans-serif" font-size="14" font-weight="bold" lengthAdjust="spacing" textLength="64.8594" x="839.5703" y="21.9951">Eventify</text></g><!--cluster Presentation Layer--><g id="cluster_Presentation Layer"><rect fill="none" height="362.19" rx="2.5" ry="2.5" style="stroke:#FFFFFF;stroke-width:1.5;" width="752" x="31" y="50"/><text fill="#FFFFFF" font-family="sans-serif" font-size="14" font-weight="bold" lengthAdjust="spacing" textLength="150.4385" x="331.7808" y="64.9951">Presentation Layer</text></g><!--cluster UI Components--><g id="cluster_UI Components"><rect fill="none" height="119.6" rx="2.5" ry="2.5" style="stroke:#FFFFFF;stroke-width:1.5;" width="350" x="63" y="101"/><text fill="#FFFFFF" font-family="sans-serif" font-size="14" font-weight="bold" lengthAdjust="spacing" textLength="120.0254" x="177.9873" y="115.9951">UI Components</text></g><!--cluster State Management--><g id="cluster_State Management"><rect fill="none" height="119.59" rx="2.5" ry="2.5" style="stroke:#FFFFFF;stroke-width:1.5;" width="372" x="221" y="260.6"/><text fill="#FFFFFF" font-family="sans-serif" font-size="14" font-weight="bold" lengthAdjust="spacing" textLength="150.3359" x="331.832" y="275.5951">State Management</text></g><!--cluster Services--><g id="cluster_Services"><rect fill="none" height="103.6" rx="2.5" ry="2.5" style="stroke:#FFFFFF;stroke-width:1.5;" width="314" x="445" y="109"/><text fill="#FFFFFF" font-family="sans-serif" font-size="14" font-weight="bold" lengthAdjust="spacing" textLength="66.5342" x="568.7329" y="123.9951">Services</text></g><!--cluster Core--><g id="cluster_Core"><rect fill="none" height="362.19" rx="2.5" ry="2.5" style="stroke:#FFFFFF;stroke-width:1.5;" width="906" x="807" y="50"/><text fill="#FFFFFF" font-family="sans-serif" font-size="14" font-weight="bold" lengthAdjust="spacing" textLength="36.292" x="1241.854" y="64.9951">Core</text></g><!--cluster Domain--><g id="cluster_Domain"><rect fill="none" height="119.59" rx="2.5" ry="2.5" style="stroke:#FFFFFF;stroke-width:1.5;" width="441" x="839" y="260.6"/><text fill="#FFFFFF" font-family="sans-serif" font-size="14" font-weight="bold" lengthAdjust="spacing" textLength="60.04" x="1029.48" y="275.5951">Domain</text></g><!--cluster Application--><g id="cluster_Application"><rect fill="none" height="119.6" rx="2.5" ry="2.5" style="stroke:#FFFFFF;stroke-width:1.5;" width="381" x="839" y="101"/><text fill="#FFFFFF" font-family="sans-serif" font-size="14" font-weight="bold" lengthAdjust="spacing" textLength="89.2979" x="984.8511" y="115.9951">Application</text></g><!--cluster Infrastructure--><g id="cluster_Infrastructure"><rect fill="none" height="119.6" rx="2.5" ry="2.5" style="stroke:#FFFFFF;stroke-width:1.5;" width="421" x="1260" y="101"/><text fill="#FFFFFF" font-family="sans-serif" font-size="14" font-weight="bold" lengthAdjust="spacing" textLength="110.8721" x="1415.064" y="115.9951">Infrastructure</text></g><!--cluster External Dependencies--><g id="cluster_External Dependencies"><rect fill="none" height="103.59" rx="2.5" ry="2.5" style="stroke:#FFFFFF;stroke-width:1.5;" width="506" x="1761" y="268.6"/><text fill="#FFFFFF" font-family="sans-serif" font-size="14" font-weight="bold" lengthAdjust="spacing" textLength="181.7813" x="1923.1094" y="283.5951">External Dependencies</text></g><rect fill="#313139" height="52.5938" rx="2.5" ry="2.5" style="stroke:#E7E7E7;stroke-width:0.5;" width="67.5576" x="87.22" y="144"/><text fill="#FFFFFF" font-family="sans-serif" font-size="14" font-weight="bold" lengthAdjust="spacing" textLength="47.5576" x="97.22" y="158.9951">Pages</text><rect fill="#313139" height="52.5938" rx="2.5" ry="2.5" style="stroke:#E7E7E7;stroke-width:0.5;" width="75.918" x="190.04" y="144"/><text fill="#FFFFFF" font-family="sans-serif" font-size="14" font-weight="bold" lengthAdjust="spacing" textLength="55.918" x="200.04" y="158.9951">Shared</text><rect fill="#313139" height="52.5938" rx="2.5" ry="2.5" style="stroke:#E7E7E7;stroke-width:0.5;" width="69.0068" x="300.5" y="144"/><text fill="#FFFFFF" font-family="sans-serif" font-size="14" font-weight="bold" lengthAdjust="spacing" textLength="49.0068" x="310.5" y="158.9951">Forms</text><rect fill="#313139" height="52.5938" rx="2.5" ry="2.5" style="stroke:#E7E7E7;stroke-width:0.5;" width="62.793" x="244.6" y="303.6"/><text fill="#FFFFFF" font-family="sans-serif" font-size="14" font-weight="bold" lengthAdjust="spacing" textLength="42.793" x="254.6" y="318.5951">Store</text><rect fill="#313139" height="52.5938" rx="2.5" ry="2.5" style="stroke:#E7E7E7;stroke-width:0.5;" width="78.543" x="342.73" y="303.6"/><text fill="#FFFFFF" font-family="sans-serif" font-size="14" font-weight="bold" lengthAdjust="spacing" textLength="58.543" x="352.73" y="318.5951">Actions</text><rect fill="#313139" height="52.5938" rx="2.5" ry="2.5" style="stroke:#E7E7E7;stroke-width:0.5;" width="93.2949" x="456.35" y="303.6"/><text fill="#FFFFFF" font-family="sans-serif" font-size="14" font-weight="bold" lengthAdjust="spacing" textLength="73.2949" x="466.35" y="318.5951">Reducers</text><rect fill="#313139" height="52.5938" rx="2.5" ry="2.5" style="stroke:#E7E7E7;stroke-width:0.5;" width="46.3047" x="460.85" y="144"/><text fill="#FFFFFF" font-family="sans-serif" font-size="14" font-weight="bold" lengthAdjust="spacing" textLength="26.3047" x="470.85" y="158.9951">API</text><rect fill="#313139" height="52.5938" rx="2.5" ry="2.5" style="stroke:#E7E7E7;stroke-width:0.5;" width="108.457" x="541.77" y="144"/><text fill="#FFFFFF" font-family="sans-serif" font-size="14" font-weight="bold" lengthAdjust="spacing" textLength="88.457" x="551.77" y="158.9951">WebSocket</text><rect fill="#313139" height="52.5938" rx="2.5" ry="2.5" style="stroke:#E7E7E7;stroke-width:0.5;" width="57.4609" x="685.27" y="144"/><text fill="#FFFFFF" font-family="sans-serif" font-size="14" font-weight="bold" lengthAdjust="spacing" textLength="37.4609" x="695.27" y="158.9951">Auth</text><rect fill="#313139" height="52.5938" rx="2.5" ry="2.5" style="stroke:#E7E7E7;stroke-width:0.5;" width="80.3408" x="862.83" y="303.6"/><text fill="#FFFFFF" font-family="sans-serif" font-size="14" font-weight="bold" lengthAdjust="spacing" textLength="60.3408" x="872.83" y="318.5951">Entities</text><rect fill="#313139" height="52.5938" rx="2.5" ry="2.5" style="stroke:#E7E7E7;stroke-width:0.5;" width="124.084" x="977.96" y="303.6"/><text fill="#FFFFFF" font-family="sans-serif" font-size="14" font-weight="bold" lengthAdjust="spacing" textLength="104.084" x="987.96" y="318.5951">ValueObjects</text><rect fill="#313139" height="52.5938" rx="2.5" ry="2.5" style="stroke:#E7E7E7;stroke-width:0.5;" width="99.9326" x="1137.03" y="303.6"/><text fill="#FFFFFF" font-family="sans-serif" font-size="14" font-weight="bold" lengthAdjust="spacing" textLength="79.9326" x="1147.03" y="318.5951">Interfaces</text><rect fill="#313139" height="52.5938" rx="2.5" ry="2.5" style="stroke:#E7E7E7;stroke-width:0.5;" width="95.0791" x="863.46" y="144"/><text fill="#FFFFFF" font-family="sans-serif" font-size="14" font-weight="bold" lengthAdjust="spacing" textLength="75.0791" x="873.46" y="158.9951">UseCases</text><rect fill="#313139" height="52.5938" rx="2.5" ry="2.5" style="stroke:#E7E7E7;stroke-width:0.5;" width="86.5342" x="993.73" y="144"/><text fill="#FFFFFF" font-family="sans-serif" font-size="14" font-weight="bold" lengthAdjust="spacing" textLength="66.5342" x="1003.73" y="158.9951">Services</text><rect fill="#313139" height="52.5938" rx="2.5" ry="2.5" style="stroke:#E7E7E7;stroke-width:0.5;" width="61.4053" x="1115.3" y="144"/><text fill="#FFFFFF" font-family="sans-serif" font-size="14" font-weight="bold" lengthAdjust="spacing" textLength="41.4053" x="1125.3" y="158.9951">DTOs</text><rect fill="#313139" height="52.5938" rx="2.5" ry="2.5" style="stroke:#E7E7E7;stroke-width:0.5;" width="112.0732" x="1283.96" y="144"/><text fill="#FFFFFF" font-family="sans-serif" font-size="14" font-weight="bold" lengthAdjust="spacing" textLength="92.0732" x="1293.96" y="158.9951">Persistence</text><rect fill="#313139" height="52.5938" rx="2.5" ry="2.5" style="stroke:#E7E7E7;stroke-width:0.5;" width="85.8984" x="1431.05" y="144"/><text fill="#FFFFFF" font-family="sans-serif" font-size="14" font-weight="bold" lengthAdjust="spacing" textLength="65.8984" x="1441.05" y="158.9951">External</text><rect fill="#313139" height="52.5938" rx="2.5" ry="2.5" style="stroke:#E7E7E7;stroke-width:0.5;" width="85.3652" x="1552.32" y="144"/><text fill="#FFFFFF" font-family="sans-serif" font-size="14" font-weight="bold" lengthAdjust="spacing" textLength="65.3652" x="1562.32" y="158.9951">Security</text><rect fill="#313139" height="52.5938" rx="2.5" ry="2.5" style="stroke:#E7E7E7;stroke-width:0.5;" width="64.7139" x="1776.64" y="303.6"/><text fill="#FFFFFF" font-family="sans-serif" font-size="14" font-weight="bold" lengthAdjust="spacing" textLength="44.7139" x="1786.64" y="318.5951">React</text><rect fill="#313139" height="52.5938" rx="2.5" ry="2.5" style="stroke:#E7E7E7;stroke-width:0.5;" width="81.6807" x="2169.16" y="303.6"/><text fill="#FFFFFF" font-family="sans-serif" font-size="14" font-weight="bold" lengthAdjust="spacing" textLength="61.6807" x="2179.16" y="318.5951">Express</text><rect fill="#313139" height="52.5938" rx="2.5" ry="2.5" style="stroke:#E7E7E7;stroke-width:0.5;" width="74.332" x="1876.83" y="303.6"/><text fill="#FFFFFF" font-family="sans-serif" font-size="14" font-weight="bold" lengthAdjust="spacing" textLength="54.332" x="1886.83" y="318.5951">Prisma</text><rect fill="#313139" height="52.5938" rx="2.5" ry="2.5" style="stroke:#E7E7E7;stroke-width:0.5;" width="148.0576" x="1985.97" y="303.6"/><text fill="#FFFFFF" font-family="sans-serif" font-size="14" font-weight="bold" lengthAdjust="spacing" textLength="128.0576" x="1995.97" y="318.5951">Third Party APIs</text><!--class Services--><g id="elem_Services"><rect fill="#313139" height="48" id="Services" rx="2.5" ry="2.5" style="stroke:#E7E7E7;stroke-width:0.5;" width="91.0352" x="909.48" y="452.19"/><ellipse cx="924.48" cy="468.19" fill="#2E5233" rx="11" ry="11" style="stroke:#E7E7E7;stroke-width:1;"/><path d="M927.4488,473.8306 Q926.8706,474.1275 926.23,474.2681 Q925.5894,474.4244 924.8863,474.4244 Q922.3863,474.4244 921.0581,472.7838 Q919.7456,471.1275 919.7456,468.0025 Q919.7456,464.8775 921.0581,463.2213 Q922.3863,461.565 924.8863,461.565 Q925.5894,461.565 926.23,461.7213 Q926.8863,461.8775 927.4488,462.1744 L927.4488,464.8931 Q926.8238,464.315 926.23,464.0494 Q925.6363,463.7681 925.0113,463.7681 Q923.6675,463.7681 922.98,464.8463 Q922.2925,465.9088 922.2925,468.0025 Q922.2925,470.0963 922.98,471.1744 Q923.6675,472.2369 925.0113,472.2369 Q925.6363,472.2369 926.23,471.9713 Q926.8238,471.69 927.4488,471.1119 L927.4488,473.8306 Z " fill="#FFFFFF"/><text fill="#FFFFFF" font-family="sans-serif" font-size="14" lengthAdjust="spacing" textLength="59.0352" x="938.48" y="473.0367">Services</text><line style="stroke:#E7E7E7;stroke-width:0.5;" x1="910.48" x2="999.5152" y1="484.19" y2="484.19"/><line style="stroke:#E7E7E7;stroke-width:0.5;" x1="910.48" x2="999.5152" y1="492.19" y2="492.19"/></g><!--link UI Components to State Management--><g id="link_UI Components_State Management"><path codeLine="53" d="M413.1143,195.1619 C413.1596,195.2669 413.2051,195.372 413.2508,195.4772 C413.3422,195.6878 413.4344,195.8989 413.5274,196.1106 C413.8995,196.9574 414.2849,197.8134 414.6838,198.6763 C421.065,212.4825 430.89,228.07 445,236.6 C468.06,250.53 545.52,227.08 566,244.6 C569.5913,247.6713 572.5864,251.263 575.0778,255.2006 C575.7006,256.185 576.292,257.191 576.8533,258.2159 C577.134,258.7283 577.4071,259.2455 577.6729,259.7671 C577.8059,260.0279 575.2897,254.9053 575.419,255.1682 " fill="none" id="UI Components-to-State Management" style="stroke:#E7E7E7;stroke-width:1;stroke-dasharray:7.0,7.0;"/><polygon fill="#E7E7E7" points="578.0662,260.5527,577.685,250.7112,575.8602,256.0656,570.5057,254.2408,578.0662,260.5527" style="stroke:#E7E7E7;stroke-width:1;"/></g><!--link State Management to Services--><g id="link_State Management_Services"><path codeLine="54" d="M593.2049,334.9031 C593.3482,334.9728 593.4933,335.0432 593.6402,335.1145 C593.9338,335.2572 594.2345,335.4031 594.5421,335.5523 C595.1572,335.8507 595.8001,336.1622 596.47,336.4864 C597.8099,337.1349 599.2581,337.8344 600.8098,338.582 C603.9133,340.0772 607.4308,341.7648 611.3238,343.622 C626.8956,351.0509 648.475,361.1931 673.5925,372.5837 C723.8275,395.365 788.215,423.14 847,444.19 C867.11,451.39 883.9954,456.5066 903.3454,461.8366 " fill="none" id="State Management-to-Services" style="stroke:#E7E7E7;stroke-width:1;stroke-dasharray:7.0,7.0;"/><polygon fill="#E7E7E7" points="909.13,463.43,901.5154,457.1836,904.3095,462.1022,899.3909,464.8963,909.13,463.43" style="stroke:#E7E7E7;stroke-width:1;"/></g><!--link Services to Application--><g id="link_Services_Application"><path codeLine="55" d="M1000.8,474.28 C1087.58,472.07 1269.03,465 1288,444.19 C1347.75,378.62 1337.73,318.05 1288,244.6 C1282.63,236.67 1275.79,242.17 1268,236.6 C1252.94,225.82 1239.33,210.1625 1229.2988,196.8813 C1226.7909,193.5609 1224.5068,190.3891 1222.4796,187.4792 C1221.9728,186.7517 1221.482,186.0406 1221.0079,185.3476 C1220.7708,185.0011 1220.5379,184.6592 1220.3091,184.322 C1220.2519,184.2377 1223.5582,189.1225 1223.5016,189.0388 " fill="none" id="Services-to-Application" style="stroke:#E7E7E7;stroke-width:1;stroke-dasharray:7.0,7.0;"/><polygon fill="#E7E7E7" points="1220.1384,184.07,1221.8706,193.7653,1222.941,188.2106,1228.4957,189.281,1220.1384,184.07" style="stroke:#E7E7E7;stroke-width:1;"/></g><!--link Application to Domain--><g id="link_Application_Domain"><path codeLine="56" d="M1220.002,183.0789 C1220.1079,183.2405 1220.2146,183.4036 1220.322,183.5679 C1220.5368,183.8967 1220.7546,184.2309 1220.9752,184.5704 C1221.4164,185.2494 1221.869,185.9497 1222.3317,186.6699 C1224.1827,189.5509 1226.1966,192.7525 1228.2988,196.2 C1236.7075,209.99 1246.53,227.715 1253,244.6 C1254.6638,248.9425 1256.2031,253.4694 1257.6238,258.0723 C1257.8014,258.6476 1257.9772,259.2242 1258.1511,259.8017 C1258.1945,259.9461 1256.5177,254.3424 1256.561,254.4869 " fill="none" id="Application-to-Domain" style="stroke:#E7E7E7;stroke-width:1;stroke-dasharray:7.0,7.0;"/><polygon fill="#E7E7E7" points="1258.2811,260.2351,1259.533,250.4661,1256.8477,255.4449,1251.8688,252.7597,1258.2811,260.2351" style="stroke:#E7E7E7;stroke-width:1;"/></g><!--link Infrastructure to Domain--><g id="link_Infrastructure_Domain"><path codeLine="57" d="M1664.8302,220.7997 C1664.4481,221.6415 1664.0487,222.475 1663.6313,223.2981 C1662.7964,224.9445 1661.8892,226.5498 1660.9036,228.099 C1658.9323,231.1973 1656.6475,234.0713 1654,236.6 C1622.665,266.52 1528.4075,289.4675 1441.37,304.9975 C1397.8513,312.7625 1356.1375,318.6731 1324.9966,322.6738 C1309.4261,324.6741 1296.4988,326.1969 1287.3107,327.2352 C1285.0137,327.4948 1282.9504,327.7241 1281.1379,327.9231 C1280.9113,327.9479 1286.6531,327.3201 1286.4344,327.344 " fill="none" id="Infrastructure-to-Domain" style="stroke:#E7E7E7;stroke-width:1;stroke-dasharray:7.0,7.0;"/><polygon fill="#E7E7E7" points="1280.47,327.9962,1289.8515,330.9941,1285.4404,327.4527,1288.9818,323.0415,1280.47,327.9962" style="stroke:#E7E7E7;stroke-width:1;"/></g><!--link Infrastructure to Third Party APIs--><g id="link_Infrastructure_Third Party APIs"><path codeLine="58" d="M1681.0901,171.83 C1681.2483,171.8416 1681.4087,171.8534 1681.5713,171.8655 C1681.8965,171.8895 1682.2303,171.9145 1682.5726,171.9404 C1688.0497,172.3546 1695.7109,173.0016 1705.12,173.9683 C1723.9381,175.9016 1749.7475,179.1131 1779.0575,184.2963 C1837.6775,194.6625 1910.3,212.915 1969,244.6 C1996.48,259.43 2018.0159,280.0316 2035.0059,298.9916 " fill="none" id="Infrastructure-to-Third Party APIs" style="stroke:#E7E7E7;stroke-width:1;stroke-dasharray:7.0,7.0;"/><polygon fill="#E7E7E7" points="2039.01,303.46,2035.9827,294.0879,2035.6732,299.7363,2030.0248,299.4268,2039.01,303.46" style="stroke:#E7E7E7;stroke-width:1;"/></g><!--link UI Components to React--><g id="link_UI Components_React"><path codeLine="59" d="M413.0773,195.7756 C413.1676,195.9879 413.2589,196.2007 413.3509,196.4141 C413.7192,197.2676 414.1009,198.1299 414.4963,198.9988 C420.8225,212.9 430.655,228.475 445,236.6 C465.38,248.14 1264.67,242.61 1288,244.6 C1474.25,260.46 1688.6293,303.3313 1770.4293,320.5913 " fill="none" id="UI Components-to-React" style="stroke:#E7E7E7;stroke-width:1;stroke-dasharray:7.0,7.0;"/><polygon fill="#E7E7E7" points="1776.3,321.83,1768.3197,316.0581,1771.4077,320.7977,1766.6681,323.8857,1776.3,321.83" style="stroke:#E7E7E7;stroke-width:1;"/></g><!--link Infrastructure to Express--><g id="link_Infrastructure_Express"><path codeLine="60" d="M1681.0439,171.6639 C1681.9925,171.7093 1683.0203,171.7591 1684.1248,171.8134 C1686.3336,171.9219 1688.849,172.0483 1691.6503,172.1933 C1702.8558,172.7736 1718.6382,173.6521 1737.692,174.8767 C1775.7997,177.3259 1826.9931,181.1594 1880.8288,186.7588 C1988.5,197.9575 2106.74,216.22 2152,244.6 C2173.97,258.37 2187.1069,278.4636 2196.6069,297.8236 " fill="none" id="Infrastructure-to-Express" style="stroke:#E7E7E7;stroke-width:1;stroke-dasharray:7.0,7.0;"/><polygon fill="#E7E7E7" points="2199.25,303.21,2198.8763,293.3682,2197.0474,298.7213,2191.6943,296.8924,2199.25,303.21" style="stroke:#E7E7E7;stroke-width:1;"/></g><!--link Infrastructure to Prisma--><g id="link_Infrastructure_Prisma"><path codeLine="61" d="M1681.1134,172.665 C1681.2398,172.6879 1681.3675,172.7111 1681.4965,172.7346 C1681.7546,172.7817 1682.0181,172.8299 1682.2868,172.8794 C1683.3617,173.0774 1684.5208,173.2952 1685.7595,173.5333 C1688.2369,174.0095 1691.0324,174.5671 1694.1073,175.2114 C1706.4072,177.7884 1723.1794,181.7506 1741.9588,187.4237 C1779.5175,198.77 1825.105,216.96 1859,244.6 C1878.37,260.39 1890.5501,279.4868 1899.9201,297.9968 " fill="none" id="Infrastructure-to-Prisma" style="stroke:#E7E7E7;stroke-width:1;stroke-dasharray:7.0,7.0;"/><polygon fill="#E7E7E7" points="1902.63,303.35,1902.134,293.5136,1900.3718,298.889,1894.9964,297.1268,1902.63,303.35" style="stroke:#E7E7E7;stroke-width:1;"/></g><!--SRC=[ZLJ1Ze8m4BttAnelU_CJDZ7g9YIxaIowUnxBg5sXa6anIpR- -uw22a9H3YJqlNPUtxp1xhN9WI2LEQWzR35oPOAIK3amsmI5gDVbQ7v0u_Ic7Ca_8Vcv0Y6XPGYSpenyXnBfGcdHLe6SPccU6URQ9gDz6BzFwB4VZdP06FlnjupIzlQZw4g9M2pA3p3ybR8Shvh8POJ-QXDrklE0t4-C2uNqX2AaWrRezsKI1luotxYEChL7Do2rSBix5GqjLzgqkczNu2nBGHkll3b7m-cXpdr1Kk1Y_SF96c05nY5jGE5ZooPvdcXrJfrNrihY5EnWe6x6UnYpvUAncC1i2AoZGhcYxM0xtPm5RHqQDP2g-IzxO20P4gqAqgxiRUYnERFrKNA6EPgOw-fRnXef1NMBJcDppfDjkq18sgRGNL_kDCKo17AbvBnMErdEIwkykFyJZCUlFICfUgQqObuw9XhDEoFDH8XsFivudM7HwTOJQETk_TUehFISSJ7K0zUs_WC0]--></g></svg>