<svg xmlns="http://www.w3.org/2000/svg" xmlns:xlink="http://www.w3.org/1999/xlink" contentStyleType="text/css" height="877px" preserveAspectRatio="none" style="width:1092px;height:877px;background:#1B1B1B;" version="1.1" viewBox="0 0 1092 877" width="1092px" zoomAndPan="magnify"><title>Event Registration Process</title><defs/><g><rect fill="#1B1B1B" height="877" style="stroke:none;stroke-width:1;" width="1092" x="0" y="0"/><text fill="#FFFFFF" font-family="sans-serif" font-size="14" font-weight="bold" lengthAdjust="spacing" textLength="213.3838" x="440.5095" y="27.9951">Event Registration Process</text><rect fill="none" height="323.2656" style="stroke:#FFFFFF;stroke-width:1.5;" width="1075.4028" x="10" y="456.0547"/><line style="stroke:#E7E7E7;stroke-width:0.5;stroke-dasharray:5.0,5.0;" x1="55" x2="55" y1="118.5938" y2="796.3203"/><line style="stroke:#E7E7E7;stroke-width:0.5;stroke-dasharray:5.0,5.0;" x1="288.2305" x2="288.2305" y1="118.5938" y2="796.3203"/><line style="stroke:#E7E7E7;stroke-width:0.5;stroke-dasharray:5.0,5.0;" x1="494.9697" x2="494.9697" y1="118.5938" y2="796.3203"/><line style="stroke:#E7E7E7;stroke-width:0.5;stroke-dasharray:5.0,5.0;" x1="676.1597" x2="676.1597" y1="118.5938" y2="796.3203"/><line style="stroke:#E7E7E7;stroke-width:0.5;stroke-dasharray:5.0,5.0;" x1="807.4575" x2="807.4575" y1="118.5938" y2="796.3203"/><line style="stroke:#E7E7E7;stroke-width:0.5;stroke-dasharray:5.0,5.0;" x1="937.5688" x2="937.5688" y1="118.5938" y2="796.3203"/><line style="stroke:#E7E7E7;stroke-width:0.5;stroke-dasharray:5.0,5.0;" x1="1038.6021" x2="1038.6021" y1="118.5938" y2="796.3203"/><text fill="#FFFFFF" font-family="sans-serif" font-size="14" lengthAdjust="spacing" textLength="64.1553" x="20" y="115.292">Attendee</text><ellipse cx="55.0776" cy="50.7969" fill="#222222" rx="8" ry="8" style="stroke:#E7E7E7;stroke-width:0.5;"/><path d="M55.0776,58.7969 L55.0776,85.7969 M42.0776,66.7969 L68.0776,66.7969 M55.0776,85.7969 L42.0776,100.7969 M55.0776,85.7969 L68.0776,100.7969 " fill="none" style="stroke:#E7E7E7;stroke-width:0.5;"/><text fill="#FFFFFF" font-family="sans-serif" font-size="14" lengthAdjust="spacing" textLength="64.1553" x="20" y="808.3154">Attendee</text><ellipse cx="55.0776" cy="820.1172" fill="#222222" rx="8" ry="8" style="stroke:#E7E7E7;stroke-width:0.5;"/><path d="M55.0776,828.1172 L55.0776,855.1172 M42.0776,836.1172 L68.0776,836.1172 M55.0776,855.1172 L42.0776,870.1172 M55.0776,855.1172 L68.0776,870.1172 " fill="none" style="stroke:#E7E7E7;stroke-width:0.5;"/><rect fill="#222222" height="30.2969" rx="2.5" ry="2.5" style="stroke:#E7E7E7;stroke-width:0.5;" width="77.1094" x="250.2305" y="87.2969"/><text fill="#FFFFFF" font-family="sans-serif" font-size="14" lengthAdjust="spacing" textLength="63.1094" x="257.2305" y="107.292">Frontend</text><rect fill="#222222" height="30.2969" rx="2.5" ry="2.5" style="stroke:#E7E7E7;stroke-width:0.5;" width="77.1094" x="250.2305" y="795.3203"/><text fill="#FFFFFF" font-family="sans-serif" font-size="14" lengthAdjust="spacing" textLength="63.1094" x="257.2305" y="815.3154">Frontend</text><rect fill="#222222" height="30.2969" rx="2.5" ry="2.5" style="stroke:#E7E7E7;stroke-width:0.5;" width="102.4434" x="443.9697" y="87.2969"/><text fill="#FFFFFF" font-family="sans-serif" font-size="14" lengthAdjust="spacing" textLength="88.4434" x="450.9697" y="107.292">API Gateway</text><rect fill="#222222" height="30.2969" rx="2.5" ry="2.5" style="stroke:#E7E7E7;stroke-width:0.5;" width="102.4434" x="443.9697" y="795.3203"/><text fill="#FFFFFF" font-family="sans-serif" font-size="14" lengthAdjust="spacing" textLength="88.4434" x="450.9697" y="815.3154">API Gateway</text><rect fill="#222222" height="30.2969" rx="2.5" ry="2.5" style="stroke:#E7E7E7;stroke-width:0.5;" width="110.2979" x="621.1597" y="87.2969"/><text fill="#FFFFFF" font-family="sans-serif" font-size="14" lengthAdjust="spacing" textLength="96.2979" x="628.1597" y="107.292">Event Service</text><rect fill="#222222" height="30.2969" rx="2.5" ry="2.5" style="stroke:#E7E7E7;stroke-width:0.5;" width="110.2979" x="621.1597" y="795.3203"/><text fill="#FFFFFF" font-family="sans-serif" font-size="14" lengthAdjust="spacing" textLength="96.2979" x="628.1597" y="815.3154">Event Service</text><rect fill="#222222" height="30.2969" rx="2.5" ry="2.5" style="stroke:#E7E7E7;stroke-width:0.5;" width="132.1113" x="741.4575" y="87.2969"/><text fill="#FFFFFF" font-family="sans-serif" font-size="14" lengthAdjust="spacing" textLength="118.1113" x="748.4575" y="107.292">Payment Service</text><rect fill="#222222" height="30.2969" rx="2.5" ry="2.5" style="stroke:#E7E7E7;stroke-width:0.5;" width="132.1113" x="741.4575" y="795.3203"/><text fill="#FFFFFF" font-family="sans-serif" font-size="14" lengthAdjust="spacing" textLength="118.1113" x="748.4575" y="815.3154">Payment Service</text><rect fill="#222222" height="30.2969" rx="2.5" ry="2.5" style="stroke:#E7E7E7;stroke-width:0.5;" width="109.0332" x="883.5688" y="87.2969"/><text fill="#FFFFFF" font-family="sans-serif" font-size="14" lengthAdjust="spacing" textLength="95.0332" x="890.5688" y="107.292">Email Service</text><rect fill="#222222" height="30.2969" rx="2.5" ry="2.5" style="stroke:#E7E7E7;stroke-width:0.5;" width="109.0332" x="883.5688" y="795.3203"/><text fill="#FFFFFF" font-family="sans-serif" font-size="14" lengthAdjust="spacing" textLength="95.0332" x="890.5688" y="815.3154">Email Service</text><text fill="#FFFFFF" font-family="sans-serif" font-size="14" lengthAdjust="spacing" textLength="66.8008" x="1002.6021" y="115.292">Database</text><path d="M1021.0024,66.2969 C1021.0024,56.2969 1039.0024,56.2969 1039.0024,56.2969 C1039.0024,56.2969 1057.0024,56.2969 1057.0024,66.2969 L1057.0024,92.2969 C1057.0024,102.2969 1039.0024,102.2969 1039.0024,102.2969 C1039.0024,102.2969 1021.0024,102.2969 1021.0024,92.2969 L1021.0024,66.2969 " fill="#222222" style="stroke:#E7E7E7;stroke-width:1.5;"/><path d="M1021.0024,66.2969 C1021.0024,76.2969 1039.0024,76.2969 1039.0024,76.2969 C1039.0024,76.2969 1057.0024,76.2969 1057.0024,66.2969 " fill="none" style="stroke:#E7E7E7;stroke-width:1.5;"/><text fill="#FFFFFF" font-family="sans-serif" font-size="14" lengthAdjust="spacing" textLength="66.8008" x="1002.6021" y="808.3154">Database</text><path d="M1021.0024,821.6172 C1021.0024,811.6172 1039.0024,811.6172 1039.0024,811.6172 C1039.0024,811.6172 1057.0024,811.6172 1057.0024,821.6172 L1057.0024,847.6172 C1057.0024,857.6172 1039.0024,857.6172 1039.0024,857.6172 C1039.0024,857.6172 1021.0024,857.6172 1021.0024,847.6172 L1021.0024,821.6172 " fill="#222222" style="stroke:#E7E7E7;stroke-width:1.5;"/><path d="M1021.0024,821.6172 C1021.0024,831.6172 1039.0024,831.6172 1039.0024,831.6172 C1039.0024,831.6172 1057.0024,831.6172 1057.0024,821.6172 " fill="none" style="stroke:#E7E7E7;stroke-width:1.5;"/><polygon fill="#E7E7E7" points="276.7852,145.7266,286.7852,149.7266,276.7852,153.7266,280.7852,149.7266" style="stroke:#E7E7E7;stroke-width:1;"/><line style="stroke:#E7E7E7;stroke-width:1;" x1="55.0776" x2="282.7852" y1="149.7266" y2="149.7266"/><text fill="#FFFFFF" font-family="sans-serif" font-size="13" lengthAdjust="spacing" textLength="164.5566" x="62.0776" y="144.6606">Click "Register for Event"</text><polygon fill="#E7E7E7" points="483.1914,174.8594,493.1914,178.8594,483.1914,182.8594,487.1914,178.8594" style="stroke:#E7E7E7;stroke-width:1;"/><line style="stroke:#E7E7E7;stroke-width:1;" x1="288.7852" x2="489.1914" y1="178.8594" y2="178.8594"/><text fill="#FFFFFF" font-family="sans-serif" font-size="13" lengthAdjust="spacing" textLength="174.6431" x="295.7852" y="173.7935">POST /registration/validate</text><polygon fill="#E7E7E7" points="664.3086,203.9922,674.3086,207.9922,664.3086,211.9922,668.3086,207.9922" style="stroke:#E7E7E7;stroke-width:1;"/><line style="stroke:#E7E7E7;stroke-width:1;" x1="495.1914" x2="670.3086" y1="207.9922" y2="207.9922"/><text fill="#FFFFFF" font-family="sans-serif" font-size="13" lengthAdjust="spacing" textLength="157.1172" x="502.1914" y="202.9263">Check Event Availability</text><polygon fill="#E7E7E7" points="1027.0024,233.125,1037.0024,237.125,1027.0024,241.125,1031.0024,237.125" style="stroke:#E7E7E7;stroke-width:1;"/><line style="stroke:#E7E7E7;stroke-width:1;" x1="676.3086" x2="1033.0024" y1="237.125" y2="237.125"/><text fill="#FFFFFF" font-family="sans-serif" font-size="13" lengthAdjust="spacing" textLength="153.4736" x="683.3086" y="232.0591">Query Available Tickets</text><polygon fill="#E7E7E7" points="687.3086,262.2578,677.3086,266.2578,687.3086,270.2578,683.3086,266.2578" style="stroke:#E7E7E7;stroke-width:1;"/><line style="stroke:#E7E7E7;stroke-width:1;stroke-dasharray:2.0,2.0;" x1="681.3086" x2="1038.0024" y1="266.2578" y2="266.2578"/><text fill="#FFFFFF" font-family="sans-serif" font-size="13" lengthAdjust="spacing" textLength="132.9644" x="693.3086" y="261.1919">Return Ticket Status</text><polygon fill="#E7E7E7" points="506.1914,291.3906,496.1914,295.3906,506.1914,299.3906,502.1914,295.3906" style="stroke:#E7E7E7;stroke-width:1;"/><line style="stroke:#E7E7E7;stroke-width:1;stroke-dasharray:2.0,2.0;" x1="500.1914" x2="675.3086" y1="295.3906" y2="295.3906"/><text fill="#FFFFFF" font-family="sans-serif" font-size="13" lengthAdjust="spacing" textLength="117.1777" x="512.1914" y="290.3247">Availability Status</text><polygon fill="#E7E7E7" points="299.7852,320.5234,289.7852,324.5234,299.7852,328.5234,295.7852,324.5234" style="stroke:#E7E7E7;stroke-width:1;"/><line style="stroke:#E7E7E7;stroke-width:1;stroke-dasharray:2.0,2.0;" x1="293.7852" x2="494.1914" y1="324.5234" y2="324.5234"/><text fill="#FFFFFF" font-family="sans-serif" font-size="13" lengthAdjust="spacing" textLength="132.8247" x="305.7852" y="319.4575">Show Ticket Options</text><polygon fill="#E7E7E7" points="276.7852,349.6563,286.7852,353.6563,276.7852,357.6563,280.7852,353.6563" style="stroke:#E7E7E7;stroke-width:1;"/><line style="stroke:#E7E7E7;stroke-width:1;" x1="55.0776" x2="282.7852" y1="353.6563" y2="353.6563"/><text fill="#FFFFFF" font-family="sans-serif" font-size="13" lengthAdjust="spacing" textLength="209.7075" x="62.0776" y="348.5903">Select Ticket &amp; Submit Payment</text><polygon fill="#E7E7E7" points="483.1914,378.7891,493.1914,382.7891,483.1914,386.7891,487.1914,382.7891" style="stroke:#E7E7E7;stroke-width:1;"/><line style="stroke:#E7E7E7;stroke-width:1;" x1="288.7852" x2="489.1914" y1="382.7891" y2="382.7891"/><text fill="#FFFFFF" font-family="sans-serif" font-size="13" lengthAdjust="spacing" textLength="182.4063" x="295.7852" y="377.7231">POST /registration/purchase</text><polygon fill="#E7E7E7" points="795.5132,407.9219,805.5132,411.9219,795.5132,415.9219,799.5132,411.9219" style="stroke:#E7E7E7;stroke-width:1;"/><line style="stroke:#E7E7E7;stroke-width:1;" x1="495.1914" x2="801.5132" y1="411.9219" y2="411.9219"/><text fill="#FFFFFF" font-family="sans-serif" font-size="13" lengthAdjust="spacing" textLength="111.4585" x="502.1914" y="406.856">Process Payment</text><polygon fill="#E7E7E7" points="506.1914,437.0547,496.1914,441.0547,506.1914,445.0547,502.1914,441.0547" style="stroke:#E7E7E7;stroke-width:1;"/><line style="stroke:#E7E7E7;stroke-width:1;stroke-dasharray:2.0,2.0;" x1="500.1914" x2="806.5132" y1="441.0547" y2="441.0547"/><text fill="#FFFFFF" font-family="sans-serif" font-size="13" lengthAdjust="spacing" textLength="103.0542" x="512.1914" y="435.9888">Payment Status</text><path d="M10,456.0547 L74.4429,456.0547 L74.4429,463.1875 L64.4429,473.1875 L10,473.1875 L10,456.0547 " fill="#555555" style="stroke:#FFFFFF;stroke-width:1.5;"/><rect fill="none" height="323.2656" style="stroke:#FFFFFF;stroke-width:1.5;" width="1075.4028" x="10" y="456.0547"/><text fill="#FFFFFF" font-family="sans-serif" font-size="13" font-weight="bold" lengthAdjust="spacing" textLength="19.4429" x="25" y="469.1216">alt</text><text fill="#FFFFFF" font-family="sans-serif" font-size="11" font-weight="bold" lengthAdjust="spacing" textLength="134.2881" x="89.4429" y="468.2651">[Payment Successful]</text><polygon fill="#E7E7E7" points="664.3086,490.3203,674.3086,494.3203,664.3086,498.3203,668.3086,494.3203" style="stroke:#E7E7E7;stroke-width:1;"/><line style="stroke:#E7E7E7;stroke-width:1;" x1="495.1914" x2="670.3086" y1="494.3203" y2="494.3203"/><text fill="#FFFFFF" font-family="sans-serif" font-size="13" lengthAdjust="spacing" textLength="126.5913" x="502.1914" y="489.2544">Create Registration</text><polygon fill="#E7E7E7" points="1027.0024,519.4531,1037.0024,523.4531,1027.0024,527.4531,1031.0024,523.4531" style="stroke:#E7E7E7;stroke-width:1;"/><line style="stroke:#E7E7E7;stroke-width:1;" x1="676.3086" x2="1033.0024" y1="523.4531" y2="523.4531"/><text fill="#FFFFFF" font-family="sans-serif" font-size="13" lengthAdjust="spacing" textLength="117.7554" x="683.3086" y="518.3872">Store Registration</text><polygon fill="#E7E7E7" points="687.3086,548.5859,677.3086,552.5859,687.3086,556.5859,683.3086,552.5859" style="stroke:#E7E7E7;stroke-width:1;"/><line style="stroke:#E7E7E7;stroke-width:1;stroke-dasharray:2.0,2.0;" x1="681.3086" x2="1038.0024" y1="552.5859" y2="552.5859"/><text fill="#FFFFFF" font-family="sans-serif" font-size="13" lengthAdjust="spacing" textLength="106.4629" x="693.3086" y="547.52">Confirm Storage</text><polygon fill="#E7E7E7" points="926.0854,577.7188,936.0854,581.7188,926.0854,585.7188,930.0854,581.7188" style="stroke:#E7E7E7;stroke-width:1;"/><line style="stroke:#E7E7E7;stroke-width:1;" x1="676.3086" x2="932.0854" y1="581.7188" y2="581.7188"/><text fill="#FFFFFF" font-family="sans-serif" font-size="13" lengthAdjust="spacing" textLength="121.2085" x="683.3086" y="576.6528">Send Confirmation</text><polygon fill="#E7E7E7" points="687.3086,606.8516,677.3086,610.8516,687.3086,614.8516,683.3086,610.8516" style="stroke:#E7E7E7;stroke-width:1;"/><line style="stroke:#E7E7E7;stroke-width:1;stroke-dasharray:2.0,2.0;" x1="681.3086" x2="937.0854" y1="610.8516" y2="610.8516"/><text fill="#FFFFFF" font-family="sans-serif" font-size="13" lengthAdjust="spacing" textLength="69.7861" x="693.3086" y="605.7856">Email Sent</text><polygon fill="#E7E7E7" points="506.1914,635.9844,496.1914,639.9844,506.1914,643.9844,502.1914,639.9844" style="stroke:#E7E7E7;stroke-width:1;"/><line style="stroke:#E7E7E7;stroke-width:1;stroke-dasharray:2.0,2.0;" x1="500.1914" x2="675.3086" y1="639.9844" y2="639.9844"/><text fill="#FFFFFF" font-family="sans-serif" font-size="13" lengthAdjust="spacing" textLength="145.7612" x="512.1914" y="634.9185">Registration Complete</text><polygon fill="#E7E7E7" points="299.7852,665.1172,289.7852,669.1172,299.7852,673.1172,295.7852,669.1172" style="stroke:#E7E7E7;stroke-width:1;"/><line style="stroke:#E7E7E7;stroke-width:1;stroke-dasharray:2.0,2.0;" x1="293.7852" x2="494.1914" y1="669.1172" y2="669.1172"/><text fill="#FFFFFF" font-family="sans-serif" font-size="13" lengthAdjust="spacing" textLength="119.4819" x="305.7852" y="664.0513">Success Response</text><polygon fill="#E7E7E7" points="66.0776,694.25,56.0776,698.25,66.0776,702.25,62.0776,698.25" style="stroke:#E7E7E7;stroke-width:1;"/><line style="stroke:#E7E7E7;stroke-width:1;stroke-dasharray:2.0,2.0;" x1="60.0776" x2="287.7852" y1="698.25" y2="698.25"/><text fill="#FFFFFF" font-family="sans-serif" font-size="13" lengthAdjust="spacing" textLength="167.0005" x="72.0776" y="693.1841">Show Ticket Confirmation</text><line style="stroke:#FFFFFF;stroke-width:1;stroke-dasharray:2.0,2.0;" x1="10" x2="1085.4028" y1="707.25" y2="707.25"/><text fill="#FFFFFF" font-family="sans-serif" font-size="11" font-weight="bold" lengthAdjust="spacing" textLength="106.3638" x="15" y="717.4604">[Payment Failed]</text><polygon fill="#E7E7E7" points="299.7852,738.1875,289.7852,742.1875,299.7852,746.1875,295.7852,742.1875" style="stroke:#E7E7E7;stroke-width:1;"/><line style="stroke:#E7E7E7;stroke-width:1;stroke-dasharray:2.0,2.0;" x1="293.7852" x2="494.1914" y1="742.1875" y2="742.1875"/><text fill="#FFFFFF" font-family="sans-serif" font-size="13" lengthAdjust="spacing" textLength="99.3535" x="305.7852" y="737.1216">Error Response</text><polygon fill="#E7E7E7" points="66.0776,767.3203,56.0776,771.3203,66.0776,775.3203,62.0776,771.3203" style="stroke:#E7E7E7;stroke-width:1;"/><line style="stroke:#E7E7E7;stroke-width:1;stroke-dasharray:2.0,2.0;" x1="60.0776" x2="287.7852" y1="771.3203" y2="771.3203"/><text fill="#FFFFFF" font-family="sans-serif" font-size="13" lengthAdjust="spacing" textLength="132.52" x="72.0776" y="766.2544">Show Error Message</text><!--SRC=[ZPFBJiCm44NtVCKe2tQe-ooGga8H2zH0-859CgKMpaFEE2X_pzYEoOE7g2grzPnUtxapmP9R0ycUcPgAA07i0QSVLm0T6bQbwh1XI8wcRLp5GrPjo_li4HwGwGF78DDzG-u7ae-SpA3AS1UvaosMuLXlmIwSVLEiKUcreZiHh4B60dk2v6xwvijL8JLvis9D40ozq9lgsI2hje7Cj2NrVQ1Y571pAnsdSD2gV8Sa_84Cd2Kyhv48R9N3fEqKibF-2ZkpqDqDg9LuSgaAuaZVksXUI3I3a_qWvh5GMl4ee2SSMXKfF5ioOoJ4-wjO8NP6gm9kPhqNOckQgGmv8zj-reeEbpVDa7SszPfVse-eSkfS3x-4afEcaYDw3RajQiMGVKtixs0wQygBZ6SEPffr6cUna9fASnzVkn9RS3AQvtDREecpTJlXNflm3SbCLXimSQliStbAVgJMqH_QvgnCxN5yewsINqsNLrD5T7MZt-M5N5nkt_b2AVQ-sjj3MtUQc9PjnW6538JlEvbYH6mWuZZN4z_u8orFKipqABQe-k6YUsFaWVZNDG5z4biXAAbz0W00]--></g></svg>