<svg xmlns="http://www.w3.org/2000/svg" xmlns:xlink="http://www.w3.org/1999/xlink" contentStyleType="text/css" height="1054px" preserveAspectRatio="none" style="width:1094px;height:1054px;background:#1B1B1B;" version="1.1" viewBox="0 0 1094 1054" width="1094px" zoomAndPan="magnify"><defs/><g><rect fill="#1B1B1B" height="1054" style="stroke:none;stroke-width:1;" width="1094" x="0" y="0"/><line style="stroke:#E7E7E7;stroke-width:0.5;stroke-dasharray:5.0,5.0;" x1="64" x2="64" y1="81.2969" y2="974.1484"/><line style="stroke:#E7E7E7;stroke-width:0.5;stroke-dasharray:5.0,5.0;" x1="169.2783" x2="169.2783" y1="81.2969" y2="974.1484"/><line style="stroke:#E7E7E7;stroke-width:0.5;stroke-dasharray:5.0,5.0;" x1="310.29" x2="310.29" y1="81.2969" y2="974.1484"/><line style="stroke:#E7E7E7;stroke-width:0.5;stroke-dasharray:5.0,5.0;" x1="454.105" x2="454.105" y1="81.2969" y2="974.1484"/><line style="stroke:#E7E7E7;stroke-width:0.5;stroke-dasharray:5.0,5.0;" x1="566.5483" x2="566.5483" y1="81.2969" y2="974.1484"/><line style="stroke:#E7E7E7;stroke-width:0.5;stroke-dasharray:5.0,5.0;" x1="683.5522" x2="683.5522" y1="81.2969" y2="974.1484"/><line style="stroke:#E7E7E7;stroke-width:0.5;stroke-dasharray:5.0,5.0;" x1="814.8501" x2="814.8501" y1="81.2969" y2="974.1484"/><line style="stroke:#E7E7E7;stroke-width:0.5;stroke-dasharray:5.0,5.0;" x1="944.9614" x2="944.9614" y1="81.2969" y2="974.1484"/><line style="stroke:#E7E7E7;stroke-width:0.5;stroke-dasharray:5.0,5.0;" x1="1045.9946" x2="1045.9946" y1="81.2969" y2="974.1484"/><text fill="#FFFFFF" font-family="sans-serif" font-size="14" lengthAdjust="spacing" textLength="113.2783" x="5" y="77.9951">Event Organizer</text><ellipse cx="64.6392" cy="13.5" fill="#222222" rx="8" ry="8" style="stroke:#E7E7E7;stroke-width:0.5;"/><path d="M64.6392,21.5 L64.6392,48.5 M51.6392,29.5 L77.6392,29.5 M64.6392,48.5 L51.6392,63.5 M64.6392,48.5 L77.6392,63.5 " fill="none" style="stroke:#E7E7E7;stroke-width:0.5;"/><text fill="#FFFFFF" font-family="sans-serif" font-size="14" lengthAdjust="spacing" textLength="113.2783" x="5" y="986.1436">Event Organizer</text><ellipse cx="64.6392" cy="997.9453" fill="#222222" rx="8" ry="8" style="stroke:#E7E7E7;stroke-width:0.5;"/><path d="M64.6392,1005.9453 L64.6392,1032.9453 M51.6392,1013.9453 L77.6392,1013.9453 M64.6392,1032.9453 L51.6392,1047.9453 M64.6392,1032.9453 L77.6392,1047.9453 " fill="none" style="stroke:#E7E7E7;stroke-width:0.5;"/><text fill="#FFFFFF" font-family="sans-serif" font-size="14" lengthAdjust="spacing" textLength="64.1553" x="134.2783" y="77.9951">Attendee</text><ellipse cx="169.356" cy="13.5" fill="#222222" rx="8" ry="8" style="stroke:#E7E7E7;stroke-width:0.5;"/><path d="M169.356,21.5 L169.356,48.5 M156.356,29.5 L182.356,29.5 M169.356,48.5 L156.356,63.5 M169.356,48.5 L182.356,63.5 " fill="none" style="stroke:#E7E7E7;stroke-width:0.5;"/><text fill="#FFFFFF" font-family="sans-serif" font-size="14" lengthAdjust="spacing" textLength="64.1553" x="134.2783" y="986.1436">Attendee</text><ellipse cx="169.356" cy="997.9453" fill="#222222" rx="8" ry="8" style="stroke:#E7E7E7;stroke-width:0.5;"/><path d="M169.356,1005.9453 L169.356,1032.9453 M156.356,1013.9453 L182.356,1013.9453 M169.356,1032.9453 L156.356,1047.9453 M169.356,1032.9453 L182.356,1047.9453 " fill="none" style="stroke:#E7E7E7;stroke-width:0.5;"/><rect fill="#222222" height="30.2969" rx="2.5" ry="2.5" style="stroke:#E7E7E7;stroke-width:0.5;" width="77.1094" x="272.29" y="50"/><text fill="#FFFFFF" font-family="sans-serif" font-size="14" lengthAdjust="spacing" textLength="63.1094" x="279.29" y="69.9951">Frontend</text><rect fill="#222222" height="30.2969" rx="2.5" ry="2.5" style="stroke:#E7E7E7;stroke-width:0.5;" width="77.1094" x="272.29" y="973.1484"/><text fill="#FFFFFF" font-family="sans-serif" font-size="14" lengthAdjust="spacing" textLength="63.1094" x="279.29" y="993.1436">Frontend</text><rect fill="#222222" height="30.2969" rx="2.5" ry="2.5" style="stroke:#E7E7E7;stroke-width:0.5;" width="102.4434" x="403.105" y="50"/><text fill="#FFFFFF" font-family="sans-serif" font-size="14" lengthAdjust="spacing" textLength="88.4434" x="410.105" y="69.9951">API Gateway</text><rect fill="#222222" height="30.2969" rx="2.5" ry="2.5" style="stroke:#E7E7E7;stroke-width:0.5;" width="102.4434" x="403.105" y="973.1484"/><text fill="#FFFFFF" font-family="sans-serif" font-size="14" lengthAdjust="spacing" textLength="88.4434" x="410.105" y="993.1436">API Gateway</text><rect fill="#222222" height="30.2969" rx="2.5" ry="2.5" style="stroke:#E7E7E7;stroke-width:0.5;" width="103.0039" x="515.5483" y="50"/><text fill="#FFFFFF" font-family="sans-serif" font-size="14" lengthAdjust="spacing" textLength="89.0039" x="522.5483" y="69.9951">Auth Service</text><rect fill="#222222" height="30.2969" rx="2.5" ry="2.5" style="stroke:#E7E7E7;stroke-width:0.5;" width="103.0039" x="515.5483" y="973.1484"/><text fill="#FFFFFF" font-family="sans-serif" font-size="14" lengthAdjust="spacing" textLength="89.0039" x="522.5483" y="993.1436">Auth Service</text><rect fill="#222222" height="30.2969" rx="2.5" ry="2.5" style="stroke:#E7E7E7;stroke-width:0.5;" width="110.2979" x="628.5522" y="50"/><text fill="#FFFFFF" font-family="sans-serif" font-size="14" lengthAdjust="spacing" textLength="96.2979" x="635.5522" y="69.9951">Event Service</text><rect fill="#222222" height="30.2969" rx="2.5" ry="2.5" style="stroke:#E7E7E7;stroke-width:0.5;" width="110.2979" x="628.5522" y="973.1484"/><text fill="#FFFFFF" font-family="sans-serif" font-size="14" lengthAdjust="spacing" textLength="96.2979" x="635.5522" y="993.1436">Event Service</text><rect fill="#222222" height="30.2969" rx="2.5" ry="2.5" style="stroke:#E7E7E7;stroke-width:0.5;" width="132.1113" x="748.8501" y="50"/><text fill="#FFFFFF" font-family="sans-serif" font-size="14" lengthAdjust="spacing" textLength="118.1113" x="755.8501" y="69.9951">Payment Service</text><rect fill="#222222" height="30.2969" rx="2.5" ry="2.5" style="stroke:#E7E7E7;stroke-width:0.5;" width="132.1113" x="748.8501" y="973.1484"/><text fill="#FFFFFF" font-family="sans-serif" font-size="14" lengthAdjust="spacing" textLength="118.1113" x="755.8501" y="993.1436">Payment Service</text><rect fill="#222222" height="30.2969" rx="2.5" ry="2.5" style="stroke:#E7E7E7;stroke-width:0.5;" width="109.0332" x="890.9614" y="50"/><text fill="#FFFFFF" font-family="sans-serif" font-size="14" lengthAdjust="spacing" textLength="95.0332" x="897.9614" y="69.9951">Email Service</text><rect fill="#222222" height="30.2969" rx="2.5" ry="2.5" style="stroke:#E7E7E7;stroke-width:0.5;" width="109.0332" x="890.9614" y="973.1484"/><text fill="#FFFFFF" font-family="sans-serif" font-size="14" lengthAdjust="spacing" textLength="95.0332" x="897.9614" y="993.1436">Email Service</text><text fill="#FFFFFF" font-family="sans-serif" font-size="14" lengthAdjust="spacing" textLength="66.8008" x="1009.9946" y="77.9951">Database</text><path d="M1028.395,29 C1028.395,19 1046.395,19 1046.395,19 C1046.395,19 1064.395,19 1064.395,29 L1064.395,55 C1064.395,65 1046.395,65 1046.395,65 C1046.395,65 1028.395,65 1028.395,55 L1028.395,29 " fill="#222222" style="stroke:#E7E7E7;stroke-width:1.5;"/><path d="M1028.395,29 C1028.395,39 1046.395,39 1046.395,39 C1046.395,39 1064.395,39 1064.395,29 " fill="none" style="stroke:#E7E7E7;stroke-width:1.5;"/><text fill="#FFFFFF" font-family="sans-serif" font-size="14" lengthAdjust="spacing" textLength="66.8008" x="1009.9946" y="986.1436">Database</text><path d="M1028.395,999.4453 C1028.395,989.4453 1046.395,989.4453 1046.395,989.4453 C1046.395,989.4453 1064.395,989.4453 1064.395,999.4453 L1064.395,1025.4453 C1064.395,1035.4453 1046.395,1035.4453 1046.395,1035.4453 C1046.395,1035.4453 1028.395,1035.4453 1028.395,1025.4453 L1028.395,999.4453 " fill="#222222" style="stroke:#E7E7E7;stroke-width:1.5;"/><path d="M1028.395,999.4453 C1028.395,1009.4453 1046.395,1009.4453 1046.395,1009.4453 C1046.395,1009.4453 1064.395,1009.4453 1064.395,999.4453 " fill="none" style="stroke:#E7E7E7;stroke-width:1.5;"/><rect fill="#111111" height="3" style="stroke:#111111;stroke-width:1;" width="1087.7954" x="0" y="111.8633"/><line style="stroke:#FFFFFF;stroke-width:1;" x1="0" x2="1087.7954" y1="111.8633" y2="111.8633"/><line style="stroke:#FFFFFF;stroke-width:1;" x1="0" x2="1087.7954" y1="114.8633" y2="114.8633"/><rect fill="#111111" height="23.1328" style="stroke:#FFFFFF;stroke-width:2;" width="127.0898" x="480.3528" y="101.2969"/><text fill="#FFFFFF" font-family="sans-serif" font-size="13" font-weight="bold" lengthAdjust="spacing" textLength="108.564" x="486.3528" y="117.3638">Event Creation</text><polygon fill="#E7E7E7" points="298.8447,151.5625,308.8447,155.5625,298.8447,159.5625,302.8447,155.5625" style="stroke:#E7E7E7;stroke-width:1;"/><line style="stroke:#E7E7E7;stroke-width:1;" x1="64.6392" x2="304.8447" y1="155.5625" y2="155.5625"/><text fill="#FFFFFF" font-family="sans-serif" font-size="13" lengthAdjust="spacing" textLength="84.8555" x="145.3142" y="150.4966">Create Event</text><polygon fill="#E7E7E7" points="555.0503,180.6953,565.0503,184.6953,555.0503,188.6953,559.0503,184.6953" style="stroke:#E7E7E7;stroke-width:1;"/><line style="stroke:#E7E7E7;stroke-width:1;" x1="310.8447" x2="561.0503" y1="184.6953" y2="184.6953"/><text fill="#FFFFFF" font-family="sans-serif" font-size="13" lengthAdjust="spacing" textLength="81.9102" x="397.9924" y="179.6294">Verify Token</text><polygon fill="#E7E7E7" points="321.8447,209.8281,311.8447,213.8281,321.8447,217.8281,317.8447,213.8281" style="stroke:#E7E7E7;stroke-width:1;"/><line style="stroke:#E7E7E7;stroke-width:1;" x1="315.8447" x2="566.0503" y1="213.8281" y2="213.8281"/><text fill="#FFFFFF" font-family="sans-serif" font-size="13" lengthAdjust="spacing" textLength="76.1274" x="400.8838" y="208.7622">Token Valid</text><polygon fill="#E7E7E7" points="442.3267,238.9609,452.3267,242.9609,442.3267,246.9609,446.3267,242.9609" style="stroke:#E7E7E7;stroke-width:1;"/><line style="stroke:#E7E7E7;stroke-width:1;" x1="310.8447" x2="448.3267" y1="242.9609" y2="242.9609"/><text fill="#FFFFFF" font-family="sans-serif" font-size="13" lengthAdjust="spacing" textLength="86.5757" x="339.2979" y="237.895">POST /events</text><polygon fill="#E7E7E7" points="671.7012,268.0938,681.7012,272.0938,671.7012,276.0938,675.7012,272.0938" style="stroke:#E7E7E7;stroke-width:1;"/><line style="stroke:#E7E7E7;stroke-width:1;" x1="454.3267" x2="677.7012" y1="272.0938" y2="272.0938"/><text fill="#FFFFFF" font-family="sans-serif" font-size="13" lengthAdjust="spacing" textLength="84.8555" x="526.5862" y="267.0278">Create Event</text><polygon fill="#E7E7E7" points="1034.395,297.2266,1044.395,301.2266,1034.395,305.2266,1038.395,301.2266" style="stroke:#E7E7E7;stroke-width:1;"/><line style="stroke:#E7E7E7;stroke-width:1;" x1="683.7012" x2="1040.395" y1="301.2266" y2="301.2266"/><text fill="#FFFFFF" font-family="sans-serif" font-size="13" lengthAdjust="spacing" textLength="111.1919" x="809.4521" y="296.1606">Store Event Data</text><polygon fill="#E7E7E7" points="694.7012,326.3594,684.7012,330.3594,694.7012,334.3594,690.7012,330.3594" style="stroke:#E7E7E7;stroke-width:1;"/><line style="stroke:#E7E7E7;stroke-width:1;stroke-dasharray:2.0,2.0;" x1="688.7012" x2="1045.395" y1="330.3594" y2="330.3594"/><text fill="#FFFFFF" font-family="sans-serif" font-size="13" lengthAdjust="spacing" textLength="106.4629" x="811.8167" y="325.2935">Confirm Storage</text><polygon fill="#E7E7E7" points="465.3267,355.4922,455.3267,359.4922,465.3267,363.4922,461.3267,359.4922" style="stroke:#E7E7E7;stroke-width:1;"/><line style="stroke:#E7E7E7;stroke-width:1;stroke-dasharray:2.0,2.0;" x1="459.3267" x2="682.7012" y1="359.4922" y2="359.4922"/><text fill="#FFFFFF" font-family="sans-serif" font-size="13" lengthAdjust="spacing" textLength="93.1074" x="522.4602" y="354.4263">Event Created</text><polygon fill="#E7E7E7" points="321.8447,384.625,311.8447,388.625,321.8447,392.625,317.8447,388.625" style="stroke:#E7E7E7;stroke-width:1;"/><line style="stroke:#E7E7E7;stroke-width:1;stroke-dasharray:2.0,2.0;" x1="315.8447" x2="453.3267" y1="388.625" y2="388.625"/><text fill="#FFFFFF" font-family="sans-serif" font-size="13" lengthAdjust="spacing" textLength="119.4819" x="322.8447" y="383.5591">Success Response</text><polygon fill="#E7E7E7" points="75.6392,413.7578,65.6392,417.7578,75.6392,421.7578,71.6392,417.7578" style="stroke:#E7E7E7;stroke-width:1;"/><line style="stroke:#E7E7E7;stroke-width:1;stroke-dasharray:2.0,2.0;" x1="69.6392" x2="309.8447" y1="417.7578" y2="417.7578"/><text fill="#FFFFFF" font-family="sans-serif" font-size="13" lengthAdjust="spacing" textLength="91.5396" x="141.9722" y="412.6919">Show Success</text><rect fill="#111111" height="3" style="stroke:#111111;stroke-width:1;" width="1087.7954" x="0" y="446.3242"/><line style="stroke:#FFFFFF;stroke-width:1;" x1="0" x2="1087.7954" y1="446.3242" y2="446.3242"/><line style="stroke:#FFFFFF;stroke-width:1;" x1="0" x2="1087.7954" y1="449.3242" y2="449.3242"/><rect fill="#111111" height="23.1328" style="stroke:#FFFFFF;stroke-width:2;" width="155.2734" x="466.261" y="435.7578"/><text fill="#FFFFFF" font-family="sans-serif" font-size="13" font-weight="bold" lengthAdjust="spacing" textLength="136.7476" x="472.261" y="451.8247">Event Registration</text><polygon fill="#E7E7E7" points="298.8447,486.0234,308.8447,490.0234,298.8447,494.0234,302.8447,490.0234" style="stroke:#E7E7E7;stroke-width:1;"/><line style="stroke:#E7E7E7;stroke-width:1;" x1="169.356" x2="304.8447" y1="490.0234" y2="490.0234"/><text fill="#FFFFFF" font-family="sans-serif" font-size="13" lengthAdjust="spacing" textLength="72.5093" x="203.8457" y="484.9575">View Event</text><polygon fill="#E7E7E7" points="442.3267,515.1563,452.3267,519.1563,442.3267,523.1563,446.3267,519.1563" style="stroke:#E7E7E7;stroke-width:1;"/><line style="stroke:#E7E7E7;stroke-width:1;" x1="310.8447" x2="448.3267" y1="519.1563" y2="519.1563"/><text fill="#FFFFFF" font-family="sans-serif" font-size="13" lengthAdjust="spacing" textLength="111.3252" x="326.9231" y="514.0903">GET /events/{id}</text><polygon fill="#E7E7E7" points="1034.395,544.2891,1044.395,548.2891,1034.395,552.2891,1038.395,548.2891" style="stroke:#E7E7E7;stroke-width:1;"/><line style="stroke:#E7E7E7;stroke-width:1;" x1="454.3267" x2="1040.395" y1="548.2891" y2="548.2891"/><text fill="#FFFFFF" font-family="sans-serif" font-size="13" lengthAdjust="spacing" textLength="77.3335" x="711.6941" y="543.2231">Fetch Event</text><polygon fill="#E7E7E7" points="465.3267,573.4219,455.3267,577.4219,465.3267,581.4219,461.3267,577.4219" style="stroke:#E7E7E7;stroke-width:1;"/><line style="stroke:#E7E7E7;stroke-width:1;stroke-dasharray:2.0,2.0;" x1="459.3267" x2="1045.395" y1="577.4219" y2="577.4219"/><text fill="#FFFFFF" font-family="sans-serif" font-size="13" lengthAdjust="spacing" textLength="72.4141" x="714.1538" y="572.356">Event Data</text><polygon fill="#E7E7E7" points="321.8447,602.5547,311.8447,606.5547,321.8447,610.5547,317.8447,606.5547" style="stroke:#E7E7E7;stroke-width:1;"/><line style="stroke:#E7E7E7;stroke-width:1;stroke-dasharray:2.0,2.0;" x1="315.8447" x2="453.3267" y1="606.5547" y2="606.5547"/><text fill="#FFFFFF" font-family="sans-serif" font-size="13" lengthAdjust="spacing" textLength="86.4424" x="339.3645" y="601.4888">Event Details</text><polygon fill="#E7E7E7" points="298.8447,631.6875,308.8447,635.6875,298.8447,639.6875,302.8447,635.6875" style="stroke:#E7E7E7;stroke-width:1;"/><line style="stroke:#E7E7E7;stroke-width:1;" x1="169.356" x2="304.8447" y1="635.6875" y2="635.6875"/><text fill="#FFFFFF" font-family="sans-serif" font-size="13" lengthAdjust="spacing" textLength="117.4888" x="181.356" y="630.6216">Register for Event</text><polygon fill="#E7E7E7" points="442.3267,660.8203,452.3267,664.8203,442.3267,668.8203,446.3267,664.8203" style="stroke:#E7E7E7;stroke-width:1;"/><line style="stroke:#E7E7E7;stroke-width:1;" x1="310.8447" x2="448.3267" y1="664.8203" y2="664.8203"/><text fill="#FFFFFF" font-family="sans-serif" font-size="13" lengthAdjust="spacing" textLength="118.0664" x="323.5525" y="659.7544">POST /registration</text><polygon fill="#E7E7E7" points="802.9058,689.9531,812.9058,693.9531,802.9058,697.9531,806.9058,693.9531" style="stroke:#E7E7E7;stroke-width:1;"/><line style="stroke:#E7E7E7;stroke-width:1;" x1="454.3267" x2="808.9058" y1="693.9531" y2="693.9531"/><text fill="#FFFFFF" font-family="sans-serif" font-size="13" lengthAdjust="spacing" textLength="111.4585" x="578.887" y="688.8872">Process Payment</text><polygon fill="#E7E7E7" points="465.3267,719.0859,455.3267,723.0859,465.3267,727.0859,461.3267,723.0859" style="stroke:#E7E7E7;stroke-width:1;"/><line style="stroke:#E7E7E7;stroke-width:1;stroke-dasharray:2.0,2.0;" x1="459.3267" x2="813.9058" y1="723.0859" y2="723.0859"/><text fill="#FFFFFF" font-family="sans-serif" font-size="13" lengthAdjust="spacing" textLength="129.3462" x="569.9431" y="718.02">Payment Confirmed</text><polygon fill="#E7E7E7" points="671.7012,748.2188,681.7012,752.2188,671.7012,756.2188,675.7012,752.2188" style="stroke:#E7E7E7;stroke-width:1;"/><line style="stroke:#E7E7E7;stroke-width:1;" x1="454.3267" x2="677.7012" y1="752.2188" y2="752.2188"/><text fill="#FFFFFF" font-family="sans-serif" font-size="13" lengthAdjust="spacing" textLength="126.5913" x="505.7183" y="747.1528">Create Registration</text><polygon fill="#E7E7E7" points="1034.395,777.3516,1044.395,781.3516,1034.395,785.3516,1038.395,781.3516" style="stroke:#E7E7E7;stroke-width:1;"/><line style="stroke:#E7E7E7;stroke-width:1;" x1="683.7012" x2="1040.395" y1="781.3516" y2="781.3516"/><text fill="#FFFFFF" font-family="sans-serif" font-size="13" lengthAdjust="spacing" textLength="117.7554" x="806.1704" y="776.2856">Store Registration</text><polygon fill="#E7E7E7" points="694.7012,806.4844,684.7012,810.4844,694.7012,814.4844,690.7012,810.4844" style="stroke:#E7E7E7;stroke-width:1;"/><line style="stroke:#E7E7E7;stroke-width:1;stroke-dasharray:2.0,2.0;" x1="688.7012" x2="1045.395" y1="810.4844" y2="810.4844"/><text fill="#FFFFFF" font-family="sans-serif" font-size="13" lengthAdjust="spacing" textLength="106.4629" x="811.8167" y="805.4185">Confirm Storage</text><polygon fill="#E7E7E7" points="933.478,835.6172,943.478,839.6172,933.478,843.6172,937.478,839.6172" style="stroke:#E7E7E7;stroke-width:1;"/><line style="stroke:#E7E7E7;stroke-width:1;" x1="683.7012" x2="939.478" y1="839.6172" y2="839.6172"/><text fill="#FFFFFF" font-family="sans-serif" font-size="13" lengthAdjust="spacing" textLength="121.2085" x="753.9854" y="834.5513">Send Confirmation</text><polygon fill="#E7E7E7" points="694.7012,864.75,684.7012,868.75,694.7012,872.75,690.7012,868.75" style="stroke:#E7E7E7;stroke-width:1;"/><line style="stroke:#E7E7E7;stroke-width:1;stroke-dasharray:2.0,2.0;" x1="688.7012" x2="944.478" y1="868.75" y2="868.75"/><text fill="#FFFFFF" font-family="sans-serif" font-size="13" lengthAdjust="spacing" textLength="69.7861" x="779.6965" y="863.6841">Email Sent</text><polygon fill="#E7E7E7" points="465.3267,893.8828,455.3267,897.8828,465.3267,901.8828,461.3267,897.8828" style="stroke:#E7E7E7;stroke-width:1;"/><line style="stroke:#E7E7E7;stroke-width:1;stroke-dasharray:2.0,2.0;" x1="459.3267" x2="682.7012" y1="897.8828" y2="897.8828"/><text fill="#FFFFFF" font-family="sans-serif" font-size="13" lengthAdjust="spacing" textLength="145.7612" x="496.1333" y="892.8169">Registration Complete</text><polygon fill="#E7E7E7" points="321.8447,923.0156,311.8447,927.0156,321.8447,931.0156,317.8447,927.0156" style="stroke:#E7E7E7;stroke-width:1;"/><line style="stroke:#E7E7E7;stroke-width:1;stroke-dasharray:2.0,2.0;" x1="315.8447" x2="453.3267" y1="927.0156" y2="927.0156"/><text fill="#FFFFFF" font-family="sans-serif" font-size="13" lengthAdjust="spacing" textLength="119.4819" x="322.8447" y="921.9497">Success Response</text><polygon fill="#E7E7E7" points="180.356,952.1484,170.356,956.1484,180.356,960.1484,176.356,956.1484" style="stroke:#E7E7E7;stroke-width:1;"/><line style="stroke:#E7E7E7;stroke-width:1;stroke-dasharray:2.0,2.0;" x1="174.356" x2="309.8447" y1="956.1484" y2="956.1484"/><text fill="#FFFFFF" font-family="sans-serif" font-size="13" lengthAdjust="spacing" textLength="78.5332" x="200.8337" y="951.0825">Show Ticket</text><!--SRC=[ZLFBRkCm3BphAuZSYzu3f43G5tee6ZH1xepC949YoIl93RB5_ljIBrTsU-ZD6ewe6NBiJaftQB45Htzwqf9UoJayqFAi3XeaQKzM29JUM9WzVl0Ptkm1jVfBTWRem9HJ8Isz9zqGnIhcW-17l9AgGsumUx961pnIUZKkBbSly8oUBdXDBRefeVT7M9FzK38_mi2OaeJM70h8cBJ2QpkbTGcRT6jHdSVT0Y8QzBX3Hp1xo5-nsEo4M2mWQRYtX5uP3Ok564O5DtTiUvwAb9YYLm4ENkQm9QlsLzYO4saHe78Z8h35ishAXOxXrTjw0xVHenECX48yJTw8M2WskpciULsv0C60Q7PmKrqqUgzi6saSY7AtF5dPeoQzcJMkUoavHF1EhZFQKHJAjS4-KuxcKdZLiDxfe9otmy1AUehxhQBBU5f1oVFZuFtsKpN_oW22noVoyfYlP7kL-kYwbfvXyhnU5ZPzF-dZ_UqvwDzqf2NOoaDHabF556lYQ5P3p5841rqbatduPRBJRTQ3-ccfe_glrdgNCiqDs74XvVun_bMByZzy1Qh87otmthJTcJpzAXnbr3aR6oLFvFy3]--></g></svg>