<svg xmlns="http://www.w3.org/2000/svg" xmlns:xlink="http://www.w3.org/1999/xlink" contentStyleType="text/css" height="1137px" preserveAspectRatio="none" style="width:426px;height:1137px;background:#1B1B1B;" version="1.1" viewBox="0 0 426 1137" width="426px" zoomAndPan="magnify"><defs/><g><rect fill="#1B1B1B" height="1137" style="stroke:none;stroke-width:1;" width="426" x="0" y="0"/><!--cluster Eventify--><g id="cluster_Eventify"><rect fill="none" height="1124" rx="2.5" ry="2.5" style="stroke:#E7E7E7;stroke-width:1;" width="201.27" x="219.28" y="7"/><text fill="#FFFFFF" font-family="sans-serif" font-size="14" font-weight="bold" lengthAdjust="spacing" textLength="64.8594" x="287.4853" y="21.9951">Eventify</text></g><g id="elem_profile"><ellipse cx="319.906" cy="961.9952" fill="#313139" rx="74.276" ry="17.2552" style="stroke:#E7E7E7;stroke-width:0.5;"/><text fill="#FFFFFF" font-family="sans-serif" font-size="14" lengthAdjust="spacing" textLength="104.1455" x="264.8332" y="965.7427">Manage Profile</text></g><g id="elem_auth"><ellipse cx="319.9082" cy="1031.0036" fill="#313139" rx="73.0682" ry="17.0136" style="stroke:#E7E7E7;stroke-width:0.5;"/><text fill="#FFFFFF" font-family="sans-serif" font-size="14" lengthAdjust="spacing" textLength="101.001" x="266.4077" y="1034.7512">Login/Register</text></g><g id="elem_createEvent"><ellipse cx="319.9088" cy="200.0038" fill="#313139" rx="69.4688" ry="16.2938" style="stroke:#E7E7E7;stroke-width:0.5;"/><text fill="#FFFFFF" font-family="sans-serif" font-size="14" lengthAdjust="spacing" textLength="91.3828" x="271.2174" y="203.7513">Create Event</text></g><g id="elem_manageEvent"><ellipse cx="319.9144" cy="285.0029" fill="#313139" rx="75.5644" ry="17.5129" style="stroke:#E7E7E7;stroke-width:0.5;"/><text fill="#FFFFFF" font-family="sans-serif" font-size="14" lengthAdjust="spacing" textLength="107.4609" x="263.184" y="288.7504">Manage Events</text></g><g id="elem_viewEvent"><ellipse cx="319.9129" cy="1099.0006" fill="#313139" rx="67.3029" ry="15.8606" style="stroke:#E7E7E7;stroke-width:0.5;"/><text fill="#FFFFFF" font-family="sans-serif" font-size="14" lengthAdjust="spacing" textLength="85.3809" x="274.2225" y="1102.7481">View Events</text></g><g id="elem_registerEvent"><ellipse cx="319.9128" cy="804.0026" fill="#313139" rx="83.3628" ry="19.0726" style="stroke:#E7E7E7;stroke-width:0.5;"/><text fill="#FFFFFF" font-family="sans-serif" font-size="14" lengthAdjust="spacing" textLength="126.5264" x="256.1787" y="807.0094">Register for Event</text></g><g id="elem_buyTicket"><ellipse cx="319.9073" cy="891.9955" fill="#313139" rx="76.9273" ry="17.7855" style="stroke:#E7E7E7;stroke-width:0.5;"/><text fill="#FFFFFF" font-family="sans-serif" font-size="14" lengthAdjust="spacing" textLength="110.9268" x="261.5427" y="895.7175">Purchase Ticket</text></g><g id="elem_manageTicket"><ellipse cx="319.9142" cy="354.9988" fill="#313139" rx="76.4442" ry="17.6888" style="stroke:#E7E7E7;stroke-width:0.5;"/><text fill="#FFFFFF" font-family="sans-serif" font-size="14" lengthAdjust="spacing" textLength="109.7031" x="262.0627" y="358.7464">Manage Tickets</text></g><g id="elem_checkin"><ellipse cx="319.9066" cy="584.9973" fill="#313139" rx="84.6366" ry="19.3273" style="stroke:#E7E7E7;stroke-width:0.5;"/><text fill="#FFFFFF" font-family="sans-serif" font-size="14" lengthAdjust="spacing" textLength="129.4863" x="255.1099" y="587.8626">Check-in Attendee</text></g><g id="elem_hostVirtual"><ellipse cx="319.9084" cy="657.9977" fill="#313139" rx="83.5384" ry="19.1077" style="stroke:#E7E7E7;stroke-width:0.5;"/><text fill="#FFFFFF" font-family="sans-serif" font-size="14" lengthAdjust="spacing" textLength="126.9365" x="256.0278" y="660.985">Host Virtual Event</text></g><g id="elem_joinVirtual"><ellipse cx="319.906" cy="730.9952" fill="#313139" rx="80.826" ry="18.5652" style="stroke:#E7E7E7;stroke-width:0.5;"/><text fill="#FFFFFF" font-family="sans-serif" font-size="14" lengthAdjust="spacing" textLength="120.5176" x="258.2882" y="734.2839">Join Virtual Event</text></g><g id="elem_analytics"><ellipse cx="319.9098" cy="424.996" fill="#313139" rx="73.2798" ry="17.056" style="stroke:#E7E7E7;stroke-width:0.5;"/><text fill="#FFFFFF" font-family="sans-serif" font-size="14" lengthAdjust="spacing" textLength="101.5547" x="266.1325" y="428.7435">View Analytics</text></g><g id="elem_reports"><ellipse cx="319.9091" cy="512.0018" fill="#313139" rx="82.3591" ry="18.8718" style="stroke:#E7E7E7;stroke-width:0.5;"/><text fill="#FFFFFF" font-family="sans-serif" font-size="14" lengthAdjust="spacing" textLength="124.168" x="257.0123" y="515.1201">Generate Reports</text></g><g id="elem_manageUsers"><ellipse cx="319.9076" cy="59.0015" fill="#313139" rx="72.4076" ry="16.8815" style="stroke:#E7E7E7;stroke-width:0.5;"/><text fill="#FFFFFF" font-family="sans-serif" font-size="14" lengthAdjust="spacing" textLength="99.2646" x="267.2753" y="62.7491">Manage Users</text></g><g id="elem_configSystem"><ellipse cx="319.9144" cy="129.9969" fill="#313139" rx="82.6344" ry="18.9269" style="stroke:#E7E7E7;stroke-width:0.5;"/><text fill="#FFFFFF" font-family="sans-serif" font-size="14" lengthAdjust="spacing" textLength="124.8174" x="256.7879" y="133.0846">Configure System</text></g><!--entity admin--><g id="elem_admin"><ellipse cx="62.64" cy="72.85" fill="#313139" rx="16" ry="16" style="stroke:#E7E7E7;stroke-width:0.5;"/><path d="M62.64,92.85 C66.64,92.85 69.64,92.85 73.64,88.85 C81.64,88.85 89.64,96.85 89.64,104.85 L89.64,108.85 C89.64,112.85 85.64,116.85 81.64,116.85 L43.64,116.85 C39.64,116.85 35.64,112.85 35.64,108.85 L35.64,104.85 C35.64,96.85 43.64,88.85 51.64,88.85 C55.64,92.85 58.64,92.85 62.64,92.85 " fill="#313139" style="stroke:#E7E7E7;stroke-width:0.5;"/><text fill="#FFFFFF" font-family="sans-serif" font-size="14" lengthAdjust="spacing" textLength="44.8643" x="40.2079" y="130.3451">Admin</text></g><!--entity organizer--><g id="elem_organizer"><ellipse cx="62.6392" cy="529.85" fill="#313139" rx="16" ry="16" style="stroke:#E7E7E7;stroke-width:0.5;"/><path d="M62.6392,549.85 C66.6392,549.85 69.6392,549.85 73.6392,545.85 C81.6392,545.85 89.6392,553.85 89.6392,561.85 L89.6392,565.85 C89.6392,569.85 85.6392,573.85 81.6392,573.85 L43.6392,573.85 C39.6392,573.85 35.6392,569.85 35.6392,565.85 L35.6392,561.85 C35.6392,553.85 43.6392,545.85 51.6392,545.85 C55.6392,549.85 58.6392,549.85 62.6392,549.85 " fill="#313139" style="stroke:#E7E7E7;stroke-width:0.5;"/><text fill="#FFFFFF" font-family="sans-serif" font-size="14" lengthAdjust="spacing" textLength="113.2783" x="6" y="587.3451">Event Organizer</text></g><!--entity attendee--><g id="elem_attendee"><ellipse cx="62.6376" cy="851.85" fill="#313139" rx="16" ry="16" style="stroke:#E7E7E7;stroke-width:0.5;"/><path d="M62.6376,871.85 C66.6376,871.85 69.6376,871.85 73.6376,867.85 C81.6376,867.85 89.6376,875.85 89.6376,883.85 L89.6376,887.85 C89.6376,891.85 85.6376,895.85 81.6376,895.85 L43.6376,895.85 C39.6376,895.85 35.6376,891.85 35.6376,887.85 L35.6376,883.85 C35.6376,875.85 43.6376,867.85 51.6376,867.85 C55.6376,871.85 58.6376,871.85 62.6376,871.85 " fill="#313139" style="stroke:#E7E7E7;stroke-width:0.5;"/><text fill="#FFFFFF" font-family="sans-serif" font-size="14" lengthAdjust="spacing" textLength="64.1553" x="30.56" y="909.3451">Attendee</text></g><!--entity sponsor--><g id="elem_sponsor"><ellipse cx="62.6436" cy="1035.85" fill="#313139" rx="16" ry="16" style="stroke:#E7E7E7;stroke-width:0.5;"/><path d="M62.6436,1055.85 C66.6436,1055.85 69.6436,1055.85 73.6436,1051.85 C81.6436,1051.85 89.6436,1059.85 89.6436,1067.85 L89.6436,1071.85 C89.6436,1075.85 85.6436,1079.85 81.6436,1079.85 L43.6436,1079.85 C39.6436,1079.85 35.6436,1075.85 35.6436,1071.85 L35.6436,1067.85 C35.6436,1059.85 43.6436,1051.85 51.6436,1051.85 C55.6436,1055.85 58.6436,1055.85 62.6436,1055.85 " fill="#313139" style="stroke:#E7E7E7;stroke-width:0.5;"/><text fill="#FFFFFF" font-family="sans-serif" font-size="14" lengthAdjust="spacing" textLength="56.8271" x="34.23" y="1093.3451">Sponsor</text></g><!--link admin to manageUsers--><g id="link_admin_manageUsers"><path d="M90.48,91.22 C129.71,85.68 197.8888,76.0677 251.0788,68.5677 " fill="none" id="admin-to-manageUsers" style="stroke:#E7E7E7;stroke-width:1;"/><polygon fill="#E7E7E7" points="257.02,67.73,247.5497,65.0258,252.069,68.4281,248.6666,72.9474,257.02,67.73" style="stroke:#E7E7E7;stroke-width:1;"/></g><!--link admin to configSystem--><g id="link_admin_configSystem"><path d="M90.48,98.68 C127.53,103.76 189.7755,112.2956 242.0355,119.4556 " fill="none" id="admin-to-configSystem" style="stroke:#E7E7E7;stroke-width:1;"/><polygon fill="#E7E7E7" points="247.98,120.27,239.6063,115.0854,243.0263,119.5913,238.5203,123.0113,247.98,120.27" style="stroke:#E7E7E7;stroke-width:1;"/></g><!--link organizer to auth--><g id="link_organizer_auth"><path d="M82.8,590.93 C113.85,655.91 174.54,791.36 203.28,913 C207.59,931.25 199.49,982.42 211.28,997 C221.94,1010.18 231.9495,1016.5621 248.1295,1021.5821 " fill="none" id="organizer-to-auth" style="stroke:#E7E7E7;stroke-width:1;"/><polygon fill="#E7E7E7" points="253.86,1023.36,246.4495,1016.8727,249.0846,1021.8784,244.0789,1024.5134,253.86,1023.36" style="stroke:#E7E7E7;stroke-width:1;"/></g><!--link organizer to profile--><g id="link_organizer_profile"><path d="M98.42,591.02 C113.9,608.27 132.4,628.74 149.28,647 C172.96,672.63 189.78,671.82 203.28,704 C212.87,726.86 196.35,907.2 211.28,927 C221.51,940.57 231.4047,947.1438 247.5847,952.3138 " fill="none" id="organizer-to-profile" style="stroke:#E7E7E7;stroke-width:1;"/><polygon fill="#E7E7E7" points="253.3,954.14,245.9445,947.5905,248.5372,952.6182,243.5095,955.2109,253.3,954.14" style="stroke:#E7E7E7;stroke-width:1;"/></g><!--link organizer to createEvent--><g id="link_organizer_createEvent"><path d="M71.53,512.95 C86.72,448.1 126.36,318.55 211.28,250 C231.08,234.02 251.2425,224.0063 272.5825,215.6563 " fill="none" id="organizer-to-createEvent" style="stroke:#E7E7E7;stroke-width:1;"/><polygon fill="#E7E7E7" points="278.17,213.47,268.3312,213.0244,273.5138,215.2919,271.2463,220.4744,278.17,213.47" style="stroke:#E7E7E7;stroke-width:1;"/></g><!--link organizer to manageEvent--><g id="link_organizer_manageEvent"><path d="M78.42,513.27 C99.98,461.82 144.86,371.47 211.28,320 C225.49,308.99 237.5556,303.1455 254.5756,297.9055 " fill="none" id="organizer-to-manageEvent" style="stroke:#E7E7E7;stroke-width:1;"/><polygon fill="#E7E7E7" points="260.31,296.14,250.5315,294.9653,255.5313,297.6112,252.8854,302.6111,260.31,296.14" style="stroke:#E7E7E7;stroke-width:1;"/></g><!--link organizer to analytics--><g id="link_organizer_analytics"><path d="M119.51,522.69 C147.03,508.39 180.78,491.07 211.28,476 C236.12,463.72 259.0155,452.8729 280.3655,442.8829 " fill="none" id="organizer-to-analytics" style="stroke:#E7E7E7;stroke-width:1;"/><polygon fill="#E7E7E7" points="285.8,440.34,275.953,440.5313,281.2713,442.4591,279.3435,447.7773,285.8,440.34" style="stroke:#E7E7E7;stroke-width:1;"/></g><!--link organizer to reports--><g id="link_organizer_reports"><path d="M119.66,543.22 C158.41,537.15 204.2422,529.9683 245.3022,523.5383 " fill="none" id="organizer-to-reports" style="stroke:#E7E7E7;stroke-width:1;"/><polygon fill="#E7E7E7" points="251.23,522.61,241.7195,520.0506,246.2902,523.3836,242.9572,527.9543,251.23,522.61" style="stroke:#E7E7E7;stroke-width:1;"/></g><!--link organizer to checkin--><g id="link_organizer_checkin"><path d="M119.66,559.24 C156.65,564.02 199.5395,569.5709 239.6195,574.7509 " fill="none" id="organizer-to-checkin" style="stroke:#E7E7E7;stroke-width:1;"/><polygon fill="#E7E7E7" points="245.57,575.52,237.1569,570.3994,240.6112,574.8791,236.1315,578.3334,245.57,575.52" style="stroke:#E7E7E7;stroke-width:1;"/></g><!--link organizer to hostVirtual--><g id="link_organizer_hostVirtual"><path d="M106.06,591.11 C119.14,601.47 134.11,611.77 149.28,619 C179.56,633.44 209.5739,641.5782 240.5439,647.4182 " fill="none" id="organizer-to-hostVirtual" style="stroke:#E7E7E7;stroke-width:1;"/><polygon fill="#E7E7E7" points="246.44,648.53,238.3371,642.9315,241.5266,647.6035,236.8547,650.793,246.44,648.53" style="stroke:#E7E7E7;stroke-width:1;"/></g><!--link attendee to auth--><g id="link_attendee_auth"><path d="M94.99,888.87 C131.72,906.9 189.35,937.32 203.28,957 C213.75,971.8 199.17,983.5 211.28,997 C222.73,1009.77 233.1827,1016.0241 249.5527,1021.0341 " fill="none" id="attendee-to-auth" style="stroke:#E7E7E7;stroke-width:1;"/><polygon fill="#E7E7E7" points="255.29,1022.79,247.8546,1016.3313,250.5089,1021.3268,245.5134,1023.981,255.29,1022.79" style="stroke:#E7E7E7;stroke-width:1;"/></g><!--link attendee to profile--><g id="link_attendee_profile"><path d="M95.02,877.58 C125.11,882.28 170.66,892.85 203.28,916 C208.21,919.5 206.39,923.45 211.28,927 C226.3,937.91 239.156,943.806 256.646,949.086 " fill="none" id="attendee-to-profile" style="stroke:#E7E7E7;stroke-width:1;"/><polygon fill="#E7E7E7" points="262.39,950.82,254.9301,944.3896,257.6034,949.375,252.618,952.0483,262.39,950.82" style="stroke:#E7E7E7;stroke-width:1;"/></g><!--link attendee to viewEvent--><g id="link_attendee_viewEvent"><path d="M95.05,909.86 C124.75,944.64 169.66,999.56 203.28,1051 C207.41,1057.32 205.45,1061.2 211.28,1066 C225.76,1077.93 238.7321,1083.9788 256.5221,1088.8388 " fill="none" id="attendee-to-viewEvent" style="stroke:#E7E7E7;stroke-width:1;"/><polygon fill="#E7E7E7" points="262.31,1090.42,254.6823,1084.1896,257.4867,1089.1023,252.574,1091.9068,262.31,1090.42" style="stroke:#E7E7E7;stroke-width:1;"/></g><!--link attendee to registerEvent--><g id="link_attendee_registerEvent"><path d="M94.87,864.18 C111.06,859.18 131.18,853.09 149.28,848 C186.77,837.45 223.3634,827.9222 256.3934,819.5622 " fill="none" id="attendee-to-registerEvent" style="stroke:#E7E7E7;stroke-width:1;"/><polygon fill="#E7E7E7" points="262.21,818.09,252.5037,816.4206,257.3628,819.3168,254.4666,824.176,262.21,818.09" style="stroke:#E7E7E7;stroke-width:1;"/></g><!--link attendee to buyTicket--><g id="link_attendee_buyTicket"><path d="M95.03,872.98 C123.36,872.36 166.17,872.15 203.28,875 C220.88,876.35 233.9343,877.8738 251.3443,880.4438 " fill="none" id="attendee-to-buyTicket" style="stroke:#E7E7E7;stroke-width:1;"/><polygon fill="#E7E7E7" points="257.28,881.32,248.9606,876.0486,252.3336,880.5898,247.7923,883.9628,257.28,881.32" style="stroke:#E7E7E7;stroke-width:1;"/></g><!--link attendee to joinVirtual--><g id="link_attendee_joinVirtual"><path d="M95.19,846.73 C123.88,823.04 168.21,789.15 211.28,767 C228.36,758.21 242.3343,752.725 260.1543,747.035 " fill="none" id="attendee-to-joinVirtual" style="stroke:#E7E7E7;stroke-width:1;"/><polygon fill="#E7E7E7" points="265.87,745.21,256.0798,744.1371,261.1069,746.7309,258.5132,751.758,265.87,745.21" style="stroke:#E7E7E7;stroke-width:1;"/></g><!--link sponsor to auth--><g id="link_sponsor_auth"><path d="M91.44,1055.06 C129.82,1051 194.2532,1044.1803 246.6032,1038.6503 " fill="none" id="sponsor-to-auth" style="stroke:#E7E7E7;stroke-width:1;"/><polygon fill="#E7E7E7" points="252.57,1038.02,243.1996,1034.9876,247.5977,1038.5453,244.04,1042.9433,252.57,1038.02" style="stroke:#E7E7E7;stroke-width:1;"/></g><!--link sponsor to profile--><g id="link_sponsor_profile"><path d="M91.36,1045.46 C120.81,1032.35 168.87,1011.57 211.28,996 C231.15,988.71 247.6756,983.2854 266.7756,977.4054 " fill="none" id="sponsor-to-profile" style="stroke:#E7E7E7;stroke-width:1;"/><polygon fill="#E7E7E7" points="272.51,975.64,262.7315,974.4651,267.7313,977.1111,265.0853,982.111,272.51,975.64" style="stroke:#E7E7E7;stroke-width:1;"/></g><!--link sponsor to viewEvent--><g id="link_sponsor_viewEvent"><path d="M91.44,1062.47 C132.54,1069.07 204.4059,1080.6087 257.4659,1089.1287 " fill="none" id="sponsor-to-viewEvent" style="stroke:#E7E7E7;stroke-width:1;"/><polygon fill="#E7E7E7" points="263.39,1090.08,255.138,1084.7037,258.4532,1089.2873,253.8697,1092.6025,263.39,1090.08" style="stroke:#E7E7E7;stroke-width:1;"/></g><!--link manageEvent to createEvent--><g id="link_manageEvent_createEvent"><path d="M319.91,267.39 C319.91,252.51 319.91,237.34 319.91,222.72 " fill="none" id="manageEvent-to-createEvent" style="stroke:#E7E7E7;stroke-width:1;stroke-dasharray:7.0,7.0;"/><polygon fill="#E7E7E7" points="319.91,216.72,315.91,225.72,319.91,221.72,323.91,225.72,319.91,216.72" style="stroke:#E7E7E7;stroke-width:1;"/><text fill="#FFFFFF" font-family="sans-serif" font-size="13" lengthAdjust="spacing" textLength="53.8726" x="281.91" y="246.4569">includes</text></g><!--link registerEvent to buyTicket--><g id="link_registerEvent_buyTicket"><path d="M319.91,823.43 C319.91,838.44 319.91,853.07 319.91,867.77 " fill="none" id="registerEvent-to-buyTicket" style="stroke:#E7E7E7;stroke-width:1;stroke-dasharray:7.0,7.0;"/><polygon fill="#E7E7E7" points="319.91,873.77,323.91,864.77,319.91,868.77,315.91,864.77,319.91,873.77" style="stroke:#E7E7E7;stroke-width:1;"/><text fill="#FFFFFF" font-family="sans-serif" font-size="13" lengthAdjust="spacing" textLength="53.8726" x="281.91" y="853.2069">includes</text></g><!--link hostVirtual to manageEvent--><g id="link_hostVirtual_manageEvent"><path d="M238.02,654.05 C213.31,648.53 188.66,637.79 173.22,617.5 C166.77,609.04 110.46,440.43 211.28,320 C222.09,307.09 231.9917,300.7382 248.0217,295.5482 " fill="none" id="hostVirtual-to-manageEvent" style="stroke:#E7E7E7;stroke-width:1;stroke-dasharray:7.0,7.0;"/><polygon fill="#E7E7E7" points="253.73,293.7,243.9355,292.6667,248.9731,295.2401,246.3997,300.2777,253.73,293.7" style="stroke:#E7E7E7;stroke-width:1;"/><text fill="#FFFFFF" font-family="sans-serif" font-size="13" lengthAdjust="spacing" textLength="52.0508" x="150.28" y="613.5669">extends</text></g><!--link analytics to reports--><g id="link_analytics_reports"><path d="M319.91,442.48 C319.91,457.01 319.91,471.67 319.91,486.69 " fill="none" id="analytics-to-reports" style="stroke:#E7E7E7;stroke-width:1;stroke-dasharray:7.0,7.0;"/><polygon fill="#E7E7E7" points="319.91,492.69,323.91,483.69,319.91,487.69,315.91,483.69,319.91,492.69" style="stroke:#E7E7E7;stroke-width:1;"/><text fill="#FFFFFF" font-family="sans-serif" font-size="13" lengthAdjust="spacing" textLength="53.8726" x="281.91" y="472.1569">includes</text></g><!--SRC=[VLHDRzim3BthLn2zz9JrxiE0e2ZsWGqhagrtJQ5jBRPaI78xRzX_dqH9iLG7lOcFZ-GpFpnWwy1fCBBh7PoaGU6aLioUfPguuIDmuRGvkcL0u2zezOYCtS8-e9Or-zCeLGFS0WylrZmyetBmpNHSoJzeoAMpvVdEeJeXnf1aiEOuQMLrPDluPYneuQhpXIcfR1Vuom1kuOT50r-vuXsEtk6nsQBW5k4cel1eT2i7l0dvflWkMLzq9zNT0Jjf7HfYyTdrZBB7BxYU_juWTqaFXGa2oBuYWt1Bn96G3V59uaj9U_RsXfI5GgjDKTiaEF99-tSfpkYawihmnzc8FhoYbs9_pakqhgYEZbBsbdhVepZlf88yqDYDWFej82rFqhYP3-dhok2FshhQJT6zXnDQiZzhNsRB_kNXpAPwUyM7nKbXD_szUEAah_4-e48JHdl0IPlqyIQ-O_hZudizlhrsOJ7Blf5TjKshLdQpmPGkTet02B1_uReEEF1mXhQNasLqMR3RlQ-ohcWLpox7HZvQwnhAzr2ZvIBNdd9pNoM_TBB6SzzULKZBKQFbq5d-8QpIAoGhhy3rOYguFexAjUv-1LSBbNv2gv0Io3fAR9NXv_T9YM4-uTt3xv3VQod7MVGJtbMDXmPaZBIiqXzu5zKbg-XUu9If6q2gxZSbZobGqcoA9Fy1]--></g></svg>